G04 Layer_Color=8421504*
%FSLAX25Y25*%
%MOIN*%
G70*
G01*
G75*
%ADD10R,0.03937X0.04921*%
%ADD11C,0.03937*%
%ADD12R,0.04921X0.03937*%
%ADD13R,0.03937X0.05905*%
%ADD14R,0.05905X0.03937*%
%ADD15R,0.04331X0.02362*%
%ADD16R,0.06890X0.07480*%
%ADD17R,0.07087X0.07480*%
%ADD18R,0.08268X0.06299*%
%ADD19R,0.01575X0.05512*%
%ADD20R,0.02362X0.05118*%
%ADD21O,0.06291X0.02362*%
%ADD22R,0.04134X0.08661*%
%ADD23R,0.03937X0.04134*%
%ADD24R,0.06299X0.03937*%
%ADD25R,0.07087X0.04724*%
G04:AMPARAMS|DCode=26|XSize=47.24mil|YSize=70.87mil|CornerRadius=0mil|HoleSize=0mil|Usage=FLASHONLY|Rotation=270.000|XOffset=0mil|YOffset=0mil|HoleType=Round|Shape=Octagon|*
%AMOCTAGOND26*
4,1,8,0.03543,0.01181,0.03543,-0.01181,0.02362,-0.02362,-0.02362,-0.02362,-0.03543,-0.01181,-0.03543,0.01181,-0.02362,0.02362,0.02362,0.02362,0.03543,0.01181,0.0*
%
%ADD26OCTAGOND26*%

G04:AMPARAMS|DCode=27|XSize=47.24mil|YSize=70.87mil|CornerRadius=0mil|HoleSize=0mil|Usage=FLASHONLY|Rotation=180.000|XOffset=0mil|YOffset=0mil|HoleType=Round|Shape=Octagon|*
%AMOCTAGOND27*
4,1,8,0.01181,-0.03543,-0.01181,-0.03543,-0.02362,-0.02362,-0.02362,0.02362,-0.01181,0.03543,0.01181,0.03543,0.02362,0.02362,0.02362,-0.02362,0.01181,-0.03543,0.0*
%
%ADD27OCTAGOND27*%

%ADD28R,0.04724X0.07087*%
D10*
X107283Y56102D02*
D03*
X115157D02*
D03*
X167323Y114173D02*
D03*
X159449D02*
D03*
X199803Y19685D02*
D03*
X191929D02*
D03*
X159449Y97441D02*
D03*
X167323D02*
D03*
Y89567D02*
D03*
X159449D02*
D03*
X199803Y10827D02*
D03*
X191929D02*
D03*
X107283Y104331D02*
D03*
X115157D02*
D03*
X258169Y248524D02*
D03*
X250295D02*
D03*
X258169Y240748D02*
D03*
X250295D02*
D03*
X167323Y81693D02*
D03*
X159449D02*
D03*
X159449Y136811D02*
D03*
X167323D02*
D03*
X107283Y70866D02*
D03*
X115157D02*
D03*
Y82677D02*
D03*
X107283D02*
D03*
X115157Y93504D02*
D03*
X107283D02*
D03*
Y113189D02*
D03*
X115157D02*
D03*
X27559Y120079D02*
D03*
X19685D02*
D03*
X207480Y151575D02*
D03*
X215354D02*
D03*
D11*
X147382Y137736D02*
D03*
D12*
X150492Y122047D02*
D03*
Y114173D02*
D03*
X177165Y12795D02*
D03*
Y4921D02*
D03*
X209646Y160433D02*
D03*
Y168307D02*
D03*
X27559Y37402D02*
D03*
Y45276D02*
D03*
X114173Y11811D02*
D03*
Y19685D02*
D03*
X17717Y17717D02*
D03*
Y25591D02*
D03*
Y37402D02*
D03*
Y45276D02*
D03*
X102362Y151575D02*
D03*
Y159449D02*
D03*
X110236D02*
D03*
Y151575D02*
D03*
X118110Y159449D02*
D03*
Y151575D02*
D03*
X164469Y147244D02*
D03*
Y155118D02*
D03*
X156890D02*
D03*
Y147244D02*
D03*
X33465Y17717D02*
D03*
Y25591D02*
D03*
X25591D02*
D03*
Y17717D02*
D03*
X141732Y159449D02*
D03*
Y151575D02*
D03*
X133858D02*
D03*
Y159449D02*
D03*
X125984D02*
D03*
Y151575D02*
D03*
X202756Y168307D02*
D03*
Y160433D02*
D03*
D13*
X99410Y93012D02*
D03*
Y103839D02*
D03*
X256201Y189469D02*
D03*
Y178642D02*
D03*
X89567Y92520D02*
D03*
Y103347D02*
D03*
D14*
X81201Y77756D02*
D03*
X70374D02*
D03*
D15*
X71653Y61221D02*
D03*
Y68701D02*
D03*
X81890D02*
D03*
Y64961D02*
D03*
Y61221D02*
D03*
X168504Y30709D02*
D03*
Y34449D02*
D03*
Y38189D02*
D03*
X158268D02*
D03*
Y34449D02*
D03*
Y30709D02*
D03*
D16*
X156398Y9252D02*
D03*
X147539D02*
D03*
D17*
X167717D02*
D03*
X136221D02*
D03*
D18*
X164173Y19291D02*
D03*
X139764D02*
D03*
D19*
X157087Y19685D02*
D03*
X154528D02*
D03*
X151969D02*
D03*
X149409D02*
D03*
X146850D02*
D03*
D20*
X217126Y161221D02*
D03*
X224606D02*
D03*
X220866Y169488D02*
D03*
D21*
X140059Y127736D02*
D03*
Y132736D02*
D03*
Y137736D02*
D03*
Y142736D02*
D03*
X116437Y127736D02*
D03*
Y132736D02*
D03*
Y137736D02*
D03*
Y142736D02*
D03*
D22*
X246949Y161417D02*
D03*
X235335D02*
D03*
D23*
X241142Y155413D02*
D03*
D24*
X253937Y279528D02*
D03*
Y291339D02*
D03*
D25*
X252953Y144685D02*
D03*
Y136811D02*
D03*
Y121063D02*
D03*
Y128937D02*
D03*
Y97441D02*
D03*
Y89567D02*
D03*
Y105315D02*
D03*
Y113189D02*
D03*
Y81693D02*
D03*
Y73819D02*
D03*
Y65945D02*
D03*
X176575D02*
D03*
Y73819D02*
D03*
Y81693D02*
D03*
Y113189D02*
D03*
Y105315D02*
D03*
Y89567D02*
D03*
Y97441D02*
D03*
Y128937D02*
D03*
Y121063D02*
D03*
Y136811D02*
D03*
Y144685D02*
D03*
D26*
X252953Y58071D02*
D03*
X176575Y58071D02*
D03*
D27*
X246260Y51378D02*
D03*
X183268D02*
D03*
D28*
X238386D02*
D03*
X230512D02*
D03*
X222638D02*
D03*
X206890D02*
D03*
X199016D02*
D03*
X191142D02*
D03*
M02*
