G04 Layer_Color=14360714*
%FSLAX25Y25*%
%MOIN*%
G70*
G01*
G75*
%ADD57C,0.01968*%
%ADD58C,0.00394*%
G36*
X37992Y104921D02*
X42520Y102854D01*
X46457Y100000D01*
X49409Y96949D01*
X52559Y91929D01*
X53839Y88681D01*
X55216Y82776D01*
X54626Y75492D01*
X52953Y70276D01*
X50689Y66437D01*
X47736Y62697D01*
X44783Y60236D01*
X42028Y58465D01*
X39075Y56988D01*
X35433Y55807D01*
X33563Y55512D01*
X33465D01*
Y105905D01*
X37992Y104921D01*
D02*
G37*
D57*
X81102Y60630D02*
D03*
X167323Y30118D02*
D03*
D58*
X55118Y80709D02*
G03*
X55118Y80709I-25591J0D01*
G01*
X107087Y58465D02*
X114957D01*
X107087Y53740D02*
X114957D01*
X107087D02*
Y58465D01*
X114957Y53740D02*
Y58465D01*
X184272Y23543D02*
X186772Y26043D01*
X179272Y23543D02*
X184272D01*
X176772Y26043D02*
X179272Y23543D01*
X176772Y26043D02*
Y31043D01*
X179272Y33543D01*
X184272D01*
X186772Y31043D01*
X194272Y33543D02*
X196772Y31043D01*
X189272Y33543D02*
X194272D01*
X186772Y31043D02*
X189272Y33543D01*
X186772Y26043D02*
Y31043D01*
Y26043D02*
X189272Y23543D01*
X194272D01*
X196772Y26043D01*
X204272Y23543D02*
X206772Y26043D01*
X199272Y23543D02*
X204272D01*
X196772Y26043D02*
X199272Y23543D01*
X196772Y26043D02*
Y31043D01*
X199272Y33543D01*
X204272D01*
X206772Y31043D01*
X216772Y33543D02*
X226772D01*
X214272D02*
X216772Y31043D01*
X209272Y33543D02*
X214272D01*
X206772Y31043D02*
X209272Y33543D01*
X206772Y26043D02*
Y31043D01*
Y26043D02*
X209272Y23543D01*
X214272D01*
X216772Y26043D01*
X226772Y23543D02*
Y33543D01*
X216772Y23543D02*
Y33543D01*
Y23543D02*
X226772D01*
X251890Y13543D02*
Y23543D01*
X261890D01*
X251890Y13543D02*
X261890D01*
X251890Y26043D02*
X254390Y23543D01*
X251890Y26043D02*
Y31043D01*
X254390Y33543D01*
X259390D01*
X261890Y31043D01*
Y26043D02*
Y31043D01*
X259390Y23543D02*
X261890Y26043D01*
Y13543D02*
Y23543D01*
X259390Y33543D02*
X261890Y36043D01*
Y41043D01*
X259390Y43543D02*
X261890Y41043D01*
X254390Y43543D02*
X259390D01*
X251890Y41043D02*
X254390Y43543D01*
X251890Y36043D02*
Y41043D01*
Y36043D02*
X254390Y33543D01*
X147835Y119685D02*
X153150D01*
Y113976D02*
Y122244D01*
X147835Y113976D02*
Y122244D01*
X153150D01*
X147835Y113976D02*
X153150D01*
X159649Y111811D02*
X167520D01*
X159649Y116535D02*
X167520D01*
Y111811D02*
Y116535D01*
X159649Y111811D02*
Y116535D01*
X192129Y17323D02*
X200000D01*
X192129Y22047D02*
X200000D01*
Y17323D02*
Y22047D01*
X192129Y17323D02*
Y22047D01*
X159252Y99803D02*
X167123D01*
X159252Y95079D02*
X167123D01*
X159252D02*
Y99803D01*
X167123Y95079D02*
Y99803D01*
X159649Y87205D02*
X167520D01*
X159649Y91929D02*
X167520D01*
Y87205D02*
Y91929D01*
X159649Y87205D02*
Y91929D01*
X199603Y8465D02*
Y13189D01*
X191732Y8465D02*
Y13189D01*
Y8465D02*
X199603D01*
X191732Y13189D02*
X199603D01*
X174508Y12992D02*
X179823D01*
X174508Y4724D02*
X179823D01*
Y12992D01*
X174508Y4724D02*
Y12992D01*
Y7283D02*
X179823D01*
X96063Y97244D02*
X102756D01*
X102756Y91043D02*
Y105807D01*
X96063Y91043D02*
X102756D01*
X96063D02*
Y105807D01*
X102756D01*
X76968Y74410D02*
Y81102D01*
X68406Y81102D02*
X83170D01*
Y74410D02*
Y81102D01*
X68406Y74410D02*
X83170D01*
X68406D02*
Y81102D01*
X107483Y101969D02*
Y106693D01*
X115354Y101969D02*
Y106693D01*
X107483D02*
X115354D01*
X107483Y101969D02*
X115354D01*
X70867Y59056D02*
X82678D01*
X70867D02*
Y70867D01*
X82678D01*
Y59056D02*
Y70867D01*
X15748Y320866D02*
X23622D01*
X74803D02*
X82677D01*
X35433D02*
X39370D01*
X59055D02*
Y326772D01*
X39370D02*
X59055D01*
X39370Y314961D02*
Y326772D01*
Y314961D02*
X59055D01*
Y320866D01*
X62992D01*
X8268Y307086D02*
X90158D01*
X8268Y334645D02*
X90158D01*
X8268Y307086D02*
Y334645D01*
X90158Y307086D02*
Y334645D01*
X136614Y20472D02*
X167323D01*
X136614Y787D02*
X167323D01*
Y20472D01*
X136614Y787D02*
Y20472D01*
X206988Y165945D02*
X212303D01*
Y160236D02*
Y168504D01*
X206988Y160236D02*
Y168504D01*
X212303D01*
X206988Y160236D02*
X212303D01*
X252854Y185236D02*
X259547D01*
X252854Y176674D02*
Y191437D01*
X259547D01*
Y176674D02*
Y191437D01*
X252854Y176674D02*
X259547D01*
X244764Y228346D02*
Y304330D01*
X204607Y228346D02*
X244764D01*
X204607D02*
Y304330D01*
X244764D01*
X114173Y233170D02*
X153543D01*
Y304035D01*
X114173D02*
X153543D01*
X114173Y233170D02*
Y304035D01*
X21653Y267716D02*
X72834D01*
X21653Y283464D02*
X72834D01*
X21653Y267716D02*
Y283464D01*
X72834Y267716D02*
Y283464D01*
X25197Y37205D02*
Y45076D01*
X29921Y37205D02*
Y45076D01*
X25197Y37205D02*
X29921D01*
X25197Y45076D02*
X29921D01*
X111811Y11614D02*
Y19485D01*
X116535Y11614D02*
Y19485D01*
X111811Y11614D02*
X116535D01*
X111811Y19485D02*
X116535D01*
X15354Y17520D02*
Y25390D01*
X20079Y17520D02*
Y25390D01*
X15354Y17520D02*
X20079D01*
X15354Y25390D02*
X20079D01*
X15354Y37205D02*
Y45076D01*
X20079Y37205D02*
Y45076D01*
X15354Y37205D02*
X20079D01*
X15354Y45076D02*
X20079D01*
X250495Y246161D02*
X258366D01*
X250495Y250886D02*
X258366D01*
Y246161D02*
Y250886D01*
X250495Y246161D02*
Y250886D01*
Y238386D02*
X258366D01*
X250495Y243110D02*
X258366D01*
Y238386D02*
Y243110D01*
X250495Y238386D02*
Y243110D01*
X100000Y151378D02*
Y159249D01*
X104724Y151378D02*
Y159249D01*
X100000Y151378D02*
X104724D01*
X100000Y159249D02*
X104724D01*
X112598Y151775D02*
Y159646D01*
X107874Y151775D02*
Y159646D01*
X112598D01*
X107874Y151775D02*
X112598D01*
X120472D02*
Y159646D01*
X115748Y151775D02*
Y159646D01*
X120472D01*
X115748Y151775D02*
X120472D01*
X162106Y147047D02*
Y154918D01*
X166831Y147047D02*
Y154918D01*
X162106Y147047D02*
X166831D01*
X162106Y154918D02*
X166831D01*
X159252Y147444D02*
Y155315D01*
X154528Y147444D02*
Y155315D01*
X159252D01*
X154528Y147444D02*
X159252D01*
X116043Y144882D02*
X140453D01*
Y125197D02*
Y144882D01*
X116043Y125197D02*
X140453D01*
X116043D02*
Y144882D01*
X31102Y17917D02*
X35827D01*
X31102Y25787D02*
X35827D01*
X31102Y17917D02*
Y25787D01*
X35827Y17917D02*
Y25787D01*
X23228Y25390D02*
X27953D01*
X23228Y17520D02*
X27953D01*
Y25390D01*
X23228Y17520D02*
Y25390D01*
X139370Y159249D02*
X144095D01*
X139370Y151378D02*
X144095D01*
Y159249D01*
X139370Y151378D02*
Y159249D01*
X131496Y151775D02*
X136221D01*
X131496Y159646D02*
X136221D01*
X131496Y151775D02*
Y159646D01*
X136221Y151775D02*
Y159646D01*
X123622Y159249D02*
X128347D01*
X123622Y151378D02*
X128347D01*
Y159249D01*
X123622Y151378D02*
Y159249D01*
X21653Y285432D02*
X72834D01*
X21653Y301180D02*
X72834D01*
X21653Y285432D02*
Y301180D01*
X72834Y285432D02*
Y301180D01*
X159649Y79331D02*
X167520D01*
X159649Y84055D02*
X167520D01*
Y79331D02*
Y84055D01*
X159649Y79331D02*
Y84055D01*
X168897Y28740D02*
Y40158D01*
X157873Y28740D02*
Y40158D01*
X168897D01*
X157873Y28740D02*
X168897D01*
X159252Y139173D02*
X167123D01*
X159252Y134449D02*
X167123D01*
X159252D02*
Y139173D01*
X167123Y134449D02*
Y139173D01*
X235237Y154872D02*
Y165896D01*
Y154872D02*
X247047D01*
Y165896D01*
X235237D02*
X247047D01*
X86221Y96752D02*
X92913D01*
X92913Y90551D02*
Y105315D01*
X86221Y90551D02*
X92913D01*
X86221D02*
Y105315D01*
X92913D01*
X107087Y73228D02*
X114957D01*
X107087Y68504D02*
X114957D01*
X107087D02*
Y73228D01*
X114957Y68504D02*
Y73228D01*
Y80315D02*
Y85039D01*
X107087Y80315D02*
Y85039D01*
Y80315D02*
X114957D01*
X107087Y85039D02*
X114957D01*
Y91142D02*
Y95866D01*
X107087Y91142D02*
Y95866D01*
Y91142D02*
X114957D01*
X107087Y95866D02*
X114957D01*
X107483Y110827D02*
Y115551D01*
X115354Y110827D02*
Y115551D01*
X107483D02*
X115354D01*
X107483Y110827D02*
X115354D01*
X9450Y261810D02*
X88977D01*
X9450Y127952D02*
X88977D01*
X9450D02*
Y261810D01*
X88977Y127952D02*
Y261810D01*
X27359Y117717D02*
Y122441D01*
X19488Y117717D02*
Y122441D01*
Y117717D02*
X27359D01*
X19488Y122441D02*
X27359D01*
X205118Y160633D02*
Y168504D01*
X200394Y160633D02*
Y168504D01*
X205118D01*
X200394Y160633D02*
X205118D01*
X207283Y153937D02*
X215154D01*
X207283Y149213D02*
X215154D01*
X207283D02*
Y153937D01*
X215154Y149213D02*
Y153937D01*
X250886Y279134D02*
Y291732D01*
X256988Y279134D02*
Y291732D01*
X250886Y279134D02*
X256988D01*
X250886Y291732D02*
X256988D01*
X250098Y174311D02*
Y224311D01*
X135925D02*
X250098D01*
X135925Y174311D02*
Y224311D01*
Y174311D02*
X250098D01*
X66142Y83661D02*
Y113189D01*
Y83661D02*
X81102D01*
Y113189D01*
X66142D02*
X81102D01*
M02*
