G04 Layer_Physical_Order=1*
G04 Layer_Color=255*
%FSLAX25Y25*%
%MOIN*%
G70*
G01*
G75*
%ADD10R,0.03937X0.04921*%
%ADD11C,0.03937*%
%ADD12R,0.04921X0.03937*%
%ADD13R,0.03937X0.05905*%
%ADD14R,0.05905X0.03937*%
%ADD15R,0.04331X0.02362*%
%ADD16R,0.06890X0.07480*%
%ADD17R,0.07087X0.07480*%
%ADD18R,0.08268X0.06299*%
%ADD19R,0.01575X0.05512*%
%ADD20R,0.02362X0.05118*%
%ADD21O,0.06291X0.02362*%
%ADD22R,0.04134X0.08661*%
%ADD23R,0.03937X0.04134*%
%ADD24R,0.06299X0.03937*%
%ADD25R,0.07087X0.04724*%
G04:AMPARAMS|DCode=26|XSize=47.24mil|YSize=70.87mil|CornerRadius=0mil|HoleSize=0mil|Usage=FLASHONLY|Rotation=270.000|XOffset=0mil|YOffset=0mil|HoleType=Round|Shape=Octagon|*
%AMOCTAGOND26*
4,1,8,0.03543,0.01181,0.03543,-0.01181,0.02362,-0.02362,-0.02362,-0.02362,-0.03543,-0.01181,-0.03543,0.01181,-0.02362,0.02362,0.02362,0.02362,0.03543,0.01181,0.0*
%
%ADD26OCTAGOND26*%

G04:AMPARAMS|DCode=27|XSize=47.24mil|YSize=70.87mil|CornerRadius=0mil|HoleSize=0mil|Usage=FLASHONLY|Rotation=180.000|XOffset=0mil|YOffset=0mil|HoleType=Round|Shape=Octagon|*
%AMOCTAGOND27*
4,1,8,0.01181,-0.03543,-0.01181,-0.03543,-0.02362,-0.02362,-0.02362,0.02362,-0.01181,0.03543,0.01181,0.03543,0.02362,0.02362,0.02362,-0.02362,0.01181,-0.03543,0.0*
%
%ADD27OCTAGOND27*%

%ADD28R,0.04724X0.07087*%
%ADD29C,0.02756*%
%ADD30C,0.01378*%
%ADD31C,0.01968*%
%ADD32C,0.03937*%
%ADD33C,0.07874*%
%ADD34C,0.01575*%
%ADD35C,0.01181*%
%ADD36C,0.07283*%
%ADD37C,0.02028*%
%ADD38C,0.05905*%
%ADD39C,0.02559*%
%ADD40C,0.02362*%
%ADD41C,0.07874*%
%ADD42R,0.07874X0.07874*%
%ADD43R,0.07874X0.07874*%
%ADD44O,0.07874X0.15748*%
%ADD45R,0.06000X0.06000*%
%ADD46C,0.06000*%
%ADD47C,0.19685*%
%ADD48C,0.07087*%
%ADD49C,0.06299*%
%ADD50P,0.08523X8X22.5*%
%ADD51C,0.08661*%
%ADD52C,0.09055*%
%ADD53C,0.02756*%
G36*
X262776Y1003D02*
X72022D01*
X71754Y1503D01*
X72107Y2031D01*
X72290Y2953D01*
X72107Y3875D01*
X71585Y4656D01*
X70905Y5110D01*
Y10268D01*
X71380Y10465D01*
X72408Y11254D01*
X73196Y12282D01*
X73692Y13479D01*
X73861Y14764D01*
X73692Y16048D01*
X73196Y17246D01*
X72408Y18274D01*
X71380Y19062D01*
X70182Y19558D01*
X68898Y19727D01*
X67613Y19558D01*
X66416Y19062D01*
X65388Y18274D01*
X64599Y17246D01*
X64103Y16048D01*
X63934Y14764D01*
X64103Y13479D01*
X64599Y12282D01*
X65388Y11254D01*
X66416Y10465D01*
X66891Y10268D01*
Y3937D01*
X67043Y3169D01*
X67478Y2518D01*
X67580Y2416D01*
X67657Y2031D01*
X68009Y1503D01*
X67742Y1003D01*
X57258D01*
X56991Y1503D01*
X57343Y2031D01*
X57527Y2953D01*
Y10435D01*
X57600Y10465D01*
X58628Y11254D01*
X59417Y12282D01*
X59913Y13479D01*
X60082Y14764D01*
X59913Y16048D01*
X59417Y17246D01*
X58628Y18274D01*
X57600Y19062D01*
X56403Y19558D01*
X55118Y19727D01*
X53833Y19558D01*
X52636Y19062D01*
X51608Y18274D01*
X50819Y17246D01*
X50323Y16048D01*
X50154Y14764D01*
X50323Y13479D01*
X50819Y12282D01*
X51608Y11254D01*
X52636Y10465D01*
X52710Y10435D01*
Y5361D01*
X26588D01*
X20125Y11824D01*
Y14764D01*
X21161D01*
Y20669D01*
X14272D01*
Y14764D01*
X15308D01*
Y10827D01*
X15491Y9905D01*
X16014Y9124D01*
X23634Y1503D01*
X23427Y1003D01*
X1003D01*
Y172244D01*
X116103D01*
Y162402D01*
X114665D01*
Y161456D01*
X113681D01*
Y162402D01*
X106791D01*
Y156496D01*
X113681D01*
Y157442D01*
X114665D01*
Y156496D01*
X121555D01*
Y162402D01*
X120117D01*
Y172244D01*
X132328D01*
X132517Y171892D01*
X132550Y171744D01*
X132453Y171260D01*
Y167323D01*
X132560Y166785D01*
X132865Y166329D01*
X133321Y166025D01*
X133858Y165918D01*
X185039D01*
X185577Y166025D01*
X186033Y166329D01*
X186337Y166785D01*
X186444Y167323D01*
Y171260D01*
X186348Y171744D01*
X186381Y171892D01*
X186569Y172244D01*
X195144D01*
Y162698D01*
X194945Y162658D01*
X194163Y162136D01*
X193641Y161355D01*
X193458Y160433D01*
X193641Y159511D01*
X194163Y158730D01*
X194945Y158208D01*
X195866Y158025D01*
X196788Y158208D01*
X197569Y158730D01*
X198091Y159511D01*
X198275Y160433D01*
X198259Y160513D01*
X198426Y160765D01*
X198556Y161417D01*
Y171235D01*
X198848Y171349D01*
X199311Y171035D01*
Y165354D01*
X200347D01*
X200347Y165354D01*
X200531Y164433D01*
X200896Y163886D01*
X200629Y163386D01*
X199311D01*
Y157480D01*
X212847D01*
X213090Y157480D01*
X213347Y157087D01*
Y155020D01*
X212402D01*
Y148130D01*
X218307D01*
Y155020D01*
X217361D01*
Y157677D01*
X219291D01*
Y164764D01*
X214961D01*
Y161893D01*
X213935Y160868D01*
X213591Y160352D01*
X213090Y160504D01*
Y163386D01*
X204883D01*
X204616Y163886D01*
X204981Y164433D01*
X205164Y165354D01*
X205164Y165354D01*
X213090D01*
Y166300D01*
X218701D01*
Y165945D01*
X223031D01*
Y172555D01*
X232013Y181536D01*
X235180D01*
X235500Y180764D01*
X236384Y179612D01*
X237535Y178729D01*
X238876Y178173D01*
X240315Y177984D01*
X241754Y178173D01*
X242527Y178493D01*
X243797Y177223D01*
X244448Y176787D01*
X245216Y176635D01*
X253248D01*
Y174705D01*
X259154D01*
Y182579D01*
X253248D01*
Y180649D01*
X246048D01*
X245365Y181332D01*
X245685Y182104D01*
X245874Y183543D01*
X245685Y184982D01*
X245129Y186323D01*
X244246Y187474D01*
X243095Y188358D01*
X241754Y188913D01*
X240315Y189103D01*
X238876Y188913D01*
X237535Y188358D01*
X236384Y187474D01*
X235500Y186323D01*
X235180Y185550D01*
X231181D01*
X230413Y185398D01*
X229762Y184962D01*
X219447Y174648D01*
X219012Y173996D01*
X218859Y173228D01*
Y173031D01*
X218701D01*
Y170314D01*
X213090D01*
Y171260D01*
X209646D01*
X209646Y171260D01*
Y173768D01*
X229533Y193656D01*
X230449Y193838D01*
X231231Y194360D01*
X231753Y195141D01*
X231936Y196063D01*
X231753Y196985D01*
X231231Y197766D01*
X230449Y198288D01*
X229528Y198471D01*
X228606Y198288D01*
X227824Y197766D01*
X227302Y196985D01*
X227120Y196068D01*
X210108Y179056D01*
X209646Y179247D01*
Y228773D01*
X209745Y228860D01*
Y233464D01*
X210434D01*
Y234153D01*
X214759D01*
X214699Y234607D01*
X214258Y235672D01*
X213556Y236587D01*
X212641Y237288D01*
X211778Y237646D01*
X211617Y238191D01*
X231299Y257874D01*
X262776D01*
Y1003D01*
D02*
G37*
%LPC*%
G36*
X74803Y70866D02*
X68504D01*
Y66535D01*
X74803D01*
Y70866D01*
D02*
G37*
G36*
X257874Y65256D02*
X253642D01*
Y62205D01*
X257874D01*
Y65256D01*
D02*
G37*
G36*
X175886Y65256D02*
X171653D01*
Y62205D01*
X175886D01*
Y65256D01*
D02*
G37*
G36*
X181496D02*
X177264D01*
Y62205D01*
X181496D01*
Y65256D01*
D02*
G37*
G36*
X175886Y69685D02*
X171653D01*
Y66634D01*
X175886D01*
Y69685D01*
D02*
G37*
G36*
X181102Y77165D02*
X172047D01*
Y70472D01*
X181102D01*
Y77165D01*
D02*
G37*
G36*
X257480D02*
X248425D01*
Y70472D01*
X257480D01*
Y77165D01*
D02*
G37*
G36*
X257874Y69685D02*
X253642D01*
Y66634D01*
X257874D01*
Y69685D01*
D02*
G37*
G36*
X181496D02*
X177264D01*
Y66634D01*
X181496D01*
Y69685D01*
D02*
G37*
G36*
X252264D02*
X248031D01*
Y66634D01*
X252264D01*
Y69685D01*
D02*
G37*
G36*
X210630Y56299D02*
X207579D01*
Y52067D01*
X210630D01*
Y56299D01*
D02*
G37*
G36*
X110236Y59547D02*
X104331D01*
Y58511D01*
X102362D01*
X101441Y58328D01*
X100659Y57805D01*
X100137Y57024D01*
X99954Y56102D01*
X100137Y55181D01*
X100659Y54399D01*
X101441Y53877D01*
X102362Y53694D01*
X104331D01*
Y52658D01*
X110236D01*
Y59547D01*
D02*
G37*
G36*
X206201Y56299D02*
X203150D01*
Y52067D01*
X206201D01*
Y56299D01*
D02*
G37*
G36*
X31004Y48228D02*
X24114D01*
Y47684D01*
X21161D01*
Y48228D01*
X14272D01*
Y42323D01*
X21161D01*
Y42867D01*
X24114D01*
Y42323D01*
X31004D01*
Y42867D01*
X34449D01*
X35370Y43050D01*
X36152Y43573D01*
X36674Y44354D01*
X36857Y45276D01*
X36674Y46197D01*
X36152Y46979D01*
X35370Y47501D01*
X34449Y47684D01*
X31004D01*
Y48228D01*
D02*
G37*
G36*
X118110Y116634D02*
X112205D01*
Y109744D01*
X112749D01*
Y107776D01*
X112205D01*
Y100886D01*
X118110D01*
Y102807D01*
X118572Y102999D01*
X144647Y76925D01*
Y53413D01*
X144428Y53087D01*
X144245Y52165D01*
X144428Y51244D01*
X144950Y50462D01*
X145732Y49940D01*
X146653Y49757D01*
X147575Y49940D01*
X148357Y50462D01*
X148879Y51244D01*
X149062Y52165D01*
X148879Y53087D01*
X148661Y53413D01*
Y77756D01*
X148508Y78524D01*
X148073Y79175D01*
X118004Y109244D01*
X118110Y109744D01*
X118110D01*
Y116634D01*
D02*
G37*
G36*
X85433Y60532D02*
X82579D01*
Y58661D01*
X85433D01*
Y60532D01*
D02*
G37*
G36*
X74803Y63386D02*
X68504D01*
Y59055D01*
X74803D01*
Y63386D01*
D02*
G37*
G36*
X81201Y60532D02*
X78347D01*
Y58661D01*
X81201D01*
Y60532D01*
D02*
G37*
G36*
X118110Y59547D02*
X112205D01*
Y52658D01*
X118110D01*
Y53694D01*
X121063D01*
X121985Y53877D01*
X122766Y54399D01*
X123288Y55181D01*
X123471Y56102D01*
X123288Y57024D01*
X122766Y57805D01*
X121985Y58328D01*
X121063Y58511D01*
X118110D01*
Y59547D01*
D02*
G37*
G36*
X179429Y61417D02*
X173721D01*
X172047Y59744D01*
Y56398D01*
X173721Y54724D01*
X179429D01*
X181102Y56398D01*
Y59744D01*
X179429Y61417D01*
D02*
G37*
G36*
X257480Y92913D02*
X248425D01*
Y86221D01*
X257480D01*
Y92913D01*
D02*
G37*
G36*
X79676Y92815D02*
X75492D01*
Y88631D01*
X76088Y88709D01*
X77285Y89205D01*
X78313Y89994D01*
X79102Y91022D01*
X79598Y92219D01*
X79676Y92815D01*
D02*
G37*
G36*
X170276Y93012D02*
X164370D01*
Y86122D01*
X170276D01*
Y87861D01*
X172047D01*
Y86221D01*
X181102D01*
Y92913D01*
X172047D01*
Y91273D01*
X170276D01*
Y93012D01*
D02*
G37*
G36*
X114469Y86516D02*
X111811D01*
Y83366D01*
X114469D01*
Y86516D01*
D02*
G37*
G36*
X118504D02*
X115846D01*
Y83366D01*
X118504D01*
Y86516D01*
D02*
G37*
G36*
X252264Y96752D02*
X248031D01*
Y93701D01*
X252264D01*
Y96752D01*
D02*
G37*
G36*
X257874D02*
X253642D01*
Y93701D01*
X257874D01*
Y96752D01*
D02*
G37*
G36*
X118504Y92815D02*
X115846D01*
Y89665D01*
X118504D01*
Y92815D01*
D02*
G37*
G36*
X74114Y92815D02*
X69930D01*
X70009Y92219D01*
X70504Y91022D01*
X71293Y89994D01*
X72321Y89205D01*
X73518Y88709D01*
X74114Y88631D01*
Y92815D01*
D02*
G37*
G36*
X114469Y92815D02*
X111811D01*
Y89665D01*
X114469D01*
Y92815D01*
D02*
G37*
G36*
X18898Y142369D02*
X17510Y142186D01*
X16217Y141650D01*
X15107Y140798D01*
X14255Y139688D01*
X13720Y138395D01*
X13537Y137008D01*
X13720Y135620D01*
X14255Y134327D01*
X15107Y133217D01*
X15919Y132594D01*
Y120866D01*
X16021Y120095D01*
X16318Y119377D01*
X16732Y118838D01*
Y116634D01*
X17277D01*
Y85630D01*
X17224D01*
X14764Y83169D01*
Y78248D01*
X17224Y75787D01*
X22146D01*
X24606Y78248D01*
Y83169D01*
X22146Y85630D01*
X22094D01*
Y116634D01*
X22638D01*
Y119885D01*
X22663Y120079D01*
X22638Y120272D01*
Y123524D01*
X21876D01*
Y132594D01*
X22688Y133217D01*
X23540Y134327D01*
X24076Y135620D01*
X24259Y137008D01*
X24076Y138395D01*
X23540Y139688D01*
X22688Y140798D01*
X21578Y141650D01*
X20285Y142186D01*
X18898Y142369D01*
D02*
G37*
G36*
X162402Y93012D02*
X156496D01*
Y91273D01*
X154528D01*
X153875Y91143D01*
X153321Y90773D01*
X152951Y90220D01*
X152822Y89567D01*
Y48228D01*
X152951Y47576D01*
X153321Y47022D01*
X159527Y40816D01*
X159336Y40354D01*
X155118D01*
Y36155D01*
X152559D01*
X151906Y36025D01*
X151353Y35655D01*
X149018Y33321D01*
X148556Y33512D01*
Y34522D01*
X149075Y35299D01*
X149259Y36220D01*
X149075Y37142D01*
X148553Y37923D01*
X147772Y38446D01*
X146850Y38629D01*
X145929Y38446D01*
X145147Y37923D01*
X144625Y37142D01*
X144442Y36220D01*
X144625Y35299D01*
X145144Y34522D01*
Y28740D01*
Y23819D01*
X140453D01*
Y19291D01*
X139764D01*
Y18602D01*
X134252D01*
Y14870D01*
X134252Y14764D01*
X133995Y14370D01*
X131299D01*
Y9941D01*
X141142D01*
Y14264D01*
X141142Y14370D01*
X141398Y14764D01*
X142460D01*
X142717Y14370D01*
X142717Y14264D01*
Y9941D01*
X147539D01*
Y9252D01*
X148228D01*
Y4134D01*
X155709D01*
Y9252D01*
X156398D01*
Y9941D01*
X161221D01*
Y14264D01*
X161221Y14370D01*
X161477Y14764D01*
X162539D01*
X162795Y14370D01*
X162795Y14264D01*
Y9941D01*
X172638D01*
Y14370D01*
X169942D01*
X169685Y14764D01*
X169685Y14870D01*
Y18602D01*
X164173D01*
Y19980D01*
X169685D01*
Y23819D01*
X168287D01*
X168096Y24281D01*
X169710Y25896D01*
X170080Y26449D01*
X170210Y27102D01*
Y28543D01*
X171653D01*
Y31890D01*
X172047D01*
Y33760D01*
X168504D01*
Y35138D01*
X172047D01*
Y37008D01*
X171653D01*
Y40354D01*
X166371D01*
Y62720D01*
X166595Y63055D01*
X166779Y63976D01*
X166595Y64898D01*
X166371Y65233D01*
Y76476D01*
X166242Y77129D01*
X165872Y77683D01*
X165768Y77786D01*
X165960Y78248D01*
X170276D01*
Y79987D01*
X172047D01*
Y78347D01*
X181102D01*
Y85039D01*
X172047D01*
Y83399D01*
X170276D01*
Y85138D01*
X164370D01*
Y79838D01*
X163908Y79646D01*
X162402Y81153D01*
Y85138D01*
X156496D01*
X156234Y85529D01*
Y85731D01*
X156496Y86122D01*
X162402D01*
Y93012D01*
D02*
G37*
G36*
X44640Y80020D02*
X40059D01*
Y75438D01*
X40758Y75530D01*
X42050Y76066D01*
X43161Y76918D01*
X44013Y78028D01*
X44548Y79321D01*
X44640Y80020D01*
D02*
G37*
G36*
X74311Y80709D02*
X66437D01*
Y79610D01*
X66210Y79459D01*
X63258Y76506D01*
X62735Y75725D01*
X62552Y74803D01*
X62735Y73882D01*
X63258Y73100D01*
X64039Y72578D01*
X64961Y72395D01*
X65882Y72578D01*
X66664Y73100D01*
X68367Y74803D01*
X74311D01*
Y80709D01*
D02*
G37*
G36*
X38681Y80020D02*
X34100D01*
X34192Y79321D01*
X34727Y78028D01*
X35579Y76918D01*
X36690Y76066D01*
X37983Y75530D01*
X38681Y75438D01*
Y80020D01*
D02*
G37*
G36*
Y85979D02*
X37983Y85887D01*
X36690Y85351D01*
X35579Y84499D01*
X34727Y83389D01*
X34192Y82096D01*
X34100Y81398D01*
X38681D01*
Y85979D01*
D02*
G37*
G36*
X40059D02*
Y81398D01*
X44640D01*
X44548Y82096D01*
X44013Y83389D01*
X43161Y84499D01*
X42050Y85351D01*
X40758Y85887D01*
X40059Y85979D01*
D02*
G37*
G36*
X118504Y81988D02*
X115846D01*
Y78839D01*
X118504D01*
Y81988D01*
D02*
G37*
G36*
X257480Y85039D02*
X248425D01*
Y78347D01*
X257480D01*
Y85039D01*
D02*
G37*
G36*
X114469Y81988D02*
X111811D01*
Y78839D01*
X114469D01*
Y81988D01*
D02*
G37*
G36*
X202362Y55905D02*
X195669D01*
Y46850D01*
X202362D01*
Y55905D01*
D02*
G37*
G36*
X83957Y14075D02*
X79376D01*
X79467Y13376D01*
X80003Y12083D01*
X80855Y10973D01*
X81965Y10121D01*
X83258Y9586D01*
X83957Y9494D01*
Y14075D01*
D02*
G37*
G36*
X89916D02*
X85335D01*
Y9494D01*
X86033Y9586D01*
X87326Y10121D01*
X88436Y10973D01*
X89288Y12083D01*
X89824Y13376D01*
X89916Y14075D01*
D02*
G37*
G36*
X203150Y10138D02*
X200492D01*
Y6988D01*
X203150D01*
Y10138D01*
D02*
G37*
G36*
X181004Y8268D02*
X177854D01*
Y5610D01*
X181004D01*
Y8268D01*
D02*
G37*
G36*
X199114Y10138D02*
X196457D01*
Y6988D01*
X199114D01*
Y10138D01*
D02*
G37*
G36*
X203150Y14665D02*
X200492D01*
Y11516D01*
X203150D01*
Y14665D01*
D02*
G37*
G36*
X31004Y40354D02*
X24114D01*
Y34449D01*
X27106D01*
X31056Y30498D01*
Y28543D01*
X30020D01*
Y22638D01*
X36909D01*
Y25629D01*
X42336Y31056D01*
X105302D01*
X111765Y24593D01*
Y22638D01*
X110728D01*
Y16732D01*
X117618D01*
Y18086D01*
X118080Y18278D01*
X123297Y13061D01*
X124078Y12539D01*
X125000Y12355D01*
X125922Y12539D01*
X126703Y13061D01*
X127225Y13842D01*
X127409Y14764D01*
X127225Y15686D01*
X126703Y16467D01*
X115876Y27294D01*
X115876Y27294D01*
X108002Y35168D01*
X107221Y35690D01*
X106299Y35873D01*
X41339D01*
X40417Y35690D01*
X39636Y35168D01*
X36313Y31845D01*
X35771Y32010D01*
X35690Y32418D01*
X35168Y33199D01*
X31004Y37363D01*
Y40354D01*
D02*
G37*
G36*
X199114Y14665D02*
X196457D01*
Y11516D01*
X199114D01*
Y14665D01*
D02*
G37*
G36*
X97736Y14075D02*
X93155D01*
X93247Y13376D01*
X93783Y12083D01*
X94634Y10973D01*
X95745Y10121D01*
X97038Y9586D01*
X97736Y9494D01*
Y14075D01*
D02*
G37*
G36*
X103695D02*
X99114D01*
Y9494D01*
X99813Y9586D01*
X101106Y10121D01*
X102216Y10973D01*
X103068Y12083D01*
X103603Y13376D01*
X103695Y14075D01*
D02*
G37*
G36*
X141142Y8563D02*
X136909D01*
Y4134D01*
X141142D01*
Y8563D01*
D02*
G37*
G36*
X146850D02*
X142717D01*
Y4134D01*
X146850D01*
Y8563D01*
D02*
G37*
G36*
X135531D02*
X131299D01*
Y4134D01*
X135531D01*
Y8563D01*
D02*
G37*
G36*
X176476Y4232D02*
X173327D01*
Y1575D01*
X176476D01*
Y4232D01*
D02*
G37*
G36*
X181004D02*
X177854D01*
Y1575D01*
X181004D01*
Y4232D01*
D02*
G37*
G36*
X117618Y14764D02*
X110728D01*
Y8858D01*
X111765D01*
Y7874D01*
X111948Y6952D01*
X112470Y6171D01*
X113251Y5649D01*
X114173Y5466D01*
X115095Y5649D01*
X115876Y6171D01*
X116398Y6952D01*
X116582Y7874D01*
Y8858D01*
X117618D01*
Y14764D01*
D02*
G37*
G36*
X176476Y8268D02*
X173327D01*
Y5610D01*
X176476D01*
Y8268D01*
D02*
G37*
G36*
X172638Y8563D02*
X168405D01*
Y4134D01*
X172638D01*
Y8563D01*
D02*
G37*
G36*
X161221D02*
X157087D01*
Y4134D01*
X161221D01*
Y8563D01*
D02*
G37*
G36*
X167028D02*
X162795D01*
Y4134D01*
X167028D01*
Y8563D01*
D02*
G37*
G36*
X118110Y74311D02*
X112205D01*
Y67421D01*
X118110D01*
Y68458D01*
X119081D01*
X149872Y37667D01*
X150653Y37145D01*
X151575Y36962D01*
X152497Y37145D01*
X153278Y37667D01*
X153800Y38448D01*
X153983Y39370D01*
X153800Y40292D01*
X153278Y41073D01*
X121782Y72569D01*
X121000Y73091D01*
X120079Y73275D01*
X118110D01*
Y74311D01*
D02*
G37*
G36*
X256201Y43813D02*
X255502Y43722D01*
X254209Y43186D01*
X253099Y42334D01*
X252247Y41224D01*
X251712Y39931D01*
X251620Y39232D01*
X256201D01*
Y43813D01*
D02*
G37*
G36*
X222441Y92960D02*
X221519Y92776D01*
X220738Y92254D01*
X220216Y91473D01*
X220033Y90551D01*
X220216Y89630D01*
X220229Y89609D01*
Y55905D01*
X219291D01*
Y46850D01*
X219363D01*
Y33465D01*
X216850D01*
Y30449D01*
X216350Y30349D01*
X216070Y31025D01*
X215282Y32053D01*
X214253Y32842D01*
X214180Y32872D01*
Y39213D01*
X213997Y40134D01*
X213475Y40916D01*
X212693Y41438D01*
X211772Y41621D01*
X210850Y41438D01*
X210069Y40916D01*
X209546Y40134D01*
X209363Y39213D01*
Y32872D01*
X209290Y32842D01*
X208262Y32053D01*
X207473Y31025D01*
X207255Y30500D01*
X206714D01*
X206414Y31224D01*
X205562Y32334D01*
X204452Y33186D01*
X203159Y33722D01*
X202461Y33813D01*
Y28543D01*
X201083D01*
Y33813D01*
X200384Y33722D01*
X199091Y33186D01*
X197981Y32334D01*
X197129Y31224D01*
X196829Y30500D01*
X196288D01*
X196070Y31025D01*
X195282Y32053D01*
X194254Y32842D01*
X194180Y32872D01*
Y39213D01*
X193997Y40134D01*
X193475Y40916D01*
X192693Y41438D01*
X191772Y41621D01*
X190850Y41438D01*
X190069Y40916D01*
X189547Y40134D01*
X189363Y39213D01*
Y32872D01*
X189290Y32842D01*
X188262Y32053D01*
X187473Y31025D01*
X187028Y29952D01*
X187028Y29952D01*
X186516D01*
X186515Y29952D01*
X186070Y31025D01*
X185282Y32053D01*
X184254Y32842D01*
X184180Y32872D01*
Y39055D01*
X183997Y39977D01*
X183475Y40758D01*
X182693Y41280D01*
X181772Y41464D01*
X180850Y41280D01*
X180069Y40758D01*
X179546Y39977D01*
X179363Y39055D01*
Y32872D01*
X179290Y32842D01*
X178262Y32053D01*
X177473Y31025D01*
X176977Y29828D01*
X176808Y28543D01*
X176977Y27259D01*
X177473Y26061D01*
X178262Y25033D01*
X179290Y24245D01*
X179363Y24214D01*
Y21509D01*
X178989Y21395D01*
X178863Y21393D01*
X176900Y23357D01*
X176119Y23879D01*
X175197Y24062D01*
X174275Y23879D01*
X173494Y23357D01*
X172972Y22575D01*
X172788Y21654D01*
X172972Y20732D01*
X173494Y19951D01*
X174757Y18687D01*
Y15748D01*
X173721D01*
Y9843D01*
X180610D01*
Y13165D01*
X181072Y13356D01*
X185305Y9124D01*
X186086Y8602D01*
X187008Y8418D01*
X188976D01*
Y7382D01*
X194882D01*
Y14272D01*
X188976D01*
Y13235D01*
X188005D01*
X184180Y17061D01*
Y24214D01*
X184254Y24245D01*
X185282Y25033D01*
X186070Y26061D01*
X186515Y27135D01*
X186516Y27135D01*
X187028D01*
X187028Y27135D01*
X187473Y26061D01*
X188262Y25033D01*
X189290Y24245D01*
X189521Y24149D01*
Y23130D01*
X188976D01*
Y16240D01*
X194882D01*
Y23130D01*
X194338D01*
Y24309D01*
X195282Y25033D01*
X196070Y26061D01*
X196288Y26587D01*
X196829D01*
X197129Y25863D01*
X197981Y24753D01*
X199091Y23901D01*
X199745Y23630D01*
X199645Y23130D01*
X196850D01*
Y16240D01*
X202756D01*
Y17277D01*
X210505D01*
Y17047D01*
X210688Y16126D01*
X211210Y15344D01*
X211992Y14822D01*
X212913Y14639D01*
X213835Y14822D01*
X214616Y15344D01*
X215139Y16126D01*
X215322Y17047D01*
Y18687D01*
X220256Y23622D01*
X226693D01*
Y33465D01*
X224180D01*
Y46850D01*
X225984D01*
Y55905D01*
X225046D01*
Y90354D01*
X224863Y91276D01*
X224341Y92057D01*
X224223Y92136D01*
X224144Y92254D01*
X223363Y92776D01*
X222441Y92960D01*
D02*
G37*
G36*
X210433Y155020D02*
X204528D01*
Y148130D01*
X205473D01*
Y144882D01*
X205601Y144239D01*
X205321Y143739D01*
X201772D01*
X201004Y143587D01*
X200352Y143151D01*
X199917Y142500D01*
X199765Y141732D01*
X199917Y140964D01*
X200352Y140313D01*
X201004Y139878D01*
X201772Y139725D01*
X206454D01*
X207222Y139878D01*
X207873Y140313D01*
X208126Y140691D01*
X208743Y140781D01*
X227992Y121532D01*
Y120749D01*
X227715Y120472D01*
X227280Y119821D01*
X227127Y119053D01*
Y70472D01*
X227280Y69704D01*
X227715Y69053D01*
X240362Y56406D01*
X240155Y55905D01*
X235039D01*
Y46850D01*
X235977D01*
Y40157D01*
X236161Y39236D01*
X236683Y38454D01*
X248297Y26840D01*
X249078Y26318D01*
X250000Y26135D01*
X252561D01*
X252591Y26061D01*
X253380Y25033D01*
X254408Y24245D01*
X255084Y23965D01*
X254984Y23465D01*
X251969D01*
Y21776D01*
X251507Y21585D01*
X232920Y40171D01*
Y46850D01*
X233858D01*
Y55905D01*
X227165D01*
Y46850D01*
X228103D01*
Y39173D01*
X228287Y38252D01*
X228809Y37470D01*
X249281Y16998D01*
X250063Y16476D01*
X250984Y16292D01*
X251969D01*
Y13622D01*
X261811D01*
Y23465D01*
X258795D01*
X258696Y23965D01*
X259372Y24245D01*
X260400Y25033D01*
X261189Y26061D01*
X261684Y27259D01*
X261854Y28543D01*
X261684Y29828D01*
X261189Y31025D01*
X260400Y32053D01*
X259372Y32842D01*
X258846Y33060D01*
Y33601D01*
X259570Y33901D01*
X260680Y34753D01*
X261532Y35863D01*
X262068Y37156D01*
X262160Y37854D01*
X256890D01*
X251620D01*
X251712Y37156D01*
X252247Y35863D01*
X253099Y34753D01*
X254209Y33901D01*
X254933Y33601D01*
Y33060D01*
X254408Y32842D01*
X253380Y32053D01*
X252591Y31025D01*
X252561Y30952D01*
X250998D01*
X240794Y41155D01*
Y46850D01*
X241732D01*
Y52414D01*
X242194Y52605D01*
X242913Y51886D01*
Y48524D01*
X244587Y46850D01*
X247933D01*
X249606Y48524D01*
Y54232D01*
X248850Y54988D01*
X249041Y55505D01*
X249298Y55525D01*
X250098Y54724D01*
X255807D01*
X257480Y56398D01*
Y59744D01*
X255807Y61417D01*
X250252D01*
X249971Y61734D01*
X250130Y62205D01*
X252264D01*
Y65256D01*
X248031D01*
Y62205D01*
X248031Y62205D01*
X247585Y62084D01*
X247503Y62068D01*
X246722Y61546D01*
X246200Y60764D01*
X246017Y59842D01*
Y58661D01*
X246200Y57740D01*
X246722Y56958D01*
X247275Y56406D01*
X247258Y56246D01*
X247105Y55905D01*
X244724D01*
Y56890D01*
X244571Y57658D01*
X244136Y58309D01*
X231141Y71304D01*
Y118221D01*
X231418Y118498D01*
X231853Y119149D01*
X232006Y119917D01*
Y122363D01*
X231853Y123132D01*
X231418Y123783D01*
X209487Y145713D01*
Y148130D01*
X210433D01*
Y155020D01*
D02*
G37*
G36*
X98425Y64416D02*
X94488D01*
X93567Y64233D01*
X92785Y63711D01*
X84632Y55558D01*
X10827D01*
X9905Y55375D01*
X9124Y54853D01*
X6171Y51900D01*
X5649Y51118D01*
X5466Y50197D01*
Y39370D01*
X5649Y38448D01*
X6171Y37667D01*
X8140Y35699D01*
X8921Y35176D01*
X9843Y34993D01*
X14272D01*
Y34449D01*
X15308D01*
Y28543D01*
X14272D01*
Y22638D01*
X21161D01*
Y23182D01*
X22146D01*
Y22638D01*
X29035D01*
Y28543D01*
X22146D01*
Y27999D01*
X21161D01*
Y28543D01*
X20125D01*
Y34449D01*
X21161D01*
Y40354D01*
X14272D01*
Y39810D01*
X10840D01*
X10283Y40368D01*
Y49199D01*
X11824Y50741D01*
X85630D01*
X86552Y50924D01*
X87333Y51447D01*
X95486Y59599D01*
X98425D01*
X99347Y59783D01*
X100128Y60305D01*
X100650Y61086D01*
X100834Y62008D01*
X100650Y62930D01*
X100128Y63711D01*
X99347Y64233D01*
X98425Y64416D01*
D02*
G37*
G36*
X184941Y55905D02*
X181595D01*
X179921Y54232D01*
Y48524D01*
X181595Y46850D01*
X184941D01*
X186614Y48524D01*
Y54232D01*
X184941Y55905D01*
D02*
G37*
G36*
X194488D02*
X187795D01*
Y46850D01*
X194488D01*
Y55905D01*
D02*
G37*
G36*
X210630Y50689D02*
X207579D01*
Y46457D01*
X210630D01*
Y50689D01*
D02*
G37*
G36*
X257579Y43813D02*
Y39232D01*
X262160D01*
X262068Y39931D01*
X261532Y41224D01*
X260680Y42334D01*
X259570Y43186D01*
X258277Y43722D01*
X257579Y43813D01*
D02*
G37*
G36*
X206201Y50689D02*
X203150D01*
Y46457D01*
X206201D01*
Y50689D01*
D02*
G37*
G36*
X83957Y20034D02*
X83258Y19942D01*
X81965Y19406D01*
X80855Y18554D01*
X80003Y17444D01*
X79467Y16151D01*
X79376Y15453D01*
X83957D01*
Y20034D01*
D02*
G37*
G36*
X85335D02*
Y15453D01*
X89916D01*
X89824Y16151D01*
X89288Y17444D01*
X88436Y18554D01*
X87326Y19406D01*
X86033Y19942D01*
X85335Y20034D01*
D02*
G37*
G36*
X37303Y17028D02*
X34154D01*
Y14370D01*
X37303D01*
Y17028D01*
D02*
G37*
G36*
X29626Y21063D02*
X29126Y21063D01*
X26280D01*
Y17717D01*
Y14370D01*
X29126D01*
X29429Y14370D01*
X29929Y14370D01*
X32776D01*
Y17717D01*
Y21063D01*
X29929D01*
X29626Y21063D01*
D02*
G37*
G36*
X24902Y17028D02*
X21752D01*
Y14370D01*
X24902D01*
Y17028D01*
D02*
G37*
G36*
X34154Y21063D02*
Y18406D01*
X37303D01*
Y21063D01*
X34154D01*
D02*
G37*
G36*
X139075Y23819D02*
X134252D01*
Y19980D01*
X139075D01*
Y23819D01*
D02*
G37*
G36*
X24902Y21063D02*
X21752D01*
Y18406D01*
X24902D01*
Y21063D01*
D02*
G37*
G36*
X97736Y20034D02*
X97038Y19942D01*
X95745Y19406D01*
X94634Y18554D01*
X93783Y17444D01*
X93247Y16151D01*
X93155Y15453D01*
X97736D01*
Y20034D01*
D02*
G37*
G36*
X99114D02*
Y15453D01*
X103695D01*
X103603Y16151D01*
X103068Y17444D01*
X102216Y18554D01*
X101106Y19406D01*
X99813Y19942D01*
X99114Y20034D01*
D02*
G37*
G36*
X257874Y148425D02*
X253642D01*
Y145374D01*
X257874D01*
Y148425D01*
D02*
G37*
G36*
X168307Y150591D02*
X165157D01*
Y147933D01*
X168307D01*
Y150591D01*
D02*
G37*
G36*
X252264Y148425D02*
X248031D01*
Y145374D01*
X252264D01*
Y148425D01*
D02*
G37*
G36*
X175886D02*
X171653D01*
Y145374D01*
X175886D01*
Y148425D01*
D02*
G37*
G36*
X181496D02*
X177264D01*
Y145374D01*
X181496D01*
Y148425D01*
D02*
G37*
G36*
X125295Y158760D02*
X122146D01*
Y156102D01*
X125295D01*
Y158760D01*
D02*
G37*
G36*
X130020Y162795D02*
X129520Y162795D01*
X126673D01*
Y159449D01*
Y156102D01*
X129520D01*
X129823Y156102D01*
X130323Y156102D01*
X133169D01*
Y159449D01*
Y162795D01*
X130323D01*
X130020Y162795D01*
D02*
G37*
G36*
X250394Y160728D02*
X247638D01*
Y155709D01*
X250394D01*
Y160728D01*
D02*
G37*
G36*
X129429Y154527D02*
X122539D01*
Y153180D01*
X121555D01*
Y154527D01*
X114665D01*
Y148622D01*
X121555D01*
Y149969D01*
X122539D01*
Y148622D01*
X124379D01*
Y140429D01*
X123292Y139342D01*
X119896D01*
X119246Y139776D01*
X118402Y139944D01*
X114473D01*
X113628Y139776D01*
X112911Y139297D01*
X112433Y138581D01*
X112265Y137736D01*
X112433Y136891D01*
X112911Y136175D01*
X113628Y135696D01*
X114473Y135528D01*
X118402D01*
X119246Y135696D01*
X119896Y136131D01*
X123957D01*
X123957Y136131D01*
X124571Y136253D01*
X125092Y136601D01*
X127120Y138628D01*
X127120Y138628D01*
X127468Y139149D01*
X127590Y139764D01*
Y148622D01*
X129429D01*
Y154527D01*
D02*
G37*
G36*
X234646Y160728D02*
X231890D01*
Y155709D01*
X234646D01*
Y160728D01*
D02*
G37*
G36*
X78839Y142675D02*
X78037Y142570D01*
X76649Y141994D01*
X75456Y141079D01*
X74541Y139887D01*
X73966Y138498D01*
X73860Y137697D01*
X78839D01*
Y142675D01*
D02*
G37*
G36*
X80216Y142675D02*
Y137697D01*
X85195D01*
X85089Y138498D01*
X84514Y139887D01*
X83599Y141079D01*
X82407Y141994D01*
X81018Y142570D01*
X80216Y142675D01*
D02*
G37*
G36*
X162795Y140650D02*
X160138D01*
Y137500D01*
X162795D01*
Y140650D01*
D02*
G37*
G36*
X170276Y140256D02*
X164370D01*
Y133366D01*
X170276D01*
Y134403D01*
X172047D01*
Y133465D01*
X181102D01*
Y134403D01*
X184055D01*
X184977Y134586D01*
X185758Y135108D01*
X186280Y135889D01*
X186464Y136811D01*
X186280Y137733D01*
X185758Y138514D01*
X184977Y139036D01*
X184055Y139219D01*
X181102D01*
Y140157D01*
X172047D01*
Y139219D01*
X170276D01*
Y140256D01*
D02*
G37*
G36*
X158760Y140650D02*
X156102D01*
Y137500D01*
X158760D01*
Y140650D01*
D02*
G37*
G36*
X142024Y145317D02*
X140748D01*
Y143425D01*
X144508D01*
X144259Y144027D01*
X143849Y144561D01*
X143314Y144972D01*
X142692Y145229D01*
X142024Y145317D01*
D02*
G37*
G36*
X168307Y146555D02*
X165157D01*
Y143898D01*
X168307D01*
Y146555D01*
D02*
G37*
G36*
X181496Y143996D02*
X177264D01*
Y140945D01*
X181496D01*
Y143996D01*
D02*
G37*
G36*
X110236Y154553D02*
X102362D01*
X102169Y154527D01*
X98917D01*
Y148622D01*
X102169D01*
X102362Y148597D01*
X107509D01*
X107919Y148097D01*
X107828Y147638D01*
X108011Y146716D01*
X108533Y145935D01*
X109252Y145455D01*
X109293Y145207D01*
X109262Y144913D01*
X108553Y144439D01*
X108031Y143658D01*
X107847Y142736D01*
X108031Y141814D01*
X108553Y141033D01*
X109334Y140511D01*
X110256Y140328D01*
X111178Y140511D01*
X111504Y140729D01*
X113579D01*
X113628Y140697D01*
X114473Y140528D01*
X118402D01*
X119246Y140697D01*
X119963Y141175D01*
X120441Y141891D01*
X120609Y142736D01*
X120441Y143581D01*
X119963Y144297D01*
X119246Y144776D01*
X118402Y144944D01*
X114473D01*
X113628Y144776D01*
X113579Y144743D01*
X111504D01*
X111241Y144919D01*
X111199Y145167D01*
X111230Y145461D01*
X111939Y145935D01*
X112461Y146716D01*
X112645Y147638D01*
X112548Y148122D01*
X112959Y148622D01*
X113681D01*
Y154527D01*
X110430D01*
X110236Y154553D01*
D02*
G37*
G36*
X175886Y143996D02*
X171653D01*
Y140945D01*
X175886D01*
Y143996D01*
D02*
G37*
G36*
X137894Y162795D02*
X137394Y162795D01*
X134547D01*
Y159449D01*
Y156102D01*
X137394D01*
X137697Y156102D01*
X138197Y156102D01*
X141043D01*
Y159449D01*
Y162795D01*
X138197D01*
X137894Y162795D01*
D02*
G37*
G36*
X240315Y218866D02*
X238876Y218677D01*
X237535Y218122D01*
X236384Y217238D01*
X235500Y216087D01*
X234945Y214746D01*
X234756Y213307D01*
X234945Y211868D01*
X235500Y210527D01*
X236384Y209376D01*
X237535Y208492D01*
X238308Y208172D01*
Y205354D01*
X238461Y204586D01*
X238896Y203935D01*
X253248Y189583D01*
Y185531D01*
X259154D01*
Y193405D01*
X255102D01*
X242322Y206186D01*
Y208172D01*
X243095Y208492D01*
X244246Y209376D01*
X245129Y210527D01*
X245685Y211868D01*
X245874Y213307D01*
X245685Y214746D01*
X245129Y216087D01*
X244246Y217238D01*
X243095Y218122D01*
X241754Y218677D01*
X240315Y218866D01*
D02*
G37*
G36*
X238779Y167126D02*
X236024D01*
Y162106D01*
X238779D01*
Y167126D01*
D02*
G37*
G36*
X250394D02*
X247638D01*
Y162106D01*
X250394D01*
Y167126D01*
D02*
G37*
G36*
X234646D02*
X231890D01*
Y162106D01*
X234646D01*
Y167126D01*
D02*
G37*
G36*
X249606Y252362D02*
X246949D01*
Y249213D01*
X249606D01*
Y252362D01*
D02*
G37*
G36*
X253642D02*
X250984D01*
Y249213D01*
X253642D01*
Y252362D01*
D02*
G37*
G36*
Y247835D02*
X250295D01*
X246949D01*
Y244685D01*
X247323D01*
X247342Y244193D01*
X247342Y244185D01*
Y242755D01*
X232087D01*
X231318Y242602D01*
X230667Y242167D01*
X228991Y240491D01*
X228606Y240414D01*
X227824Y239892D01*
X227302Y239111D01*
X227119Y238189D01*
X227302Y237267D01*
X227824Y236486D01*
X228606Y235964D01*
X229528Y235781D01*
X230449Y235964D01*
X231231Y236486D01*
X231753Y237267D01*
X231829Y237652D01*
X232918Y238741D01*
X247342D01*
Y237303D01*
X253248D01*
Y244185D01*
X253248Y244193D01*
X253267Y244685D01*
X253642D01*
Y247835D01*
D02*
G37*
G36*
X214759Y232775D02*
X211122D01*
Y229139D01*
X211576Y229199D01*
X212641Y229640D01*
X213556Y230342D01*
X214258Y231256D01*
X214699Y232321D01*
X214759Y232775D01*
D02*
G37*
G36*
X261122Y251969D02*
X255217D01*
Y248717D01*
X255191Y248524D01*
Y240748D01*
Y236443D01*
X242764D01*
Y237449D01*
X234795D01*
Y229481D01*
X242764D01*
Y230487D01*
X257678D01*
X258449Y230589D01*
X259167Y230886D01*
X259784Y231359D01*
X260275Y231851D01*
X260749Y232468D01*
X261046Y233186D01*
X261147Y233957D01*
Y240748D01*
Y248524D01*
X261122Y248717D01*
Y251969D01*
D02*
G37*
G36*
X223917Y160531D02*
X222047D01*
Y157283D01*
X223917D01*
Y160531D01*
D02*
G37*
G36*
X227165D02*
X225295D01*
Y157283D01*
X227165D01*
Y160531D01*
D02*
G37*
G36*
X171555Y158314D02*
X170633Y158131D01*
X169852Y157609D01*
X169529Y157125D01*
X167913D01*
Y158071D01*
X161024D01*
Y157125D01*
X160335D01*
Y158071D01*
X153445D01*
Y152165D01*
X160335D01*
Y153111D01*
X161024D01*
Y152165D01*
X167913D01*
Y153111D01*
X170768D01*
X171536Y153264D01*
X172025Y153590D01*
X172477Y153680D01*
X173258Y154202D01*
X173780Y154984D01*
X173964Y155905D01*
X173780Y156827D01*
X173258Y157609D01*
X172477Y158131D01*
X171555Y158314D01*
D02*
G37*
G36*
X145571Y158760D02*
X142421D01*
Y156102D01*
X145571D01*
Y158760D01*
D02*
G37*
G36*
X105807Y162402D02*
X98917D01*
Y161255D01*
X96457D01*
X95765Y161118D01*
X95179Y160726D01*
X94195Y159742D01*
X93804Y159156D01*
X93666Y158465D01*
Y137795D01*
X93804Y137104D01*
X94195Y136518D01*
X99116Y131597D01*
X99702Y131205D01*
X100394Y131068D01*
X113072D01*
X113628Y130696D01*
X114473Y130528D01*
X118402D01*
X119246Y130696D01*
X119896Y131131D01*
X125846D01*
X125847Y131131D01*
X126461Y131253D01*
X126982Y131601D01*
X132041Y136660D01*
X132041Y136660D01*
X132389Y137181D01*
X132511Y137795D01*
X132511Y137795D01*
Y145004D01*
X134994Y147487D01*
X134994Y147487D01*
X135342Y148008D01*
X135464Y148622D01*
X136617D01*
X136824Y148122D01*
X134203Y145501D01*
X133855Y144980D01*
X133733Y144366D01*
X133733Y144366D01*
Y135020D01*
X128885Y130171D01*
X128875Y130178D01*
X127953Y130361D01*
X127031Y130178D01*
X126250Y129656D01*
X126040Y129342D01*
X119896D01*
X119246Y129776D01*
X118402Y129944D01*
X114473D01*
X113628Y129776D01*
X112911Y129297D01*
X112433Y128581D01*
X112265Y127736D01*
X112433Y126891D01*
X112911Y126175D01*
X113628Y125697D01*
X114473Y125528D01*
X118402D01*
X119246Y125697D01*
X119896Y126131D01*
X126428D01*
X127031Y125728D01*
X127953Y125544D01*
X128875Y125728D01*
X129656Y126250D01*
X129960Y126705D01*
X135529Y132274D01*
X136008Y132129D01*
X136055Y131891D01*
X136533Y131175D01*
X137250Y130696D01*
X138095Y130528D01*
X142024D01*
X142868Y130696D01*
X143585Y131175D01*
X144063Y131891D01*
X144231Y132736D01*
X144063Y133581D01*
X143585Y134297D01*
X142868Y134776D01*
X142024Y134944D01*
X138095D01*
X137711Y134868D01*
X137242Y135235D01*
Y135238D01*
X137711Y135605D01*
X138095Y135528D01*
X142024D01*
X142868Y135696D01*
X142917Y135729D01*
X145200D01*
X145276Y135630D01*
X145893Y135157D01*
X146611Y134860D01*
X147382Y134758D01*
X148153Y134860D01*
X148871Y135157D01*
X149488Y135630D01*
X149961Y136247D01*
X150259Y136965D01*
X150360Y137736D01*
X150344Y137860D01*
X156775Y144291D01*
X160130D01*
X160335Y144291D01*
X160630Y143914D01*
Y143898D01*
X163779D01*
Y147244D01*
Y150591D01*
X160630D01*
Y150575D01*
X160335Y150197D01*
X160130Y150197D01*
X153445D01*
Y146638D01*
X147505Y140698D01*
X147382Y140715D01*
X146611Y140613D01*
X145893Y140315D01*
X145276Y139842D01*
X145200Y139743D01*
X142917D01*
X142868Y139776D01*
X142842Y139781D01*
X142818Y140296D01*
X143314Y140501D01*
X143849Y140911D01*
X144259Y141446D01*
X144508Y142047D01*
X140059D01*
Y142736D01*
X139370D01*
Y145317D01*
X139214D01*
X139023Y145779D01*
X141866Y148622D01*
X145177D01*
Y154527D01*
X138287D01*
Y149585D01*
X137803Y149101D01*
X137303Y149308D01*
Y154527D01*
X130413D01*
Y148622D01*
X130934D01*
X131126Y148160D01*
X129770Y146805D01*
X129422Y146284D01*
X129300Y145669D01*
X129300Y145669D01*
Y138460D01*
X125181Y134342D01*
X119896D01*
X119246Y134776D01*
X118402Y134944D01*
X114473D01*
X113628Y134776D01*
X113485Y134680D01*
X101142D01*
X97279Y138543D01*
Y157642D01*
X98917D01*
Y156496D01*
X105807D01*
Y162402D01*
D02*
G37*
G36*
X227165Y165157D02*
X225295D01*
Y161909D01*
X227165D01*
Y165157D01*
D02*
G37*
G36*
X246260Y167126D02*
X243504D01*
Y162106D01*
X246260D01*
Y167126D01*
D02*
G37*
G36*
X223917Y165157D02*
X222047D01*
Y161909D01*
X223917D01*
Y165157D01*
D02*
G37*
G36*
X125295Y162795D02*
X122146D01*
Y160138D01*
X125295D01*
Y162795D01*
D02*
G37*
G36*
X142421D02*
Y160138D01*
X145571D01*
Y162795D01*
X142421D01*
D02*
G37*
G36*
X162795Y136122D02*
X160138D01*
Y132972D01*
X162795D01*
Y136122D01*
D02*
G37*
G36*
X110236Y107776D02*
X104331D01*
Y106739D01*
X102362D01*
Y107776D01*
X96457D01*
Y99902D01*
X102362D01*
Y101922D01*
X104331D01*
Y100886D01*
X104875D01*
Y96949D01*
X104331D01*
Y90059D01*
X104875D01*
Y86122D01*
X104331D01*
Y79232D01*
X104875D01*
Y74311D01*
X104331D01*
Y67421D01*
X110236D01*
Y74311D01*
X109692D01*
Y79232D01*
X110236D01*
Y86122D01*
X109692D01*
Y90059D01*
X110236D01*
Y96949D01*
X109692D01*
Y100886D01*
X110236D01*
Y107776D01*
D02*
G37*
G36*
X202756Y116582D02*
X187992D01*
X187070Y116398D01*
X186289Y115876D01*
X183336Y112924D01*
X182814Y112142D01*
X182631Y111221D01*
X182814Y110299D01*
X183336Y109517D01*
X184118Y108995D01*
X185039Y108812D01*
X185961Y108995D01*
X186742Y109517D01*
X188990Y111765D01*
X202756D01*
X203678Y111948D01*
X204459Y112470D01*
X204981Y113251D01*
X205164Y114173D01*
X204981Y115095D01*
X204459Y115876D01*
X203678Y116398D01*
X202756Y116582D01*
D02*
G37*
G36*
X257874Y109055D02*
X253642D01*
Y106004D01*
X257874D01*
Y109055D01*
D02*
G37*
G36*
X181496D02*
X177264D01*
Y106004D01*
X181496D01*
Y109055D01*
D02*
G37*
G36*
X252264D02*
X248031D01*
Y106004D01*
X252264D01*
Y109055D01*
D02*
G37*
G36*
X257480Y116535D02*
X248425D01*
Y109843D01*
X257480D01*
Y116535D01*
D02*
G37*
G36*
X106595Y117028D02*
X103937D01*
Y113878D01*
X106595D01*
Y117028D01*
D02*
G37*
G36*
X170276Y117618D02*
X164370D01*
Y110728D01*
X170276D01*
Y111765D01*
X172047D01*
Y109843D01*
X181102D01*
Y116535D01*
X175823D01*
X175591Y116582D01*
X170276D01*
Y117618D01*
D02*
G37*
G36*
X106595Y112500D02*
X103937D01*
Y109350D01*
X106595D01*
Y112500D01*
D02*
G37*
G36*
X110630D02*
X107972D01*
Y109350D01*
X110630D01*
Y112500D01*
D02*
G37*
G36*
X118504Y97342D02*
X115846D01*
Y94193D01*
X118504D01*
Y97342D01*
D02*
G37*
G36*
X102362Y96949D02*
X96457D01*
Y94928D01*
X92520D01*
Y96457D01*
X86614D01*
Y88583D01*
X87159D01*
Y87120D01*
X80747Y80709D01*
X77264D01*
Y74803D01*
X79194D01*
Y70866D01*
X78740D01*
Y66535D01*
Y63779D01*
X78347D01*
Y61910D01*
X81890D01*
X85433D01*
Y62954D01*
X86350D01*
X86677Y62735D01*
X87598Y62552D01*
X88520Y62735D01*
X89302Y63258D01*
X89824Y64039D01*
X90007Y64961D01*
X89824Y65882D01*
X89302Y66664D01*
X88520Y67186D01*
X87598Y67369D01*
X86677Y67186D01*
X86350Y66968D01*
X85039D01*
Y70866D01*
X83208D01*
Y74803D01*
X85138D01*
Y78287D01*
X91270Y84419D01*
X91792Y85200D01*
X91975Y86122D01*
Y88583D01*
X92520D01*
Y90111D01*
X96457D01*
Y89075D01*
X102362D01*
Y96949D01*
D02*
G37*
G36*
X114469Y97342D02*
X111811D01*
Y94193D01*
X114469D01*
Y97342D01*
D02*
G37*
G36*
X164370Y108708D02*
X159449D01*
X158527Y108524D01*
X157746Y108002D01*
X157224Y107221D01*
X157040Y106299D01*
Y100886D01*
X156496D01*
Y93996D01*
X162402D01*
Y100886D01*
X161857D01*
Y103891D01*
X164370D01*
X165292Y104074D01*
X166073Y104596D01*
X166595Y105377D01*
X166779Y106299D01*
X166595Y107221D01*
X166073Y108002D01*
X165292Y108524D01*
X164370Y108708D01*
D02*
G37*
G36*
X170276Y100886D02*
X164370D01*
Y93996D01*
X170276D01*
Y95033D01*
X172047D01*
Y94095D01*
X181102D01*
Y95033D01*
X184055D01*
X184977Y95216D01*
X185758Y95738D01*
X186280Y96519D01*
X186464Y97441D01*
X186280Y98363D01*
X185758Y99144D01*
X184977Y99666D01*
X184055Y99849D01*
X181102D01*
Y100787D01*
X172047D01*
Y99849D01*
X170276D01*
Y100886D01*
D02*
G37*
G36*
X181496Y104626D02*
X177264D01*
Y101575D01*
X181496D01*
Y104626D01*
D02*
G37*
G36*
X175886Y109055D02*
X171653D01*
Y106004D01*
X175886D01*
Y109055D01*
D02*
G37*
G36*
Y104626D02*
X171653D01*
Y101575D01*
X175886D01*
Y104626D01*
D02*
G37*
G36*
X257874Y104626D02*
X252953D01*
X248031D01*
Y101681D01*
X248031Y101575D01*
Y101181D01*
X248031Y101075D01*
Y98130D01*
X252953D01*
X257874D01*
Y101075D01*
X257874Y101181D01*
Y101575D01*
X257874Y101681D01*
Y104626D01*
D02*
G37*
G36*
X74803Y107913D02*
X73621Y107757D01*
X72520Y107301D01*
X71574Y106576D01*
X70848Y105630D01*
X70392Y104528D01*
X70236Y103347D01*
X70392Y102164D01*
X70848Y101063D01*
X71574Y100117D01*
X72520Y99392D01*
X73621Y98935D01*
X74073Y98876D01*
Y98372D01*
X73518Y98299D01*
X72321Y97803D01*
X71293Y97014D01*
X70504Y95986D01*
X70009Y94789D01*
X69930Y94193D01*
X74803D01*
X79676D01*
X79598Y94789D01*
X79102Y95986D01*
X78313Y97014D01*
X77285Y97803D01*
X76088Y98299D01*
X75533Y98372D01*
Y98876D01*
X75985Y98935D01*
X77087Y99392D01*
X78032Y100117D01*
X78662Y100938D01*
X86614D01*
Y99410D01*
X92520D01*
Y107283D01*
X86614D01*
Y105755D01*
X78662D01*
X78032Y106576D01*
X77087Y107301D01*
X75985Y107757D01*
X74803Y107913D01*
D02*
G37*
G36*
X257874Y128248D02*
X253642D01*
Y125197D01*
X257874D01*
Y128248D01*
D02*
G37*
G36*
X142024Y129944D02*
X138095D01*
X137250Y129776D01*
X136533Y129297D01*
X136055Y128581D01*
X135887Y127736D01*
X136055Y126891D01*
X136533Y126175D01*
X137250Y125697D01*
X138095Y125528D01*
X142024D01*
X142868Y125697D01*
X143585Y126175D01*
X144063Y126891D01*
X144231Y127736D01*
X144063Y128581D01*
X143585Y129297D01*
X142868Y129776D01*
X142024Y129944D01*
D02*
G37*
G36*
X252264Y128248D02*
X248031D01*
Y125197D01*
X252264D01*
Y128248D01*
D02*
G37*
G36*
X154331Y125394D02*
X151181D01*
Y122736D01*
X154331D01*
Y125394D01*
D02*
G37*
G36*
X257480Y124409D02*
X248425D01*
Y123070D01*
X247311D01*
X246985Y123288D01*
X246063Y123471D01*
X245141Y123288D01*
X244360Y122766D01*
X243838Y121985D01*
X243654Y121063D01*
X243838Y120141D01*
X244360Y119360D01*
X245141Y118838D01*
X246063Y118655D01*
X246985Y118838D01*
X247311Y119056D01*
X248425D01*
Y117717D01*
X257480D01*
Y124409D01*
D02*
G37*
G36*
X78839Y136319D02*
X73860D01*
X73966Y135518D01*
X74541Y134129D01*
X75456Y132936D01*
X76649Y132021D01*
X78037Y131446D01*
X78839Y131341D01*
Y136319D01*
D02*
G37*
G36*
X158760Y136122D02*
X156102D01*
Y132972D01*
X158760D01*
Y136122D01*
D02*
G37*
G36*
X85195Y136319D02*
X80216D01*
Y131341D01*
X81018Y131446D01*
X82407Y132021D01*
X83599Y132936D01*
X84514Y134129D01*
X85089Y135518D01*
X85195Y136319D01*
D02*
G37*
G36*
X181102Y132283D02*
X172047D01*
Y125591D01*
X181102D01*
Y126529D01*
X184055D01*
X184977Y126712D01*
X185758Y127234D01*
X186280Y128015D01*
X186464Y128937D01*
X186280Y129859D01*
X185758Y130640D01*
X184977Y131162D01*
X184055Y131345D01*
X181102D01*
Y132283D01*
D02*
G37*
G36*
X238779Y160728D02*
X236024D01*
Y155709D01*
X237162D01*
X237384Y155260D01*
X237101Y154892D01*
X236635Y153767D01*
X236476Y152559D01*
Y136811D01*
X236635Y135603D01*
X237101Y134478D01*
X237842Y133512D01*
X238809Y132770D01*
X239934Y132304D01*
X241142Y132145D01*
X248031D01*
Y129626D01*
X252953D01*
X257874D01*
Y132677D01*
X255986D01*
X255816Y133177D01*
X256191Y133465D01*
X257480D01*
Y135760D01*
X257619Y136811D01*
X257480Y137862D01*
Y140157D01*
X256191D01*
X255816Y140445D01*
X255986Y140945D01*
X257874D01*
Y143996D01*
X252953D01*
X248031D01*
Y141477D01*
X245808D01*
Y152559D01*
X245649Y153767D01*
X245182Y154892D01*
X244900Y155260D01*
X245121Y155709D01*
X246260D01*
Y160728D01*
X243504D01*
Y158465D01*
X238779D01*
Y160728D01*
D02*
G37*
G36*
X162402Y117618D02*
X156496D01*
Y116582D01*
X153937D01*
Y117126D01*
X147047D01*
Y111221D01*
X153937D01*
Y111765D01*
X156496D01*
Y110728D01*
X162402D01*
Y117618D01*
D02*
G37*
G36*
X181102Y124409D02*
X172047D01*
Y123471D01*
X167323D01*
X166401Y123288D01*
X165620Y122766D01*
X165098Y121985D01*
X164914Y121063D01*
X165098Y120141D01*
X165620Y119360D01*
X166401Y118838D01*
X167323Y118655D01*
X172047D01*
Y117717D01*
X181102D01*
Y124409D01*
D02*
G37*
G36*
X30906Y119390D02*
X28248D01*
Y116240D01*
X30906D01*
Y119390D01*
D02*
G37*
G36*
X110630Y117028D02*
X107972D01*
Y113878D01*
X110630D01*
Y117028D01*
D02*
G37*
G36*
X26870Y119390D02*
X24213D01*
Y116240D01*
X26870D01*
Y119390D01*
D02*
G37*
G36*
X30906Y123917D02*
X28248D01*
Y120768D01*
X30906D01*
Y123917D01*
D02*
G37*
G36*
X149803Y125394D02*
X146653D01*
Y122736D01*
X149803D01*
Y125394D01*
D02*
G37*
G36*
X26870Y123917D02*
X24213D01*
Y120768D01*
X26870D01*
Y123917D01*
D02*
G37*
G36*
X149803Y121358D02*
X146653D01*
Y118701D01*
X149803D01*
Y121358D01*
D02*
G37*
G36*
X154331D02*
X151181D01*
Y118701D01*
X154331D01*
Y121358D01*
D02*
G37*
%LPD*%
D10*
X107283Y56102D02*
D03*
X115157D02*
D03*
X167323Y114173D02*
D03*
X159449D02*
D03*
X199803Y19685D02*
D03*
X191929D02*
D03*
X159449Y97441D02*
D03*
X167323D02*
D03*
Y89567D02*
D03*
X159449D02*
D03*
X199803Y10827D02*
D03*
X191929D02*
D03*
X107283Y104331D02*
D03*
X115157D02*
D03*
X258169Y248524D02*
D03*
X250295D02*
D03*
X258169Y240748D02*
D03*
X250295D02*
D03*
X167323Y81693D02*
D03*
X159449D02*
D03*
X159449Y136811D02*
D03*
X167323D02*
D03*
X107283Y70866D02*
D03*
X115157D02*
D03*
Y82677D02*
D03*
X107283D02*
D03*
X115157Y93504D02*
D03*
X107283D02*
D03*
Y113189D02*
D03*
X115157D02*
D03*
X27559Y120079D02*
D03*
X19685D02*
D03*
X207480Y151575D02*
D03*
X215354D02*
D03*
D11*
X147382Y137736D02*
D03*
D12*
X150492Y122047D02*
D03*
Y114173D02*
D03*
X177165Y12795D02*
D03*
Y4921D02*
D03*
X209646Y160433D02*
D03*
Y168307D02*
D03*
X27559Y37402D02*
D03*
Y45276D02*
D03*
X114173Y11811D02*
D03*
Y19685D02*
D03*
X17717Y17717D02*
D03*
Y25591D02*
D03*
Y37402D02*
D03*
Y45276D02*
D03*
X102362Y151575D02*
D03*
Y159449D02*
D03*
X110236D02*
D03*
Y151575D02*
D03*
X118110Y159449D02*
D03*
Y151575D02*
D03*
X164469Y147244D02*
D03*
Y155118D02*
D03*
X156890D02*
D03*
Y147244D02*
D03*
X33465Y17717D02*
D03*
Y25591D02*
D03*
X25591D02*
D03*
Y17717D02*
D03*
X141732Y159449D02*
D03*
Y151575D02*
D03*
X133858D02*
D03*
Y159449D02*
D03*
X125984D02*
D03*
Y151575D02*
D03*
X202756Y168307D02*
D03*
Y160433D02*
D03*
D13*
X99410Y93012D02*
D03*
Y103839D02*
D03*
X256201Y189469D02*
D03*
Y178642D02*
D03*
X89567Y92520D02*
D03*
Y103347D02*
D03*
D14*
X81201Y77756D02*
D03*
X70374D02*
D03*
D15*
X71653Y61221D02*
D03*
Y68701D02*
D03*
X81890D02*
D03*
Y64961D02*
D03*
Y61221D02*
D03*
X168504Y30709D02*
D03*
Y34449D02*
D03*
Y38189D02*
D03*
X158268D02*
D03*
Y34449D02*
D03*
Y30709D02*
D03*
D16*
X156398Y9252D02*
D03*
X147539D02*
D03*
D17*
X167717D02*
D03*
X136221D02*
D03*
D18*
X164173Y19291D02*
D03*
X139764D02*
D03*
D19*
X157087Y19685D02*
D03*
X154528D02*
D03*
X151969D02*
D03*
X149409D02*
D03*
X146850D02*
D03*
D20*
X217126Y161221D02*
D03*
X224606D02*
D03*
X220866Y169488D02*
D03*
D21*
X140059Y127736D02*
D03*
Y132736D02*
D03*
Y137736D02*
D03*
Y142736D02*
D03*
X116437Y127736D02*
D03*
Y132736D02*
D03*
Y137736D02*
D03*
Y142736D02*
D03*
D22*
X246949Y161417D02*
D03*
X235335D02*
D03*
D23*
X241142Y155413D02*
D03*
D24*
X253937Y279528D02*
D03*
Y291339D02*
D03*
D25*
X252953Y144685D02*
D03*
Y136811D02*
D03*
Y121063D02*
D03*
Y128937D02*
D03*
Y97441D02*
D03*
Y89567D02*
D03*
Y105315D02*
D03*
Y113189D02*
D03*
Y81693D02*
D03*
Y73819D02*
D03*
Y65945D02*
D03*
X176575D02*
D03*
Y73819D02*
D03*
Y81693D02*
D03*
Y113189D02*
D03*
Y105315D02*
D03*
Y89567D02*
D03*
Y97441D02*
D03*
Y128937D02*
D03*
Y121063D02*
D03*
Y136811D02*
D03*
Y144685D02*
D03*
D26*
X252953Y58071D02*
D03*
X176575Y58071D02*
D03*
D27*
X246260Y51378D02*
D03*
X183268D02*
D03*
D28*
X238386D02*
D03*
X230512D02*
D03*
X222638D02*
D03*
X206890D02*
D03*
X199016D02*
D03*
X191142D02*
D03*
D29*
X102362Y56102D02*
X107283D01*
X115157D02*
X121063D01*
X55118Y2953D02*
Y14764D01*
X84646D02*
Y24606D01*
Y13780D02*
Y14764D01*
X114173Y7874D02*
Y11811D01*
X106299Y33465D02*
X114173Y25591D01*
Y19685D02*
Y25591D01*
X98425Y13780D02*
X109843Y2362D01*
X50197Y24606D02*
X84646D01*
X43307Y17717D02*
X50197Y24606D01*
X17717Y10827D02*
X25591Y2953D01*
X55118D01*
X41339Y33465D02*
X106299D01*
X33465Y25591D02*
X41339Y33465D01*
X185039Y111221D02*
X187992Y114173D01*
X133858Y159449D02*
X141732D01*
X125984D02*
X133858D01*
X159449Y140157D02*
X163976Y144685D01*
X159449Y136811D02*
Y140157D01*
X150492Y114173D02*
X159449D01*
X159449Y131299D02*
Y136811D01*
X75394Y132874D02*
X79528Y137008D01*
X238386Y40157D02*
X250000Y28543D01*
X256890D01*
X230512Y39173D02*
X250984Y18701D01*
X256732D01*
X256890Y18543D01*
X260827Y97441D02*
X260827Y97441D01*
X256890Y38543D02*
X260827Y42480D01*
X17717Y25591D02*
X25591D01*
X17717D02*
Y37402D01*
X25591Y17717D02*
X33465D01*
X27559Y37402D02*
X33465Y31496D01*
Y25591D02*
Y31496D01*
X17717Y10827D02*
Y17717D01*
X181772Y16063D02*
X187008Y10827D01*
X191929D01*
Y19685D02*
Y28386D01*
X191772Y28543D02*
X191929Y28386D01*
X212913Y19685D02*
X221772Y28543D01*
X164173Y12795D02*
X167717Y9252D01*
X136221D02*
Y15748D01*
X196850Y3937D02*
X199803Y6890D01*
Y10827D01*
X19685Y80709D02*
Y120079D01*
X74803Y103347D02*
X89567D01*
Y92520D02*
X98917D01*
X99410Y93012D01*
X99902Y104331D02*
X107283D01*
X99410Y103839D02*
X99902Y104331D01*
X67913Y77756D02*
X70374D01*
X64961Y74803D02*
X67913Y77756D01*
X107283Y93504D02*
Y104331D01*
Y82677D02*
Y93504D01*
Y70866D02*
Y82677D01*
X69882Y88583D02*
X74803Y93504D01*
X164173Y12795D02*
Y19291D01*
X136221Y15748D02*
X139764Y19291D01*
X156398Y9252D02*
X167717D01*
X173031Y3937D01*
X147539Y9252D02*
X156398D01*
X136221D02*
X147539D01*
X176575Y97441D02*
X176575Y97441D01*
X17717Y45276D02*
X27559D01*
X34449D01*
X9843Y37402D02*
X17717D01*
X7874Y39370D02*
X9843Y37402D01*
X7874Y39370D02*
Y50197D01*
X10827Y53150D01*
X81201Y77756D02*
X89567Y86122D01*
Y92520D01*
X76968Y61221D02*
X81890D01*
X10827Y53150D02*
X85630D01*
X94488Y62008D01*
X98425D01*
X177165Y12795D02*
Y19685D01*
X175197Y21654D02*
X177165Y19685D01*
X106299Y118110D02*
X107283Y119095D01*
X103347Y118110D02*
X106299D01*
X115157Y93504D02*
Y94488D01*
Y104331D02*
Y109252D01*
Y113189D01*
X179724Y141535D02*
X184620D01*
X159449Y97441D02*
Y106299D01*
X164370D01*
X187992Y114173D02*
X202756D01*
X212913Y17047D02*
Y19685D01*
X199803Y10827D02*
X212598D01*
X219488Y17717D01*
Y19685D01*
X222638Y51378D02*
Y90354D01*
X175591Y114173D02*
X176575Y113189D01*
X167323Y114173D02*
X175591D01*
X260615Y144685D02*
X260827Y144473D01*
X234744Y160827D02*
X235335Y161417D01*
X234744Y133957D02*
X238484Y130217D01*
X107283Y113189D02*
Y119095D01*
X115157Y82677D02*
Y93504D01*
X104331Y122047D02*
X107283Y119095D01*
X79528Y137008D02*
X94488Y122047D01*
X27559Y120079D02*
X37402D01*
X33465Y17717D02*
X43307D01*
X260827Y97441D02*
Y105512D01*
X252953Y144685D02*
X260615D01*
X252953Y97441D02*
X260827D01*
X176575Y105315D02*
X206890D01*
X252953Y65945D02*
X260827D01*
X176575Y128937D02*
X184055D01*
X176575Y97441D02*
X184055D01*
X221772Y50512D02*
X222638Y51378D01*
X230512Y39173D02*
Y51378D01*
X176575Y144685D02*
X179724Y141535D01*
X238386Y40157D02*
Y51378D01*
X176575Y136811D02*
X184055D01*
X167323Y121063D02*
X176575D01*
X249016Y58071D02*
X252953D01*
X167323Y97441D02*
X176575D01*
X248425Y58661D02*
X249016Y58071D01*
X248425Y58661D02*
Y59842D01*
X167323Y136811D02*
X176575D01*
X248425Y65945D02*
X252953D01*
X206890Y44488D02*
Y51378D01*
X116142Y70866D02*
X120079D01*
X151575Y39370D01*
X260827Y128937D02*
Y144473D01*
Y105512D02*
Y128937D01*
Y65945D02*
Y97441D01*
Y42480D02*
Y65945D01*
X206890Y68898D02*
X215551D01*
X206890Y51378D02*
Y65945D01*
Y68898D01*
X201772Y39370D02*
X206890Y44488D01*
X176575Y65945D02*
X206890D01*
X129331Y2362D02*
X136221Y9252D01*
X206890Y105315D02*
Y119266D01*
X39370Y80709D02*
X62008D01*
X114173Y25591D02*
X125000Y14764D01*
X211772Y28543D02*
Y39213D01*
X181772Y16063D02*
Y28543D01*
Y39055D01*
X201772Y28543D02*
Y39370D01*
X221772Y28543D02*
Y50512D01*
X199803Y19685D02*
X212913D01*
X191772Y28543D02*
Y39213D01*
X252854Y129134D02*
X252958Y129131D01*
X260827Y128937D01*
X238484Y130217D02*
X252953D01*
X184620Y141535D02*
X206890Y119266D01*
X163976Y144685D02*
X176575D01*
X150197Y122047D02*
X159449Y131299D01*
X206890Y98425D02*
Y105315D01*
Y68898D02*
Y98425D01*
X173031Y3937D02*
X196850D01*
X47244Y132874D02*
X75394D01*
X122047Y122047D02*
X150197D01*
X104331D02*
X122047D01*
X115157Y94488D02*
X120079D01*
X94488Y122047D02*
X104331D01*
X37402Y120079D02*
Y123031D01*
X47244Y132874D01*
X27559Y120079D02*
X39370Y108268D01*
X109843Y2362D02*
X129331D01*
X84646Y13780D02*
X98425D01*
X69882Y88583D02*
X72835Y85630D01*
X62008Y80709D02*
X69882Y88583D01*
X39370Y80709D02*
Y108268D01*
D30*
X154528Y48228D02*
Y89567D01*
X152559Y34449D02*
X158268D01*
X146850Y28740D02*
X152559Y34449D01*
X146850Y28740D02*
Y36220D01*
X162106Y32575D02*
Y40650D01*
X154528Y48228D02*
X162106Y40650D01*
X196850Y173228D02*
X206693D01*
X196850Y161417D02*
Y173228D01*
X195866Y160433D02*
X196850Y161417D01*
X206693Y173228D02*
X229528Y196063D01*
X151969Y19685D02*
X152067Y19783D01*
Y24114D01*
X165516D02*
X168504Y27102D01*
Y30709D01*
X149409Y19685D02*
X149508Y19783D01*
Y24896D01*
X152171Y27559D01*
X158465D01*
X158268Y27756D02*
X158465Y27559D01*
X158268Y27756D02*
Y30709D01*
X146850Y19685D02*
Y28740D01*
X154528Y89567D02*
X159449D01*
X152067Y24114D02*
X165516D01*
X164665Y31886D02*
X165842Y30709D01*
X168504D01*
X159449Y81693D02*
X164665Y76476D01*
X158268Y30709D02*
Y31594D01*
X161126D02*
X162106Y32575D01*
X157087Y19685D02*
X163779D01*
X164173Y19291D01*
X167323Y81693D02*
X176575D01*
X167323Y89567D02*
X176575D01*
X158268Y31594D02*
X161126D01*
X164665Y31886D02*
Y76476D01*
D31*
X68898Y3937D02*
X69882Y2953D01*
X68898Y3937D02*
Y14764D01*
X118110Y215551D02*
X133858Y231299D01*
X118110Y159449D02*
Y215551D01*
X220866Y169488D02*
Y173228D01*
X202756Y165354D02*
Y168307D01*
X209646D02*
X219685D01*
X220866Y169488D01*
X202756Y160433D02*
X209646D01*
X201772Y141732D02*
X206454D01*
X207480Y144882D02*
X229999Y122363D01*
X229134Y70472D02*
Y119053D01*
X229999Y119917D01*
Y122363D01*
X257087Y209842D02*
Y222342D01*
X210434Y233464D02*
X217520Y226378D01*
X240315Y183543D02*
X245216Y178642D01*
X231181Y183543D02*
X240315D01*
Y205354D02*
Y213307D01*
X110256Y142736D02*
X116437D01*
X147382Y137736D02*
X156890Y147244D01*
X110236Y147638D02*
Y151575D01*
X133858Y231299D02*
Y245079D01*
X110236Y159449D02*
X118110D01*
X140059Y137736D02*
X147382D01*
X156890Y155118D02*
X164469D01*
X170768D02*
X171555Y155905D01*
X164469Y155118D02*
X170768D01*
X240158Y233347D02*
X240236Y233268D01*
X81201Y69390D02*
Y77756D01*
Y69390D02*
X81890Y68701D01*
Y64961D02*
X87598D01*
X146653Y52165D02*
Y77756D01*
X246949Y161417D02*
X247441Y160925D01*
X240315Y205354D02*
X256201Y189469D01*
X245216Y178642D02*
X256201D01*
X246063Y121063D02*
X252953D01*
X220866Y173228D02*
X231181Y183543D01*
X215354Y151575D02*
Y159449D01*
X217126Y161221D01*
X242717Y54921D02*
X246260Y51378D01*
X242717Y54921D02*
Y56890D01*
X229134Y70472D02*
X242717Y56890D01*
X207480Y144882D02*
Y151575D01*
X232087Y240748D02*
X250295D01*
X229528Y238189D02*
X232087Y240748D01*
X245276Y279528D02*
X253937D01*
X244094Y278346D02*
X245276Y279528D01*
X115157Y109252D02*
X146653Y77756D01*
X253051Y226378D02*
X257087Y222342D01*
X217520Y226378D02*
X253051D01*
D32*
X238779Y233465D02*
X257678D01*
X258169Y233957D01*
X102362Y151575D02*
X110236D01*
X240236Y298229D02*
X247047D01*
X253937Y291339D01*
X18898Y120866D02*
Y137008D01*
Y120866D02*
X19685Y120079D01*
X258169Y240748D02*
Y248524D01*
Y233957D02*
Y240748D01*
X225493Y248524D02*
X250295D01*
X210434Y233464D02*
X225493Y248524D01*
D33*
X160945Y198031D02*
Y213307D01*
X98425Y268701D02*
Y273622D01*
X118110Y314567D02*
Y320866D01*
Y307087D02*
Y314567D01*
Y299213D02*
Y307087D01*
X98425Y273622D02*
X107087Y282283D01*
X114961Y290158D01*
X160945Y213307D02*
X169291Y221654D01*
X114961Y290158D02*
X118110Y293307D01*
Y299213D01*
X169291Y320866D02*
X169291Y320866D01*
X147638Y275591D02*
X155512Y283465D01*
X147638Y264567D02*
Y275591D01*
Y254331D02*
Y264567D01*
X141102Y227323D02*
X144882Y231102D01*
X147638Y233858D01*
X141102Y183543D02*
Y198425D01*
X160945Y183543D02*
Y198031D01*
X169291Y230709D02*
Y244094D01*
Y253543D01*
Y268701D01*
X180787Y213307D02*
X180827D01*
X164567Y292520D02*
X169291Y297244D01*
X155512Y283465D02*
X164567Y292520D01*
X220472Y272638D02*
X223425Y275591D01*
X190945Y243110D02*
X191929Y244094D01*
X180787Y183543D02*
Y196850D01*
Y213307D01*
X169291Y221654D02*
Y230709D01*
X216535Y320866D02*
X223425Y313976D01*
Y307087D02*
Y313976D01*
Y275591D02*
Y289370D01*
Y307087D01*
X191929Y244094D02*
X220472Y272638D01*
X190945Y223425D02*
Y243110D01*
X180827Y213307D02*
X190059Y222539D01*
X141102Y198425D02*
Y213307D01*
X169291Y297244D02*
Y320866D01*
X147638Y233858D02*
Y254331D01*
X141102Y213307D02*
Y227323D01*
D34*
X148622Y144685D02*
Y152559D01*
X146673Y142736D02*
X148622Y144685D01*
X116299Y132874D02*
X116437Y132736D01*
X100394Y132874D02*
X116299D01*
X95472Y137795D02*
X100394Y132874D01*
X95472Y137795D02*
Y158465D01*
X96457Y159449D01*
X102362D01*
X-492126Y-405512D02*
Y-403543D01*
X168504Y34449D02*
X173228D01*
X164173Y19291D02*
X173228Y28346D01*
Y34449D01*
X141732Y159449D02*
X148622Y152559D01*
X140059Y142736D02*
X146673D01*
D35*
X135339Y134354D02*
Y144366D01*
X141732Y150759D01*
X130905Y137795D02*
Y145669D01*
X125847Y132736D02*
X130905Y137795D01*
X116437Y132736D02*
X125847D01*
X130905Y145669D02*
X133858Y148622D01*
X118110Y151575D02*
X125984D01*
Y139764D02*
Y151575D01*
X123957Y137736D02*
X125984Y139764D01*
X116437Y137736D02*
X123957D01*
X133858Y148622D02*
Y151575D01*
X141732Y150759D02*
Y151575D01*
X128720Y127736D02*
X135339Y134354D01*
X116437Y127736D02*
X128720D01*
D36*
X241142Y136811D02*
Y152559D01*
Y136811D02*
X252953D01*
D37*
X251368Y143100D02*
X252953Y144685D01*
X247441Y143100D02*
Y160925D01*
Y143100D02*
X251368D01*
D38*
X104331Y320866D02*
X106299Y322835D01*
Y333858D02*
X107087Y334646D01*
X155512Y334646D02*
X157480D01*
X167323D01*
X177165D01*
X187008D01*
X188976D01*
X196850Y326772D01*
X202756Y320866D01*
X155512Y334646D02*
X155512Y334646D01*
X202756Y306103D02*
Y320866D01*
Y306103D02*
X210434Y298425D01*
X106299Y322835D02*
Y327756D01*
Y333858D01*
X155512Y320866D02*
Y328740D01*
X127953Y334646D02*
X155512D01*
X107087D02*
X127953D01*
X155512Y328740D02*
Y334646D01*
D39*
X260630Y105315D02*
X260827Y105512D01*
X252953Y105315D02*
X260630D01*
D40*
X234744Y133957D02*
Y160827D01*
D41*
X68898Y14764D02*
D03*
X55118D02*
D03*
X201772Y28543D02*
D03*
X211772D02*
D03*
X191772D02*
D03*
X181772D02*
D03*
X256890D02*
D03*
Y38543D02*
D03*
X98425Y14764D02*
D03*
X84646D02*
D03*
X202756Y320866D02*
D03*
X216535D02*
D03*
X155512D02*
D03*
X169291D02*
D03*
X104331D02*
D03*
X118110D02*
D03*
X39370Y80709D02*
D03*
D42*
X221772Y28543D02*
D03*
D43*
X256890Y18543D02*
D03*
D44*
X88583Y320866D02*
D03*
X68898D02*
D03*
X29528D02*
D03*
X9843D02*
D03*
D45*
X238779Y233465D02*
D03*
Y298425D02*
D03*
D46*
X210434Y233464D02*
D03*
Y298425D02*
D03*
D47*
X169291Y268701D02*
D03*
X98425D02*
D03*
D48*
X133858Y245079D02*
D03*
Y292323D02*
D03*
X74803Y93504D02*
D03*
Y103347D02*
D03*
D49*
X27559Y275590D02*
D03*
X66929D02*
D03*
X27559Y293307D02*
D03*
X66929D02*
D03*
D50*
X19685Y80709D02*
D03*
D51*
X18898Y137008D02*
D03*
X79528D02*
D03*
X39370Y252756D02*
D03*
X59055D02*
D03*
D52*
X160945Y183543D02*
D03*
X180787D02*
D03*
X240315Y213307D02*
D03*
Y183543D02*
D03*
X141102D02*
D03*
X180787Y213307D02*
D03*
X160945D02*
D03*
X141102D02*
D03*
D53*
X164370Y63976D02*
D03*
X102362Y56102D02*
D03*
X121063D02*
D03*
X146850Y36220D02*
D03*
X151575Y39370D02*
D03*
X69882Y2953D02*
D03*
X114173Y7874D02*
D03*
X202756Y165354D02*
D03*
X195866Y160433D02*
D03*
X229528Y196063D02*
D03*
X127953Y127953D02*
D03*
X260827Y144473D02*
D03*
X257087Y209842D02*
D03*
X110256Y142736D02*
D03*
X185039Y111221D02*
D03*
X146653Y142717D02*
D03*
X110236Y147638D02*
D03*
X171555Y155905D02*
D03*
X191772Y39213D02*
D03*
X211772D02*
D03*
X181772Y39055D02*
D03*
X246063Y121063D02*
D03*
X184055Y128937D02*
D03*
Y136811D02*
D03*
X64961Y74803D02*
D03*
X72835Y85630D02*
D03*
X34449Y45276D02*
D03*
X87598Y64961D02*
D03*
X76968Y61221D02*
D03*
X175197Y21654D02*
D03*
X98425Y62008D02*
D03*
X120079Y94488D02*
D03*
X103347Y118110D02*
D03*
X146653Y52165D02*
D03*
X184055Y97441D02*
D03*
X164370Y106299D02*
D03*
X222441Y90551D02*
D03*
X202756Y114173D02*
D03*
X167323Y121063D02*
D03*
X43307Y17717D02*
D03*
X125000Y14764D02*
D03*
X215551Y68898D02*
D03*
X212913Y17047D02*
D03*
X219488Y19685D02*
D03*
X248425Y59842D02*
D03*
Y65945D02*
D03*
X229528Y238189D02*
D03*
X108268Y334646D02*
D03*
X118110D02*
D03*
X127953D02*
D03*
X137795D02*
D03*
X147638D02*
D03*
X157480D02*
D03*
X167323D02*
D03*
X177165D02*
D03*
X187008D02*
D03*
X196850Y326772D02*
D03*
X118110Y314567D02*
D03*
Y307087D02*
D03*
Y299213D02*
D03*
X114961Y290158D02*
D03*
X107087Y282283D02*
D03*
X155512Y283465D02*
D03*
X147638Y275591D02*
D03*
Y264567D02*
D03*
Y254331D02*
D03*
X147244Y244094D02*
D03*
X144882Y231102D02*
D03*
X140551Y221654D02*
D03*
X141102Y198425D02*
D03*
X160945Y198031D02*
D03*
X168898Y222441D02*
D03*
X169291Y230709D02*
D03*
Y244094D02*
D03*
Y253543D02*
D03*
X244094Y278346D02*
D03*
X3937Y3937D02*
D03*
X9842Y15748D02*
D03*
X3937Y27559D02*
D03*
Y51181D02*
D03*
X9842Y62992D02*
D03*
X3937Y74803D02*
D03*
X9842Y86614D02*
D03*
X3937Y98425D02*
D03*
X9842Y110236D02*
D03*
X3937Y122047D02*
D03*
X9842Y133858D02*
D03*
X3937Y145669D02*
D03*
X9842Y157480D02*
D03*
X3937Y169291D02*
D03*
X15748Y3937D02*
D03*
X21653Y62992D02*
D03*
X15748Y74803D02*
D03*
Y98425D02*
D03*
Y145669D02*
D03*
X21653Y157480D02*
D03*
X15748Y169291D02*
D03*
X33464Y39370D02*
D03*
Y62992D02*
D03*
Y86614D02*
D03*
X27559Y98425D02*
D03*
X33464Y110236D02*
D03*
Y133858D02*
D03*
X27559Y145669D02*
D03*
X33464Y157480D02*
D03*
X27559Y169291D02*
D03*
X45275Y39370D02*
D03*
Y62992D02*
D03*
Y86614D02*
D03*
X39370Y98425D02*
D03*
X45275Y110236D02*
D03*
X39370Y122047D02*
D03*
X45275Y133858D02*
D03*
Y157480D02*
D03*
X39370Y169291D02*
D03*
X51181Y27559D02*
D03*
X57086Y39370D02*
D03*
Y62992D02*
D03*
Y86614D02*
D03*
X51181Y98425D02*
D03*
X57086Y110236D02*
D03*
X51181Y122047D02*
D03*
X57086Y133858D02*
D03*
Y157480D02*
D03*
X51181Y169291D02*
D03*
X62992Y3937D02*
D03*
Y27559D02*
D03*
X68897Y39370D02*
D03*
Y86614D02*
D03*
X62992Y98425D02*
D03*
X68897Y110236D02*
D03*
X62992Y122047D02*
D03*
X68897Y133858D02*
D03*
Y157480D02*
D03*
X62992Y169291D02*
D03*
X74803Y27559D02*
D03*
X80708Y39370D02*
D03*
Y86614D02*
D03*
Y110236D02*
D03*
X74803Y122047D02*
D03*
X80708Y157480D02*
D03*
X74803Y169291D02*
D03*
X86614Y27559D02*
D03*
X92519Y39370D02*
D03*
X86614Y74803D02*
D03*
X92519Y110236D02*
D03*
X86614Y122047D02*
D03*
X92519Y133858D02*
D03*
X86614Y169291D02*
D03*
X98425Y27559D02*
D03*
X104331Y39370D02*
D03*
X98425Y74803D02*
D03*
Y98425D02*
D03*
Y122047D02*
D03*
Y169291D02*
D03*
X110236Y51181D02*
D03*
Y122047D02*
D03*
X122047Y3937D02*
D03*
X127953Y39370D02*
D03*
X122047Y51181D02*
D03*
X127953Y86614D02*
D03*
Y110236D02*
D03*
X122047Y122047D02*
D03*
X133858Y27559D02*
D03*
X139764Y39370D02*
D03*
X133858Y51181D02*
D03*
Y74803D02*
D03*
Y98425D02*
D03*
X139764Y110236D02*
D03*
X133858Y122047D02*
D03*
X151575Y157480D02*
D03*
X157480Y122047D02*
D03*
X175197Y39370D02*
D03*
X169291Y51181D02*
D03*
Y74803D02*
D03*
X187008Y39370D02*
D03*
X192913Y145669D02*
D03*
X210630Y62992D02*
D03*
X204724Y74803D02*
D03*
X210630Y86614D02*
D03*
X204724Y98425D02*
D03*
X210630Y110236D02*
D03*
X204724Y122047D02*
D03*
X210630Y133858D02*
D03*
X216535Y3937D02*
D03*
Y51181D02*
D03*
Y74803D02*
D03*
X222441Y110236D02*
D03*
X216535Y145669D02*
D03*
Y192913D02*
D03*
X222441Y204724D02*
D03*
X216535Y216535D02*
D03*
X222441Y228346D02*
D03*
X228346Y3937D02*
D03*
X234252Y15748D02*
D03*
X228346Y27559D02*
D03*
X234252Y86614D02*
D03*
Y110236D02*
D03*
Y133858D02*
D03*
X228346Y145669D02*
D03*
Y169291D02*
D03*
X234252Y204724D02*
D03*
Y251968D02*
D03*
X240157Y3937D02*
D03*
X246063Y15748D02*
D03*
Y62992D02*
D03*
X240157Y74803D02*
D03*
X246063Y86614D02*
D03*
X240157Y98425D02*
D03*
X246063Y110236D02*
D03*
X240157Y169291D02*
D03*
X246063Y204724D02*
D03*
Y228346D02*
D03*
X251968Y3937D02*
D03*
X257874Y157480D02*
D03*
X251968Y169291D02*
D03*
X257874Y204724D02*
D03*
X251968Y216535D02*
D03*
X257874Y228346D02*
D03*
X248031Y151575D02*
D03*
Y143701D02*
D03*
Y147638D02*
D03*
X234154Y137795D02*
D03*
Y142323D02*
D03*
X234055Y146949D02*
D03*
X233858Y151969D02*
D03*
X169291Y300000D02*
D03*
Y314961D02*
D03*
Y307480D02*
D03*
X164567Y292520D02*
D03*
X222146Y316339D02*
D03*
X222441Y307087D02*
D03*
Y299213D02*
D03*
Y289370D02*
D03*
Y280512D02*
D03*
X220472Y272638D02*
D03*
X212598Y265748D02*
D03*
X205709Y258858D02*
D03*
X198819Y250984D02*
D03*
X191929Y244094D02*
D03*
Y235236D02*
D03*
Y225394D02*
D03*
X187008Y219488D02*
D03*
X180787Y196850D02*
D03*
X106299Y327756D02*
D03*
X155512Y328740D02*
D03*
M02*
