G04 Layer_Color=32896*
%FSLAX25Y25*%
%MOIN*%
G70*
G01*
G75*
G36*
X20157Y18686D02*
X20223Y18657D01*
X20274Y18621D01*
X20303Y18570D01*
X20325Y18519D01*
X20332Y18482D01*
X20339Y18453D01*
Y18438D01*
Y16609D01*
X20332Y16477D01*
X20303Y16361D01*
X20259Y16251D01*
X20215Y16164D01*
X20164Y16091D01*
X20128Y16033D01*
X20099Y16003D01*
X20084Y15989D01*
X19982Y15901D01*
X19880Y15843D01*
X19771Y15799D01*
X19676Y15763D01*
X19588Y15748D01*
X19523Y15741D01*
X19472Y15734D01*
X18444D01*
X18356Y15748D01*
X18291Y15777D01*
X18247Y15814D01*
X18218Y15865D01*
X18196Y15916D01*
X18189Y15953D01*
X18181Y15982D01*
Y15996D01*
Y18438D01*
X18196Y18526D01*
X18225Y18591D01*
X18269Y18635D01*
X18320Y18664D01*
X18364Y18686D01*
X18407Y18693D01*
X18437Y18701D01*
X18451D01*
X18539Y18686D01*
X18604Y18657D01*
X18655Y18621D01*
X18685Y18570D01*
X18706Y18519D01*
X18714Y18482D01*
X18721Y18453D01*
Y18438D01*
Y16266D01*
X19457D01*
X19508Y16273D01*
X19559Y16281D01*
X19632Y16317D01*
X19661Y16339D01*
X19683Y16353D01*
X19691Y16361D01*
X19698Y16368D01*
X19734Y16404D01*
X19756Y16448D01*
X19785Y16521D01*
X19793Y16557D01*
X19800Y16587D01*
Y16601D01*
Y16609D01*
Y18438D01*
X19814Y18526D01*
X19844Y18591D01*
X19887Y18635D01*
X19938Y18664D01*
X19982Y18686D01*
X20026Y18693D01*
X20055Y18701D01*
X20070D01*
X20157Y18686D01*
D02*
G37*
G36*
X25916Y18693D02*
X25953Y18686D01*
X26011Y18657D01*
X26047Y18635D01*
X26062Y18621D01*
X26091Y18591D01*
X26113Y18555D01*
X26142Y18497D01*
X26149Y18453D01*
Y18446D01*
Y18438D01*
X26142Y18395D01*
X26135Y18351D01*
X26120Y18322D01*
X26113Y18314D01*
X25413Y16959D01*
X25544Y16900D01*
X25654Y16827D01*
X25756Y16747D01*
X25836Y16660D01*
X25909Y16565D01*
X25967Y16463D01*
X26018Y16368D01*
X26055Y16266D01*
X26091Y16171D01*
X26113Y16084D01*
X26128Y16003D01*
X26135Y15931D01*
X26142Y15872D01*
X26149Y15829D01*
Y15799D01*
Y15792D01*
X26142Y15697D01*
X26135Y15603D01*
X26091Y15428D01*
X26033Y15274D01*
X25960Y15143D01*
X25887Y15034D01*
X25858Y14990D01*
X25829Y14954D01*
X25807Y14925D01*
X25785Y14903D01*
X25778Y14895D01*
X25770Y14888D01*
X25697Y14822D01*
X25624Y14764D01*
X25552Y14713D01*
X25471Y14669D01*
X25318Y14604D01*
X25180Y14553D01*
X25056Y14531D01*
X25005Y14524D01*
X24954Y14516D01*
X24917Y14509D01*
X23846D01*
X23758Y14524D01*
X23693Y14553D01*
X23649Y14589D01*
X23620Y14640D01*
X23598Y14691D01*
X23591Y14728D01*
X23583Y14757D01*
Y14772D01*
Y18438D01*
X23598Y18526D01*
X23627Y18591D01*
X23671Y18635D01*
X23722Y18664D01*
X23766Y18686D01*
X23809Y18693D01*
X23839Y18701D01*
X23853D01*
X23941Y18686D01*
X24006Y18657D01*
X24057Y18621D01*
X24086Y18570D01*
X24108Y18519D01*
X24115Y18482D01*
X24123Y18453D01*
Y18438D01*
Y17075D01*
X24896D01*
X25654Y18584D01*
X25676Y18621D01*
X25712Y18650D01*
X25749Y18672D01*
X25785Y18686D01*
X25821Y18693D01*
X25850Y18701D01*
X25880D01*
X25916Y18693D01*
D02*
G37*
G36*
X35991Y18686D02*
X36057Y18657D01*
X36108Y18621D01*
X36137Y18570D01*
X36159Y18519D01*
X36166Y18482D01*
X36173Y18453D01*
Y18438D01*
Y15996D01*
X36159Y15909D01*
X36129Y15843D01*
X36086Y15799D01*
X36042Y15763D01*
X35991Y15748D01*
X35947Y15741D01*
X35918Y15734D01*
X35903D01*
X35816Y15748D01*
X35750Y15777D01*
X35699Y15814D01*
X35670Y15865D01*
X35648Y15916D01*
X35641Y15953D01*
X35634Y15982D01*
Y15996D01*
Y18438D01*
X35648Y18526D01*
X35677Y18591D01*
X35721Y18635D01*
X35772Y18664D01*
X35816Y18686D01*
X35860Y18693D01*
X35889Y18701D01*
X35903D01*
X35991Y18686D01*
D02*
G37*
G36*
X38870D02*
X38936Y18657D01*
X38987Y18621D01*
X39016Y18570D01*
X39038Y18519D01*
X39045Y18482D01*
X39053Y18453D01*
Y18438D01*
Y16609D01*
X39045Y16477D01*
X39016Y16361D01*
X38972Y16251D01*
X38929Y16164D01*
X38878Y16091D01*
X38841Y16033D01*
X38812Y16003D01*
X38798Y15989D01*
X38695Y15901D01*
X38594Y15843D01*
X38484Y15799D01*
X38389Y15763D01*
X38302Y15748D01*
X38236Y15741D01*
X38185Y15734D01*
X37354D01*
X37267Y15748D01*
X37201Y15777D01*
X37150Y15814D01*
X37121Y15865D01*
X37099Y15916D01*
X37092Y15953D01*
X37084Y15982D01*
Y15996D01*
X37099Y16084D01*
X37128Y16149D01*
X37172Y16200D01*
X37223Y16229D01*
X37267Y16251D01*
X37310Y16259D01*
X37340Y16266D01*
X38171D01*
X38222Y16273D01*
X38265Y16281D01*
X38346Y16317D01*
X38375Y16339D01*
X38397Y16353D01*
X38404Y16361D01*
X38411Y16368D01*
X38448Y16404D01*
X38469Y16448D01*
X38499Y16521D01*
X38506Y16557D01*
X38513Y16587D01*
Y16601D01*
Y16609D01*
Y16951D01*
X37762D01*
X37668Y16959D01*
X37580Y16973D01*
X37500Y16995D01*
X37427Y17017D01*
X37296Y17090D01*
X37187Y17170D01*
X37106Y17250D01*
X37041Y17323D01*
X37026Y17345D01*
X37012Y17367D01*
X36997Y17381D01*
Y17389D01*
X36961Y17469D01*
X36931Y17542D01*
X36909Y17615D01*
X36895Y17680D01*
X36888Y17739D01*
X36880Y17789D01*
Y17819D01*
Y17826D01*
X36895Y17957D01*
X36924Y18081D01*
X36961Y18191D01*
X37012Y18278D01*
X37055Y18351D01*
X37099Y18409D01*
X37128Y18438D01*
X37135Y18453D01*
X37238Y18533D01*
X37340Y18599D01*
X37449Y18643D01*
X37544Y18672D01*
X37631Y18686D01*
X37704Y18693D01*
X37748Y18701D01*
X38783D01*
X38870Y18686D01*
D02*
G37*
G36*
X39101Y13743D02*
X39265Y13670D01*
X39392Y13561D01*
X39465Y13433D01*
X39520Y13324D01*
X39538Y13215D01*
X39556Y13142D01*
Y13105D01*
X39520Y12887D01*
X39447Y12723D01*
X39338Y12614D01*
X39228Y12522D01*
X39101Y12486D01*
X38991Y12468D01*
X38919Y12449D01*
X35894D01*
X39064Y7548D01*
X39228Y7257D01*
X39356Y6983D01*
X39429Y6710D01*
X39502Y6473D01*
X39538Y6291D01*
X39556Y6127D01*
Y6036D01*
Y6000D01*
Y5799D01*
X39520Y5599D01*
X39429Y5234D01*
X39301Y4906D01*
X39156Y4633D01*
X39010Y4414D01*
X38882Y4250D01*
X38791Y4141D01*
X38773Y4105D01*
X38755D01*
X38609Y3959D01*
X38445Y3831D01*
X38135Y3649D01*
X37807Y3503D01*
X37516Y3394D01*
X37261Y3339D01*
X37042Y3321D01*
X36969Y3303D01*
X36860D01*
X36550Y3321D01*
X36277Y3394D01*
X36004Y3485D01*
X35748Y3613D01*
X35511Y3759D01*
X35293Y3923D01*
X35092Y4105D01*
X34910Y4287D01*
X34746Y4487D01*
X34600Y4651D01*
X34491Y4834D01*
X34382Y4979D01*
X34309Y5107D01*
X34254Y5198D01*
X34218Y5271D01*
X34200Y5289D01*
X34163Y5344D01*
X34145Y5417D01*
Y5471D01*
Y5489D01*
X34181Y5708D01*
X34254Y5872D01*
X34364Y6000D01*
X34491Y6072D01*
X34600Y6127D01*
X34710Y6145D01*
X34783Y6164D01*
X34819D01*
X34965Y6145D01*
X35074Y6109D01*
X35184Y6054D01*
X35256Y6000D01*
X35329Y5945D01*
X35366Y5890D01*
X35402Y5854D01*
Y5836D01*
X35530Y5617D01*
X35657Y5435D01*
X35785Y5271D01*
X35912Y5143D01*
X36040Y5016D01*
X36167Y4925D01*
X36386Y4779D01*
X36568Y4688D01*
X36732Y4651D01*
X36823Y4633D01*
X36860D01*
X37060Y4651D01*
X37242Y4688D01*
X37406Y4761D01*
X37534Y4834D01*
X37643Y4906D01*
X37734Y4979D01*
X37789Y5016D01*
X37807Y5034D01*
X37935Y5198D01*
X38044Y5362D01*
X38117Y5508D01*
X38153Y5672D01*
X38190Y5799D01*
X38208Y5909D01*
Y5981D01*
Y6000D01*
Y6145D01*
X38172Y6291D01*
X38135Y6419D01*
X38099Y6528D01*
X38062Y6619D01*
X38026Y6692D01*
X38008Y6747D01*
X37989Y6765D01*
X34254Y12741D01*
X34200Y12868D01*
X34163Y12996D01*
X34145Y13087D01*
Y13105D01*
Y13124D01*
X34181Y13342D01*
X34254Y13506D01*
X34364Y13615D01*
X34491Y13688D01*
X34600Y13743D01*
X34710Y13761D01*
X34783Y13780D01*
X38882D01*
X39101Y13743D01*
D02*
G37*
G36*
X30301D02*
X30465Y13670D01*
X30592Y13579D01*
X30665Y13452D01*
X30720Y13324D01*
X30738Y13233D01*
X30756Y13160D01*
Y13124D01*
Y11757D01*
X31594D01*
X31813Y11721D01*
X31977Y11648D01*
X32104Y11539D01*
X32177Y11411D01*
X32232Y11302D01*
X32250Y11192D01*
X32268Y11119D01*
Y11083D01*
X32232Y10864D01*
X32159Y10700D01*
X32050Y10591D01*
X31940Y10500D01*
X31813Y10464D01*
X31703Y10445D01*
X31631Y10427D01*
X30756D01*
Y9061D01*
X30720Y8842D01*
X30647Y8678D01*
X30538Y8569D01*
X30428Y8478D01*
X30301Y8441D01*
X30191Y8423D01*
X30118Y8405D01*
X30082D01*
X29863Y8441D01*
X29699Y8514D01*
X29572Y8605D01*
X29499Y8733D01*
X29444Y8860D01*
X29426Y8951D01*
X29408Y9024D01*
Y9061D01*
Y10427D01*
X27349D01*
X29171Y4214D01*
X29207Y4105D01*
X29226Y4032D01*
Y3977D01*
Y3959D01*
X29189Y3740D01*
X29116Y3576D01*
X29007Y3467D01*
X28898Y3376D01*
X28770Y3339D01*
X28661Y3321D01*
X28588Y3303D01*
X28552D01*
X28369Y3321D01*
X28242Y3376D01*
X28114Y3467D01*
X28041Y3540D01*
X27968Y3631D01*
X27932Y3722D01*
X27896Y3777D01*
Y3795D01*
X25855Y10919D01*
X25837Y11028D01*
Y11083D01*
Y11101D01*
X25873Y11320D01*
X25946Y11484D01*
X26055Y11593D01*
X26183Y11666D01*
X26292Y11721D01*
X26401Y11739D01*
X26474Y11757D01*
X29408D01*
Y13124D01*
X29444Y13342D01*
X29517Y13506D01*
X29627Y13615D01*
X29754Y13688D01*
X29863Y13743D01*
X29973Y13761D01*
X30046Y13780D01*
X30082D01*
X30301Y13743D01*
D02*
G37*
G36*
X45879D02*
X46043Y13670D01*
X46170Y13579D01*
X46243Y13452D01*
X46298Y13324D01*
X46316Y13233D01*
X46334Y13160D01*
Y13124D01*
Y11757D01*
X47172D01*
X47391Y11721D01*
X47555Y11648D01*
X47682Y11539D01*
X47755Y11411D01*
X47810Y11302D01*
X47828Y11192D01*
X47846Y11119D01*
Y11083D01*
X47810Y10864D01*
X47737Y10700D01*
X47628Y10591D01*
X47519Y10500D01*
X47391Y10464D01*
X47282Y10445D01*
X47209Y10427D01*
X46334D01*
Y9061D01*
X46298Y8842D01*
X46225Y8678D01*
X46116Y8569D01*
X46006Y8478D01*
X45879Y8441D01*
X45769Y8423D01*
X45696Y8405D01*
X45660D01*
X45441Y8441D01*
X45277Y8514D01*
X45150Y8605D01*
X45077Y8733D01*
X45022Y8860D01*
X45004Y8951D01*
X44986Y9024D01*
Y9061D01*
Y10427D01*
X42927D01*
X44749Y4214D01*
X44785Y4105D01*
X44804Y4032D01*
Y3977D01*
Y3959D01*
X44767Y3740D01*
X44694Y3576D01*
X44585Y3467D01*
X44476Y3376D01*
X44348Y3339D01*
X44239Y3321D01*
X44166Y3303D01*
X44130D01*
X43947Y3321D01*
X43820Y3376D01*
X43692Y3467D01*
X43619Y3540D01*
X43547Y3631D01*
X43510Y3722D01*
X43474Y3777D01*
Y3795D01*
X41433Y10919D01*
X41415Y11028D01*
Y11083D01*
Y11101D01*
X41451Y11320D01*
X41524Y11484D01*
X41633Y11593D01*
X41761Y11666D01*
X41870Y11721D01*
X41980Y11739D01*
X42053Y11757D01*
X44986D01*
Y13124D01*
X45022Y13342D01*
X45095Y13506D01*
X45205Y13615D01*
X45332Y13688D01*
X45441Y13743D01*
X45551Y13761D01*
X45624Y13780D01*
X45660D01*
X45879Y13743D01*
D02*
G37*
G36*
X23577D02*
X23741Y13670D01*
X23869Y13579D01*
X23942Y13452D01*
X23997Y13324D01*
X24015Y13233D01*
X24033Y13160D01*
Y13124D01*
Y3959D01*
X23997Y3740D01*
X23924Y3576D01*
X23814Y3467D01*
X23705Y3376D01*
X23577Y3339D01*
X23468Y3321D01*
X23395Y3303D01*
X23359D01*
X23249Y3321D01*
X23158Y3339D01*
X22994Y3431D01*
X22867Y3522D01*
X22849Y3540D01*
X22830Y3558D01*
X20844Y5544D01*
X20772Y5617D01*
X20735Y5690D01*
X20662Y5836D01*
X20644Y5945D01*
Y5981D01*
Y6000D01*
X20680Y6218D01*
X20753Y6382D01*
X20863Y6510D01*
X20990Y6583D01*
X21100Y6637D01*
X21209Y6656D01*
X21282Y6674D01*
X21318D01*
X21409Y6656D01*
X21500Y6637D01*
X21664Y6564D01*
X21755Y6510D01*
X21792Y6473D01*
X22685Y5362D01*
Y13124D01*
X22721Y13342D01*
X22794Y13506D01*
X22903Y13615D01*
X23031Y13688D01*
X23140Y13743D01*
X23249Y13761D01*
X23322Y13780D01*
X23359D01*
X23577Y13743D01*
D02*
G37*
G36*
X18294D02*
X18458Y13670D01*
X18585Y13579D01*
X18658Y13452D01*
X18713Y13324D01*
X18731Y13233D01*
X18749Y13160D01*
Y13124D01*
Y3959D01*
X18713Y3740D01*
X18640Y3576D01*
X18530Y3467D01*
X18403Y3376D01*
X18275Y3339D01*
X18166Y3321D01*
X18093Y3303D01*
X18057D01*
X17929Y3321D01*
X17802Y3339D01*
X17711Y3394D01*
X17638Y3449D01*
X17528Y3540D01*
X17510Y3576D01*
X17492Y3595D01*
X15032Y7457D01*
X12573Y3631D01*
X12481Y3522D01*
X12390Y3449D01*
X12299Y3376D01*
X12208Y3339D01*
X12117Y3321D01*
X12044Y3303D01*
X11989D01*
X11771Y3339D01*
X11607Y3412D01*
X11479Y3503D01*
X11406Y3631D01*
X11352Y3759D01*
X11334Y3850D01*
X11315Y3923D01*
Y3959D01*
Y13124D01*
X11352Y13342D01*
X11425Y13506D01*
X11534Y13615D01*
X11661Y13688D01*
X11771Y13743D01*
X11880Y13761D01*
X11953Y13780D01*
X11989D01*
X12208Y13743D01*
X12372Y13670D01*
X12500Y13579D01*
X12573Y13452D01*
X12627Y13324D01*
X12645Y13233D01*
X12664Y13160D01*
Y13124D01*
Y5799D01*
X14413Y8824D01*
X14522Y8951D01*
X14613Y9042D01*
X14723Y9115D01*
X14814Y9152D01*
X14905Y9188D01*
X14978Y9206D01*
X15032D01*
X15160Y9188D01*
X15269Y9152D01*
X15470Y9006D01*
X15542Y8951D01*
X15597Y8878D01*
X15615Y8842D01*
X15633Y8824D01*
X17401Y5799D01*
Y13124D01*
X17437Y13342D01*
X17510Y13506D01*
X17619Y13615D01*
X17747Y13688D01*
X17856Y13743D01*
X17966Y13761D01*
X18038Y13780D01*
X18075D01*
X18294Y13743D01*
D02*
G37*
G36*
X34030Y18693D02*
X34161Y18679D01*
X34278Y18650D01*
X34380Y18621D01*
X34453Y18591D01*
X34511Y18562D01*
X34547Y18548D01*
X34562Y18540D01*
X34620Y18497D01*
X34671Y18453D01*
X34744Y18358D01*
X34803Y18256D01*
X34846Y18154D01*
X34868Y18067D01*
X34876Y17994D01*
X34883Y17965D01*
Y17943D01*
Y17935D01*
Y17928D01*
X34876Y17841D01*
X34861Y17760D01*
X34839Y17687D01*
X34817Y17615D01*
X34744Y17498D01*
X34664Y17403D01*
X34577Y17330D01*
X34511Y17279D01*
X34482Y17257D01*
X34460Y17243D01*
X34445Y17235D01*
X34438D01*
X33388Y16725D01*
X33345Y16696D01*
X33316Y16660D01*
X33286Y16630D01*
X33272Y16594D01*
X33264Y16557D01*
X33257Y16528D01*
Y16514D01*
Y16507D01*
X33264Y16463D01*
X33279Y16426D01*
X33301Y16397D01*
X33323Y16368D01*
X33396Y16324D01*
X33476Y16295D01*
X33556Y16281D01*
X33629Y16266D01*
X33695D01*
X33811Y16273D01*
X33913Y16288D01*
X34008Y16310D01*
X34088Y16339D01*
X34154Y16368D01*
X34205Y16390D01*
X34241Y16404D01*
X34249Y16412D01*
X34314Y16448D01*
X34365Y16463D01*
X34394Y16470D01*
X34409D01*
X34445Y16463D01*
X34482Y16455D01*
X34547Y16426D01*
X34584Y16404D01*
X34598Y16390D01*
X34628Y16361D01*
X34642Y16324D01*
X34671Y16266D01*
X34679Y16215D01*
Y16208D01*
Y16200D01*
X34671Y16149D01*
X34657Y16105D01*
X34613Y16033D01*
X34584Y16011D01*
X34562Y15989D01*
X34547Y15982D01*
X34540Y15974D01*
X34394Y15894D01*
X34249Y15836D01*
X34110Y15792D01*
X33979Y15763D01*
X33862Y15748D01*
X33819Y15741D01*
X33775Y15734D01*
X33695D01*
X33556Y15741D01*
X33425Y15763D01*
X33316Y15792D01*
X33221Y15821D01*
X33141Y15858D01*
X33090Y15887D01*
X33053Y15909D01*
X33038Y15916D01*
X32980Y15953D01*
X32936Y15996D01*
X32856Y16091D01*
X32798Y16193D01*
X32761Y16288D01*
X32732Y16375D01*
X32725Y16441D01*
X32718Y16470D01*
Y16492D01*
Y16499D01*
Y16507D01*
X32725Y16594D01*
X32740Y16674D01*
X32761Y16754D01*
X32791Y16820D01*
X32856Y16944D01*
X32944Y17039D01*
X33024Y17112D01*
X33097Y17163D01*
X33119Y17185D01*
X33141Y17199D01*
X33155Y17206D01*
X33162D01*
X34212Y17709D01*
X34256Y17739D01*
X34285Y17768D01*
X34314Y17804D01*
X34329Y17841D01*
X34336Y17877D01*
X34343Y17906D01*
Y17921D01*
Y17928D01*
X34336Y17972D01*
X34321Y18008D01*
X34300Y18037D01*
X34271Y18067D01*
X34198Y18110D01*
X34117Y18139D01*
X34037Y18154D01*
X33964Y18161D01*
X33935Y18169D01*
X33891D01*
X33702Y18161D01*
X33622Y18147D01*
X33542Y18132D01*
X33476Y18125D01*
X33425Y18110D01*
X33396Y18103D01*
X33381D01*
X33308Y18074D01*
X33250Y18052D01*
X33192Y18030D01*
X33148Y18015D01*
X33111Y18001D01*
X33090Y17986D01*
X33075Y17979D01*
X33068D01*
X33046Y17972D01*
X32951D01*
X32915Y17986D01*
X32849Y18008D01*
X32812Y18037D01*
X32805Y18045D01*
X32798Y18052D01*
X32769Y18081D01*
X32754Y18110D01*
X32725Y18169D01*
X32718Y18212D01*
Y18220D01*
Y18227D01*
X32725Y18285D01*
X32740Y18329D01*
X32761Y18373D01*
X32791Y18409D01*
X32820Y18431D01*
X32842Y18453D01*
X32856Y18460D01*
X32864Y18467D01*
X33024Y18548D01*
X33199Y18599D01*
X33367Y18643D01*
X33527Y18672D01*
X33673Y18686D01*
X33731Y18693D01*
X33782D01*
X33826Y18701D01*
X33884D01*
X34030Y18693D01*
D02*
G37*
G36*
X35991Y15231D02*
X36057Y15202D01*
X36108Y15158D01*
X36137Y15107D01*
X36159Y15063D01*
X36166Y15019D01*
X36173Y14990D01*
Y14976D01*
Y14772D01*
X36159Y14684D01*
X36129Y14618D01*
X36086Y14575D01*
X36042Y14538D01*
X35991Y14524D01*
X35947Y14516D01*
X35918Y14509D01*
X35903D01*
X35816Y14524D01*
X35750Y14553D01*
X35699Y14589D01*
X35670Y14640D01*
X35648Y14691D01*
X35641Y14728D01*
X35634Y14757D01*
Y14772D01*
Y14976D01*
X35648Y15063D01*
X35677Y15129D01*
X35721Y15180D01*
X35772Y15209D01*
X35816Y15231D01*
X35860Y15238D01*
X35889Y15245D01*
X35903D01*
X35991Y15231D01*
D02*
G37*
G36*
X4761Y18686D02*
X4826Y18657D01*
X4877Y18621D01*
X4906Y18570D01*
X4928Y18519D01*
X4936Y18482D01*
X4943Y18453D01*
Y18438D01*
Y14772D01*
X4928Y14684D01*
X4899Y14618D01*
X4855Y14575D01*
X4804Y14538D01*
X4753Y14524D01*
X4710Y14516D01*
X4680Y14509D01*
X4666D01*
X4615Y14516D01*
X4564Y14524D01*
X4527Y14546D01*
X4498Y14567D01*
X4454Y14604D01*
X4447Y14618D01*
X4440Y14626D01*
X3456Y16171D01*
X2472Y14640D01*
X2435Y14596D01*
X2399Y14567D01*
X2362Y14538D01*
X2326Y14524D01*
X2289Y14516D01*
X2260Y14509D01*
X2238D01*
X2151Y14524D01*
X2085Y14553D01*
X2034Y14589D01*
X2005Y14640D01*
X1983Y14691D01*
X1976Y14728D01*
X1969Y14757D01*
Y14772D01*
Y18438D01*
X1983Y18526D01*
X2012Y18591D01*
X2056Y18635D01*
X2107Y18664D01*
X2151Y18686D01*
X2194Y18693D01*
X2224Y18701D01*
X2238D01*
X2326Y18686D01*
X2391Y18657D01*
X2442Y18621D01*
X2472Y18570D01*
X2493Y18519D01*
X2501Y18482D01*
X2508Y18453D01*
Y18438D01*
Y15508D01*
X3208Y16718D01*
X3252Y16769D01*
X3288Y16805D01*
X3332Y16835D01*
X3368Y16849D01*
X3405Y16864D01*
X3434Y16871D01*
X3456D01*
X3507Y16864D01*
X3550Y16849D01*
X3631Y16791D01*
X3660Y16769D01*
X3682Y16740D01*
X3689Y16725D01*
X3696Y16718D01*
X4403Y15508D01*
Y18438D01*
X4418Y18526D01*
X4447Y18591D01*
X4491Y18635D01*
X4542Y18664D01*
X4586Y18686D01*
X4629Y18693D01*
X4659Y18701D01*
X4673D01*
X4761Y18686D01*
D02*
G37*
G36*
X10593D02*
X10658Y18657D01*
X10709Y18621D01*
X10738Y18570D01*
X10760Y18519D01*
X10768Y18482D01*
X10775Y18453D01*
Y18438D01*
Y14772D01*
X10760Y14684D01*
X10731Y14618D01*
X10687Y14575D01*
X10644Y14538D01*
X10593Y14524D01*
X10549Y14516D01*
X10520Y14509D01*
X10505D01*
X10418Y14524D01*
X10352Y14553D01*
X10301Y14589D01*
X10272Y14640D01*
X10250Y14691D01*
X10243Y14728D01*
X10235Y14757D01*
Y14772D01*
Y15734D01*
X9492D01*
X9397Y15741D01*
X9309Y15756D01*
X9229Y15777D01*
X9156Y15799D01*
X9025Y15872D01*
X8916Y15953D01*
X8836Y16033D01*
X8770Y16105D01*
X8755Y16127D01*
X8741Y16149D01*
X8726Y16164D01*
Y16171D01*
X8690Y16251D01*
X8661Y16324D01*
X8646Y16397D01*
X8632Y16463D01*
X8624Y16521D01*
X8617Y16572D01*
Y16601D01*
Y16609D01*
Y17826D01*
X8624Y17957D01*
X8653Y18081D01*
X8697Y18191D01*
X8741Y18278D01*
X8785Y18351D01*
X8828Y18409D01*
X8858Y18438D01*
X8865Y18453D01*
X8967Y18533D01*
X9069Y18599D01*
X9178Y18643D01*
X9273Y18672D01*
X9361Y18686D01*
X9433Y18693D01*
X9477Y18701D01*
X10505D01*
X10593Y18686D01*
D02*
G37*
G36*
X17285Y15231D02*
X17350Y15202D01*
X17401Y15158D01*
X17431Y15107D01*
X17452Y15063D01*
X17460Y15019D01*
X17467Y14990D01*
Y14976D01*
Y14772D01*
X17452Y14684D01*
X17423Y14618D01*
X17380Y14575D01*
X17336Y14538D01*
X17285Y14524D01*
X17241Y14516D01*
X17212Y14509D01*
X17197D01*
X17110Y14524D01*
X17044Y14553D01*
X16993Y14589D01*
X16964Y14640D01*
X16942Y14691D01*
X16935Y14728D01*
X16928Y14757D01*
Y14772D01*
Y14976D01*
X16942Y15063D01*
X16971Y15129D01*
X17015Y15180D01*
X17066Y15209D01*
X17110Y15231D01*
X17154Y15238D01*
X17183Y15245D01*
X17197D01*
X17285Y15231D01*
D02*
G37*
G36*
X7691Y18686D02*
X7757Y18657D01*
X7808Y18621D01*
X7837Y18570D01*
X7859Y18519D01*
X7866Y18482D01*
X7873Y18453D01*
Y18438D01*
Y16609D01*
X7866Y16477D01*
X7837Y16361D01*
X7793Y16251D01*
X7750Y16164D01*
X7698Y16091D01*
X7662Y16033D01*
X7633Y16003D01*
X7618Y15989D01*
X7516Y15901D01*
X7414Y15843D01*
X7305Y15799D01*
X7210Y15763D01*
X7123Y15748D01*
X7057Y15741D01*
X7006Y15734D01*
X6175D01*
X6087Y15748D01*
X6022Y15777D01*
X5971Y15814D01*
X5942Y15865D01*
X5920Y15916D01*
X5912Y15953D01*
X5905Y15982D01*
Y15996D01*
X5920Y16084D01*
X5949Y16149D01*
X5993Y16200D01*
X6044Y16229D01*
X6087Y16251D01*
X6131Y16259D01*
X6160Y16266D01*
X6991D01*
X7042Y16273D01*
X7086Y16281D01*
X7166Y16317D01*
X7195Y16339D01*
X7217Y16353D01*
X7225Y16361D01*
X7232Y16368D01*
X7268Y16404D01*
X7290Y16448D01*
X7319Y16521D01*
X7327Y16557D01*
X7334Y16587D01*
Y16601D01*
Y16609D01*
Y16951D01*
X6583D01*
X6488Y16959D01*
X6401Y16973D01*
X6321Y16995D01*
X6248Y17017D01*
X6117Y17090D01*
X6007Y17170D01*
X5927Y17250D01*
X5861Y17323D01*
X5847Y17345D01*
X5832Y17367D01*
X5818Y17381D01*
Y17389D01*
X5781Y17469D01*
X5752Y17542D01*
X5730Y17615D01*
X5716Y17680D01*
X5708Y17739D01*
X5701Y17789D01*
Y17819D01*
Y17826D01*
X5716Y17957D01*
X5745Y18081D01*
X5781Y18191D01*
X5832Y18278D01*
X5876Y18351D01*
X5920Y18409D01*
X5949Y18438D01*
X5956Y18453D01*
X6058Y18533D01*
X6160Y18599D01*
X6270Y18643D01*
X6364Y18672D01*
X6452Y18686D01*
X6525Y18693D01*
X6568Y18701D01*
X7604D01*
X7691Y18686D01*
D02*
G37*
G36*
X28883D02*
X28949Y18657D01*
X29000Y18621D01*
X29029Y18570D01*
X29051Y18519D01*
X29058Y18482D01*
X29065Y18453D01*
Y18438D01*
Y15996D01*
X29051Y15909D01*
X29022Y15843D01*
X28978Y15799D01*
X28934Y15763D01*
X28883Y15748D01*
X28839Y15741D01*
X28810Y15734D01*
X28796D01*
X28708Y15748D01*
X28643Y15777D01*
X28592Y15814D01*
X28562Y15865D01*
X28541Y15916D01*
X28533Y15953D01*
X28526Y15982D01*
Y15996D01*
Y18169D01*
X27782D01*
X27731Y18161D01*
X27688Y18154D01*
X27607Y18118D01*
X27578Y18103D01*
X27564Y18088D01*
X27549Y18081D01*
X27542Y18074D01*
X27513Y18030D01*
X27491Y17994D01*
X27462Y17913D01*
X27454Y17877D01*
X27447Y17848D01*
Y17833D01*
Y17826D01*
Y15996D01*
X27433Y15909D01*
X27403Y15843D01*
X27360Y15799D01*
X27316Y15763D01*
X27265Y15748D01*
X27221Y15741D01*
X27192Y15734D01*
X27177D01*
X27090Y15748D01*
X27024Y15777D01*
X26973Y15814D01*
X26944Y15865D01*
X26922Y15916D01*
X26915Y15953D01*
X26908Y15982D01*
Y15996D01*
Y17826D01*
X26915Y17957D01*
X26944Y18081D01*
X26988Y18191D01*
X27031Y18278D01*
X27075Y18351D01*
X27119Y18409D01*
X27148Y18438D01*
X27156Y18453D01*
X27257Y18533D01*
X27360Y18599D01*
X27469Y18643D01*
X27564Y18672D01*
X27651Y18686D01*
X27724Y18693D01*
X27768Y18701D01*
X28796D01*
X28883Y18686D01*
D02*
G37*
G36*
X31121Y18693D02*
X31252Y18679D01*
X31369Y18650D01*
X31471Y18621D01*
X31544Y18591D01*
X31602Y18562D01*
X31639Y18548D01*
X31653Y18540D01*
X31712Y18497D01*
X31763Y18453D01*
X31836Y18358D01*
X31894Y18256D01*
X31938Y18154D01*
X31960Y18067D01*
X31967Y17994D01*
X31974Y17965D01*
Y17943D01*
Y17935D01*
Y17928D01*
X31967Y17841D01*
X31952Y17760D01*
X31930Y17687D01*
X31909Y17615D01*
X31836Y17498D01*
X31755Y17403D01*
X31668Y17330D01*
X31602Y17279D01*
X31573Y17257D01*
X31551Y17243D01*
X31537Y17235D01*
X31530D01*
X30480Y16725D01*
X30436Y16696D01*
X30407Y16660D01*
X30378Y16630D01*
X30363Y16594D01*
X30356Y16557D01*
X30349Y16528D01*
Y16514D01*
Y16507D01*
X30356Y16463D01*
X30370Y16426D01*
X30392Y16397D01*
X30414Y16368D01*
X30487Y16324D01*
X30567Y16295D01*
X30647Y16281D01*
X30720Y16266D01*
X30786D01*
X30902Y16273D01*
X31005Y16288D01*
X31099Y16310D01*
X31179Y16339D01*
X31245Y16368D01*
X31296Y16390D01*
X31333Y16404D01*
X31340Y16412D01*
X31405Y16448D01*
X31457Y16463D01*
X31486Y16470D01*
X31500D01*
X31537Y16463D01*
X31573Y16455D01*
X31639Y16426D01*
X31675Y16404D01*
X31690Y16390D01*
X31719Y16361D01*
X31734Y16324D01*
X31763Y16266D01*
X31770Y16215D01*
Y16208D01*
Y16200D01*
X31763Y16149D01*
X31748Y16105D01*
X31704Y16033D01*
X31675Y16011D01*
X31653Y15989D01*
X31639Y15982D01*
X31631Y15974D01*
X31486Y15894D01*
X31340Y15836D01*
X31201Y15792D01*
X31070Y15763D01*
X30953Y15748D01*
X30910Y15741D01*
X30866Y15734D01*
X30786D01*
X30647Y15741D01*
X30516Y15763D01*
X30407Y15792D01*
X30312Y15821D01*
X30232Y15858D01*
X30181Y15887D01*
X30144Y15909D01*
X30130Y15916D01*
X30071Y15953D01*
X30028Y15996D01*
X29948Y16091D01*
X29889Y16193D01*
X29853Y16288D01*
X29824Y16375D01*
X29816Y16441D01*
X29809Y16470D01*
Y16492D01*
Y16499D01*
Y16507D01*
X29816Y16594D01*
X29831Y16674D01*
X29853Y16754D01*
X29882Y16820D01*
X29948Y16944D01*
X30035Y17039D01*
X30115Y17112D01*
X30188Y17163D01*
X30210Y17185D01*
X30232Y17199D01*
X30246Y17206D01*
X30254D01*
X31304Y17709D01*
X31347Y17739D01*
X31376Y17768D01*
X31405Y17804D01*
X31420Y17841D01*
X31427Y17877D01*
X31435Y17906D01*
Y17921D01*
Y17928D01*
X31427Y17972D01*
X31413Y18008D01*
X31391Y18037D01*
X31362Y18067D01*
X31289Y18110D01*
X31209Y18139D01*
X31128Y18154D01*
X31056Y18161D01*
X31026Y18169D01*
X30983D01*
X30793Y18161D01*
X30713Y18147D01*
X30633Y18132D01*
X30567Y18125D01*
X30516Y18110D01*
X30487Y18103D01*
X30472D01*
X30400Y18074D01*
X30341Y18052D01*
X30283Y18030D01*
X30239Y18015D01*
X30203Y18001D01*
X30181Y17986D01*
X30166Y17979D01*
X30159D01*
X30137Y17972D01*
X30042D01*
X30006Y17986D01*
X29940Y18008D01*
X29904Y18037D01*
X29897Y18045D01*
X29889Y18052D01*
X29860Y18081D01*
X29845Y18110D01*
X29816Y18169D01*
X29809Y18212D01*
Y18220D01*
Y18227D01*
X29816Y18285D01*
X29831Y18329D01*
X29853Y18373D01*
X29882Y18409D01*
X29911Y18431D01*
X29933Y18453D01*
X29948Y18460D01*
X29955Y18467D01*
X30115Y18548D01*
X30290Y18599D01*
X30458Y18643D01*
X30618Y18672D01*
X30764Y18686D01*
X30822Y18693D01*
X30873D01*
X30917Y18701D01*
X30975D01*
X31121Y18693D01*
D02*
G37*
G36*
X13509Y18686D02*
X13574Y18657D01*
X13625Y18613D01*
X13654Y18562D01*
X13676Y18519D01*
X13683Y18475D01*
X13691Y18446D01*
Y18431D01*
X13676Y18344D01*
X13647Y18278D01*
X13603Y18234D01*
X13560Y18198D01*
X13509Y18183D01*
X13465Y18176D01*
X13436Y18169D01*
X12400D01*
X12349Y18161D01*
X12306Y18154D01*
X12225Y18118D01*
X12196Y18103D01*
X12182Y18088D01*
X12167Y18081D01*
X12160Y18074D01*
X12131Y18030D01*
X12109Y17994D01*
X12080Y17913D01*
X12072Y17877D01*
X12065Y17848D01*
Y17833D01*
Y17826D01*
Y17483D01*
X13691D01*
Y16813D01*
Y16733D01*
X13676Y16652D01*
X13640Y16499D01*
X13589Y16368D01*
X13538Y16259D01*
X13479Y16171D01*
X13428Y16105D01*
X13392Y16062D01*
X13385Y16047D01*
X13377D01*
X13319Y15989D01*
X13253Y15945D01*
X13122Y15865D01*
X12998Y15807D01*
X12874Y15770D01*
X12765Y15748D01*
X12685Y15741D01*
X12648Y15734D01*
X12524D01*
X12444Y15748D01*
X12291Y15785D01*
X12167Y15836D01*
X12051Y15894D01*
X11963Y15953D01*
X11897Y16003D01*
X11854Y16040D01*
X11846Y16047D01*
X11839Y16055D01*
X11781Y16113D01*
X11737Y16179D01*
X11657Y16302D01*
X11606Y16434D01*
X11562Y16550D01*
X11540Y16652D01*
X11533Y16740D01*
X11526Y16769D01*
Y16791D01*
Y16805D01*
Y16813D01*
Y17826D01*
X11533Y17957D01*
X11562Y18081D01*
X11606Y18191D01*
X11650Y18278D01*
X11693Y18351D01*
X11737Y18409D01*
X11766Y18438D01*
X11774Y18453D01*
X11876Y18533D01*
X11978Y18599D01*
X12087Y18643D01*
X12182Y18672D01*
X12269Y18686D01*
X12342Y18693D01*
X12386Y18701D01*
X13421D01*
X13509Y18686D01*
D02*
G37*
G36*
X17285D02*
X17350Y18657D01*
X17401Y18621D01*
X17431Y18570D01*
X17452Y18519D01*
X17460Y18482D01*
X17467Y18453D01*
Y18438D01*
Y15996D01*
X17452Y15909D01*
X17423Y15843D01*
X17380Y15799D01*
X17336Y15763D01*
X17285Y15748D01*
X17241Y15741D01*
X17212Y15734D01*
X17197D01*
X17110Y15748D01*
X17044Y15777D01*
X16993Y15814D01*
X16964Y15865D01*
X16942Y15916D01*
X16935Y15953D01*
X16928Y15982D01*
Y15996D01*
Y18438D01*
X16942Y18526D01*
X16971Y18591D01*
X17015Y18635D01*
X17066Y18664D01*
X17110Y18686D01*
X17154Y18693D01*
X17183Y18701D01*
X17197D01*
X17285Y18686D01*
D02*
G37*
G36*
X8947Y13743D02*
X9111Y13670D01*
X9238Y13579D01*
X9311Y13452D01*
X9366Y13324D01*
X9384Y13233D01*
X9402Y13160D01*
Y13124D01*
Y13051D01*
X9384Y12978D01*
X9366Y12923D01*
Y12905D01*
X6323Y3813D01*
X6250Y3649D01*
X6159Y3522D01*
X6050Y3431D01*
X5940Y3358D01*
X5831Y3321D01*
X5740Y3303D01*
X5667D01*
X5503Y3321D01*
X5357Y3376D01*
X5248Y3467D01*
X5157Y3558D01*
X5084Y3649D01*
X5048Y3740D01*
X5011Y3795D01*
Y3813D01*
X1987Y12905D01*
X1950Y13051D01*
Y13105D01*
Y13124D01*
X1987Y13342D01*
X2060Y13506D01*
X2169Y13615D01*
X2296Y13688D01*
X2406Y13743D01*
X2515Y13761D01*
X2588Y13780D01*
X2624D01*
X2788Y13761D01*
X2934Y13707D01*
X3043Y13634D01*
X3135Y13543D01*
X3189Y13470D01*
X3226Y13397D01*
X3262Y13342D01*
Y13324D01*
X3954Y11247D01*
X7380D01*
X8072Y13324D01*
X8145Y13470D01*
X8236Y13579D01*
X8345Y13670D01*
X8455Y13725D01*
X8564Y13761D01*
X8655Y13780D01*
X8728D01*
X8947Y13743D01*
D02*
G37*
G36*
X230329Y314946D02*
X230395Y314917D01*
X230446Y314873D01*
X230475Y314822D01*
X230497Y314778D01*
X230504Y314735D01*
X230512Y314705D01*
Y314691D01*
X230497Y314603D01*
X230468Y314538D01*
X230424Y314494D01*
X230380Y314458D01*
X230329Y314443D01*
X230286Y314436D01*
X230256Y314428D01*
X230242D01*
X228886D01*
Y311031D01*
X228871Y310944D01*
X228842Y310878D01*
X228798Y310835D01*
X228755Y310798D01*
X228704Y310784D01*
X228660Y310776D01*
X228631Y310769D01*
X228616D01*
X228529Y310784D01*
X228463Y310813D01*
X228412Y310849D01*
X228383Y310900D01*
X228361Y310951D01*
X228354Y310988D01*
X228346Y311017D01*
Y311031D01*
Y314698D01*
X228361Y314786D01*
X228390Y314851D01*
X228434Y314895D01*
X228485Y314924D01*
X228529Y314946D01*
X228572Y314953D01*
X228602Y314961D01*
X228616D01*
X230242D01*
X230329Y314946D01*
D02*
G37*
G36*
X31180Y192877D02*
X31344Y192804D01*
X31471Y192713D01*
X31544Y192585D01*
X31599Y192458D01*
X31617Y192367D01*
X31635Y192294D01*
Y192257D01*
Y187156D01*
X31599Y186937D01*
X31526Y186773D01*
X31416Y186664D01*
X31307Y186573D01*
X31180Y186536D01*
X31070Y186518D01*
X30997Y186500D01*
X30961D01*
X29430D01*
X29212Y186536D01*
X29048Y186609D01*
X28920Y186700D01*
X28848Y186828D01*
X28793Y186955D01*
X28775Y187047D01*
X28756Y187119D01*
Y187156D01*
X28793Y187374D01*
X28866Y187539D01*
X28975Y187666D01*
X29103Y187739D01*
X29212Y187794D01*
X29321Y187812D01*
X29394Y187830D01*
X29430D01*
X30287D01*
Y191583D01*
X27918D01*
X27718Y191565D01*
X27536Y191529D01*
X27372Y191456D01*
X27226Y191383D01*
X27117Y191328D01*
X27025Y191255D01*
X26971Y191219D01*
X26953Y191201D01*
X26825Y191037D01*
X26734Y190873D01*
X26661Y190709D01*
X26625Y190563D01*
X26588Y190417D01*
X26570Y190308D01*
Y190235D01*
Y190217D01*
Y185133D01*
X26588Y184933D01*
X26625Y184751D01*
X26697Y184587D01*
X26770Y184441D01*
X26825Y184332D01*
X26898Y184241D01*
X26934Y184186D01*
X26953Y184168D01*
X27117Y184040D01*
X27281Y183931D01*
X27426Y183858D01*
X27590Y183822D01*
X27718Y183785D01*
X27827Y183767D01*
X27900D01*
X27918D01*
X30961D01*
X31180Y183730D01*
X31344Y183658D01*
X31471Y183548D01*
X31544Y183421D01*
X31599Y183311D01*
X31617Y183202D01*
X31635Y183129D01*
Y183093D01*
X31599Y182874D01*
X31526Y182710D01*
X31416Y182601D01*
X31307Y182510D01*
X31180Y182473D01*
X31070Y182455D01*
X30997Y182437D01*
X30961D01*
X27918D01*
X27718D01*
X27517Y182473D01*
X27135Y182564D01*
X26825Y182692D01*
X26533Y182838D01*
X26315Y182984D01*
X26151Y183111D01*
X26042Y183202D01*
X26023Y183220D01*
X26005Y183239D01*
X25859Y183384D01*
X25750Y183548D01*
X25550Y183858D01*
X25422Y184186D01*
X25313Y184477D01*
X25258Y184733D01*
X25240Y184951D01*
X25222Y185024D01*
Y185079D01*
Y185115D01*
Y185133D01*
Y190217D01*
X25240Y190417D01*
X25258Y190618D01*
X25349Y191000D01*
X25477Y191310D01*
X25622Y191602D01*
X25750Y191820D01*
X25878Y191984D01*
X25969Y192094D01*
X26005Y192112D01*
Y192130D01*
X26151Y192276D01*
X26315Y192385D01*
X26643Y192585D01*
X26953Y192713D01*
X27262Y192822D01*
X27517Y192877D01*
X27736Y192895D01*
X27809Y192913D01*
X27864D01*
X27900D01*
X27918D01*
X30961D01*
X31180Y192877D01*
D02*
G37*
G36*
X203558Y314216D02*
X203624Y314187D01*
X203675Y314151D01*
X203704Y314100D01*
X203726Y314049D01*
X203733Y314012D01*
X203740Y313983D01*
Y313969D01*
Y310302D01*
X203726Y310214D01*
X203696Y310149D01*
X203653Y310105D01*
X203602Y310076D01*
X203558Y310054D01*
X203514Y310047D01*
X203485Y310039D01*
X203470D01*
X203383Y310054D01*
X203317Y310083D01*
X203266Y310120D01*
X203237Y310171D01*
X203215Y310222D01*
X203208Y310258D01*
X203201Y310287D01*
Y310302D01*
Y313116D01*
X201692Y310171D01*
X201655Y310127D01*
X201619Y310098D01*
X201582Y310068D01*
X201539Y310054D01*
X201509Y310047D01*
X201480Y310039D01*
X201451D01*
X201356Y310054D01*
X201291Y310083D01*
X201240Y310120D01*
X201210Y310171D01*
X201189Y310222D01*
X201181Y310258D01*
X201174Y310287D01*
Y310302D01*
Y313969D01*
X201189Y314056D01*
X201218Y314122D01*
X201262Y314165D01*
X201305Y314202D01*
X201356Y314216D01*
X201400Y314224D01*
X201429Y314231D01*
X201444D01*
X201531Y314216D01*
X201597Y314187D01*
X201648Y314151D01*
X201677Y314100D01*
X201699Y314049D01*
X201706Y314012D01*
X201713Y313983D01*
Y313969D01*
Y311155D01*
X203215Y314049D01*
X203252Y314107D01*
X203295Y314151D01*
X203339Y314187D01*
X203376Y314209D01*
X203412Y314224D01*
X203441Y314231D01*
X203470D01*
X203558Y314216D01*
D02*
G37*
G36*
X176196Y313962D02*
X176261Y313933D01*
X176312Y313889D01*
X176341Y313838D01*
X176363Y313794D01*
X176370Y313750D01*
X176378Y313721D01*
Y313707D01*
X176363Y313619D01*
X176334Y313554D01*
X176290Y313510D01*
X176247Y313473D01*
X176196Y313459D01*
X176152Y313452D01*
X176123Y313444D01*
X176108D01*
X174752D01*
Y310047D01*
X174738Y309960D01*
X174708Y309894D01*
X174665Y309850D01*
X174621Y309814D01*
X174570Y309799D01*
X174526Y309792D01*
X174497Y309785D01*
X174482D01*
X174395Y309799D01*
X174329Y309828D01*
X174278Y309865D01*
X174249Y309916D01*
X174227Y309967D01*
X174220Y310003D01*
X174213Y310033D01*
Y310047D01*
Y313714D01*
X174227Y313801D01*
X174256Y313867D01*
X174300Y313911D01*
X174351Y313940D01*
X174395Y313962D01*
X174439Y313969D01*
X174468Y313976D01*
X174482D01*
X176108D01*
X176196Y313962D01*
D02*
G37*
G36*
X39488Y192877D02*
X39652Y192804D01*
X39779Y192713D01*
X39852Y192585D01*
X39907Y192458D01*
X39925Y192367D01*
X39944Y192294D01*
Y192257D01*
Y183093D01*
X39907Y182874D01*
X39834Y182710D01*
X39725Y182601D01*
X39615Y182510D01*
X39488Y182473D01*
X39379Y182455D01*
X39306Y182437D01*
X39269D01*
X39051Y182473D01*
X38887Y182546D01*
X38759Y182637D01*
X38686Y182765D01*
X38632Y182892D01*
X38613Y182984D01*
X38595Y183056D01*
Y183093D01*
Y186500D01*
X34878D01*
Y183093D01*
X34842Y182874D01*
X34769Y182710D01*
X34660Y182601D01*
X34550Y182510D01*
X34423Y182473D01*
X34313Y182455D01*
X34241Y182437D01*
X34204D01*
X33985Y182473D01*
X33821Y182546D01*
X33694Y182637D01*
X33621Y182765D01*
X33566Y182892D01*
X33548Y182984D01*
X33530Y183056D01*
Y183093D01*
Y192257D01*
X33566Y192476D01*
X33639Y192640D01*
X33749Y192749D01*
X33876Y192822D01*
X33985Y192877D01*
X34095Y192895D01*
X34168Y192913D01*
X34204D01*
X34423Y192877D01*
X34587Y192804D01*
X34714Y192713D01*
X34787Y192585D01*
X34842Y192458D01*
X34860Y192367D01*
X34878Y192294D01*
Y192257D01*
Y187830D01*
X38595D01*
Y192257D01*
X38632Y192476D01*
X38704Y192640D01*
X38814Y192749D01*
X38941Y192822D01*
X39051Y192877D01*
X39160Y192895D01*
X39233Y192913D01*
X39269D01*
X39488Y192877D01*
D02*
G37*
G36*
X88281D02*
X88445Y192804D01*
X88573Y192713D01*
X88645Y192585D01*
X88700Y192458D01*
X88718Y192367D01*
X88737Y192294D01*
Y192257D01*
Y192185D01*
X88718Y192112D01*
X88700Y192057D01*
Y192039D01*
X85657Y182947D01*
X85585Y182783D01*
X85493Y182656D01*
X85384Y182564D01*
X85275Y182492D01*
X85166Y182455D01*
X85074Y182437D01*
X85020D01*
X85001D01*
X84838Y182455D01*
X84692Y182510D01*
X84582Y182601D01*
X84491Y182692D01*
X84418Y182783D01*
X84382Y182874D01*
X84346Y182929D01*
Y182947D01*
X81321Y192039D01*
X81285Y192185D01*
Y192239D01*
Y192257D01*
X81321Y192476D01*
X81394Y192640D01*
X81503Y192749D01*
X81631Y192822D01*
X81740Y192877D01*
X81849Y192895D01*
X81922Y192913D01*
X81959D01*
X82123Y192895D01*
X82269Y192841D01*
X82378Y192768D01*
X82469Y192676D01*
X82524Y192604D01*
X82560Y192531D01*
X82596Y192476D01*
Y192458D01*
X83289Y190381D01*
X86714D01*
X87407Y192458D01*
X87479Y192604D01*
X87571Y192713D01*
X87680Y192804D01*
X87789Y192859D01*
X87898Y192895D01*
X87990Y192913D01*
X88044D01*
X88063D01*
X88281Y192877D01*
D02*
G37*
G36*
X96608D02*
X96772Y192804D01*
X96899Y192713D01*
X96972Y192585D01*
X97027Y192458D01*
X97045Y192367D01*
X97063Y192294D01*
Y192257D01*
Y187156D01*
X97027Y186937D01*
X96954Y186773D01*
X96845Y186664D01*
X96735Y186573D01*
X96608Y186536D01*
X96498Y186518D01*
X96425Y186500D01*
X96389D01*
X94858D01*
X94640Y186536D01*
X94476Y186609D01*
X94348Y186700D01*
X94275Y186828D01*
X94221Y186955D01*
X94203Y187047D01*
X94184Y187119D01*
Y187156D01*
X94221Y187374D01*
X94294Y187539D01*
X94403Y187666D01*
X94531Y187739D01*
X94640Y187794D01*
X94749Y187812D01*
X94822Y187830D01*
X94858D01*
X95715D01*
Y191583D01*
X93346D01*
X93146Y191565D01*
X92964Y191529D01*
X92800Y191456D01*
X92654Y191383D01*
X92545Y191328D01*
X92453Y191255D01*
X92399Y191219D01*
X92381Y191201D01*
X92253Y191037D01*
X92162Y190873D01*
X92089Y190709D01*
X92053Y190563D01*
X92016Y190417D01*
X91998Y190308D01*
Y190235D01*
Y190217D01*
Y185133D01*
X92016Y184933D01*
X92053Y184751D01*
X92125Y184587D01*
X92198Y184441D01*
X92253Y184332D01*
X92326Y184241D01*
X92362Y184186D01*
X92381Y184168D01*
X92545Y184040D01*
X92709Y183931D01*
X92854Y183858D01*
X93018Y183822D01*
X93146Y183785D01*
X93255Y183767D01*
X93328D01*
X93346D01*
X96389D01*
X96608Y183730D01*
X96772Y183658D01*
X96899Y183548D01*
X96972Y183421D01*
X97027Y183311D01*
X97045Y183202D01*
X97063Y183129D01*
Y183093D01*
X97027Y182874D01*
X96954Y182710D01*
X96845Y182601D01*
X96735Y182510D01*
X96608Y182473D01*
X96498Y182455D01*
X96425Y182437D01*
X96389D01*
X93346D01*
X93146D01*
X92945Y182473D01*
X92563Y182564D01*
X92253Y182692D01*
X91961Y182838D01*
X91743Y182984D01*
X91579Y183111D01*
X91470Y183202D01*
X91451Y183220D01*
X91433Y183239D01*
X91287Y183384D01*
X91178Y183548D01*
X90978Y183858D01*
X90850Y184186D01*
X90741Y184477D01*
X90686Y184733D01*
X90668Y184951D01*
X90650Y185024D01*
Y185079D01*
Y185115D01*
Y185133D01*
Y190217D01*
X90668Y190417D01*
X90686Y190618D01*
X90777Y191000D01*
X90905Y191310D01*
X91050Y191602D01*
X91178Y191820D01*
X91306Y191984D01*
X91397Y192094D01*
X91433Y192112D01*
Y192130D01*
X91579Y192276D01*
X91743Y192385D01*
X92071Y192585D01*
X92381Y192713D01*
X92690Y192822D01*
X92945Y192877D01*
X93164Y192895D01*
X93237Y192913D01*
X93292D01*
X93328D01*
X93346D01*
X96389D01*
X96608Y192877D01*
D02*
G37*
G36*
X19737D02*
X19901Y192804D01*
X20029Y192713D01*
X20102Y192585D01*
X20156Y192458D01*
X20175Y192367D01*
X20193Y192294D01*
Y192257D01*
Y183093D01*
X20156Y182874D01*
X20084Y182710D01*
X19974Y182601D01*
X19865Y182510D01*
X19737Y182473D01*
X19628Y182455D01*
X19555Y182437D01*
X19519D01*
X19300Y182473D01*
X19136Y182546D01*
X19009Y182637D01*
X18936Y182765D01*
X18881Y182892D01*
X18863Y182984D01*
X18845Y183056D01*
Y183093D01*
Y186500D01*
X15128D01*
Y183093D01*
X15091Y182874D01*
X15019Y182710D01*
X14909Y182601D01*
X14800Y182510D01*
X14672Y182473D01*
X14563Y182455D01*
X14490Y182437D01*
X14454D01*
X14235Y182473D01*
X14071Y182546D01*
X13943Y182637D01*
X13871Y182765D01*
X13816Y182892D01*
X13798Y182984D01*
X13780Y183056D01*
Y183093D01*
Y192257D01*
X13816Y192476D01*
X13889Y192640D01*
X13998Y192749D01*
X14126Y192822D01*
X14235Y192877D01*
X14344Y192895D01*
X14417Y192913D01*
X14454D01*
X14672Y192877D01*
X14836Y192804D01*
X14964Y192713D01*
X15037Y192585D01*
X15091Y192458D01*
X15110Y192367D01*
X15128Y192294D01*
Y192257D01*
Y187830D01*
X18845D01*
Y192257D01*
X18881Y192476D01*
X18954Y192640D01*
X19063Y192749D01*
X19191Y192822D01*
X19300Y192877D01*
X19410Y192895D01*
X19482Y192913D01*
X19519D01*
X19737Y192877D01*
D02*
G37*
G36*
X103914D02*
X104078Y192804D01*
X104205Y192695D01*
X104278Y192567D01*
X104333Y192458D01*
X104351Y192349D01*
X104369Y192276D01*
Y192239D01*
X104333Y192021D01*
X104260Y191857D01*
X104151Y191747D01*
X104041Y191656D01*
X103914Y191620D01*
X103805Y191602D01*
X103732Y191583D01*
X103695D01*
X100306D01*
Y187830D01*
X102675D01*
X102894Y187794D01*
X103058Y187721D01*
X103185Y187611D01*
X103258Y187484D01*
X103313Y187374D01*
X103331Y187265D01*
X103349Y187192D01*
Y187156D01*
X103313Y186937D01*
X103240Y186773D01*
X103130Y186664D01*
X103021Y186573D01*
X102894Y186536D01*
X102784Y186518D01*
X102711Y186500D01*
X102675D01*
X100306D01*
Y183767D01*
X103695D01*
X103914Y183730D01*
X104078Y183658D01*
X104205Y183548D01*
X104278Y183421D01*
X104333Y183311D01*
X104351Y183202D01*
X104369Y183129D01*
Y183093D01*
X104333Y182874D01*
X104260Y182710D01*
X104151Y182601D01*
X104041Y182510D01*
X103914Y182473D01*
X103805Y182455D01*
X103732Y182437D01*
X103695D01*
X99632D01*
X99414Y182473D01*
X99250Y182546D01*
X99122Y182637D01*
X99049Y182765D01*
X98994Y182892D01*
X98976Y182984D01*
X98958Y183056D01*
Y183093D01*
Y192257D01*
X98994Y192476D01*
X99067Y192640D01*
X99177Y192749D01*
X99304Y192822D01*
X99414Y192877D01*
X99523Y192895D01*
X99596Y192913D01*
X99632D01*
X103695D01*
X103914Y192877D01*
D02*
G37*
G36*
X60860Y192895D02*
X61097Y192877D01*
X61534Y192768D01*
X61917Y192622D01*
X62245Y192440D01*
X62518Y192276D01*
X62627Y192203D01*
X62718Y192130D01*
X62791Y192075D01*
X62846Y192021D01*
X62864Y192002D01*
X62882Y191984D01*
X63046Y191802D01*
X63192Y191620D01*
X63320Y191419D01*
X63429Y191219D01*
X63593Y190855D01*
X63721Y190490D01*
X63775Y190180D01*
X63793Y190035D01*
X63812Y189925D01*
X63830Y189834D01*
Y189761D01*
Y189725D01*
Y189707D01*
Y185644D01*
X63812Y185407D01*
X63793Y185170D01*
X63684Y184733D01*
X63538Y184350D01*
X63356Y184022D01*
X63174Y183749D01*
X63101Y183639D01*
X63028Y183548D01*
X62973Y183475D01*
X62919Y183421D01*
X62901Y183403D01*
X62882Y183384D01*
X62700Y183220D01*
X62518Y183075D01*
X62336Y182947D01*
X62135Y182838D01*
X61753Y182674D01*
X61407Y182546D01*
X61097Y182492D01*
X60969Y182473D01*
X60842Y182455D01*
X60751Y182437D01*
X60678D01*
X60641D01*
X60623D01*
X60368Y182455D01*
X60131Y182473D01*
X59694Y182583D01*
X59311Y182728D01*
X58983Y182911D01*
X58710Y183093D01*
X58601Y183166D01*
X58510Y183239D01*
X58437Y183293D01*
X58382Y183348D01*
X58364Y183366D01*
X58346Y183384D01*
X58182Y183566D01*
X58036Y183749D01*
X57908Y183931D01*
X57817Y184131D01*
X57635Y184514D01*
X57526Y184860D01*
X57471Y185170D01*
X57453Y185297D01*
X57435Y185425D01*
X57416Y185516D01*
Y185589D01*
Y185625D01*
Y185644D01*
Y189707D01*
X57435Y189944D01*
X57453Y190180D01*
X57562Y190618D01*
X57708Y191018D01*
X57890Y191347D01*
X58054Y191620D01*
X58127Y191729D01*
X58200Y191820D01*
X58254Y191893D01*
X58309Y191948D01*
X58327Y191966D01*
X58346Y191984D01*
X58528Y192148D01*
X58710Y192294D01*
X58911Y192421D01*
X59093Y192513D01*
X59475Y192695D01*
X59840Y192804D01*
X60149Y192859D01*
X60277Y192877D01*
X60404Y192895D01*
X60496Y192913D01*
X60568D01*
X60605D01*
X60623D01*
X60860Y192895D01*
D02*
G37*
G36*
X125014Y312978D02*
X125080Y312948D01*
X125131Y312905D01*
X125160Y312854D01*
X125182Y312810D01*
X125189Y312766D01*
X125197Y312737D01*
Y312722D01*
X125182Y312635D01*
X125153Y312569D01*
X125109Y312526D01*
X125065Y312489D01*
X125014Y312474D01*
X124971Y312467D01*
X124942Y312460D01*
X124927D01*
X123571D01*
Y309063D01*
X123556Y308975D01*
X123527Y308910D01*
X123484Y308866D01*
X123440Y308829D01*
X123389Y308815D01*
X123345Y308808D01*
X123316Y308800D01*
X123301D01*
X123214Y308815D01*
X123148Y308844D01*
X123097Y308881D01*
X123068Y308932D01*
X123046Y308983D01*
X123039Y309019D01*
X123031Y309048D01*
Y309063D01*
Y312730D01*
X123046Y312817D01*
X123075Y312883D01*
X123119Y312927D01*
X123170Y312956D01*
X123214Y312978D01*
X123258Y312985D01*
X123287Y312992D01*
X123301D01*
X124927D01*
X125014Y312978D01*
D02*
G37*
G36*
X22981Y192877D02*
X23145Y192804D01*
X23272Y192713D01*
X23345Y192585D01*
X23400Y192458D01*
X23418Y192367D01*
X23436Y192294D01*
Y192257D01*
Y183093D01*
X23400Y182874D01*
X23327Y182710D01*
X23217Y182601D01*
X23108Y182510D01*
X22981Y182473D01*
X22871Y182455D01*
X22798Y182437D01*
X22762D01*
X22543Y182473D01*
X22379Y182546D01*
X22252Y182637D01*
X22179Y182765D01*
X22124Y182892D01*
X22106Y182984D01*
X22088Y183056D01*
Y183093D01*
Y192257D01*
X22124Y192476D01*
X22197Y192640D01*
X22307Y192749D01*
X22434Y192822D01*
X22543Y192877D01*
X22653Y192895D01*
X22726Y192913D01*
X22762D01*
X22981Y192877D01*
D02*
G37*
G36*
X51932Y192895D02*
X52078Y192841D01*
X52187Y192749D01*
X52278Y192658D01*
X52351Y192585D01*
X52388Y192494D01*
X52424Y192440D01*
Y192421D01*
X55467Y183311D01*
X55503Y183166D01*
Y183111D01*
Y183093D01*
X55467Y182874D01*
X55394Y182710D01*
X55285Y182601D01*
X55175Y182510D01*
X55048Y182473D01*
X54939Y182455D01*
X54866Y182437D01*
X54829D01*
X54665Y182455D01*
X54519Y182510D01*
X54410Y182583D01*
X54319Y182656D01*
X54246Y182747D01*
X54210Y182819D01*
X54173Y182874D01*
Y182892D01*
X51768Y190472D01*
X49363Y182892D01*
X49290Y182747D01*
X49199Y182637D01*
X49090Y182546D01*
X48999Y182492D01*
X48889Y182455D01*
X48798Y182437D01*
X48744D01*
X48726D01*
X48507Y182473D01*
X48343Y182546D01*
X48215Y182637D01*
X48142Y182765D01*
X48088Y182892D01*
X48070Y182984D01*
X48051Y183056D01*
Y183093D01*
Y183184D01*
X48070Y183257D01*
X48088Y183293D01*
Y183311D01*
X51112Y192421D01*
X51185Y192585D01*
X51294Y192713D01*
X51404Y192786D01*
X51513Y192859D01*
X51604Y192895D01*
X51695Y192913D01*
X51750D01*
X51768D01*
X51932Y192895D01*
D02*
G37*
G36*
X70681Y192877D02*
X70845Y192804D01*
X70972Y192695D01*
X71045Y192567D01*
X71100Y192458D01*
X71118Y192349D01*
X71136Y192276D01*
Y192239D01*
X71100Y192021D01*
X71027Y191857D01*
X70917Y191747D01*
X70808Y191656D01*
X70681Y191620D01*
X70571Y191602D01*
X70498Y191583D01*
X70462D01*
X67073D01*
Y183093D01*
X67037Y182874D01*
X66964Y182710D01*
X66854Y182601D01*
X66745Y182510D01*
X66618Y182473D01*
X66508Y182455D01*
X66435Y182437D01*
X66399D01*
X66180Y182473D01*
X66016Y182546D01*
X65889Y182637D01*
X65816Y182765D01*
X65761Y182892D01*
X65743Y182984D01*
X65725Y183056D01*
Y183093D01*
Y192257D01*
X65761Y192476D01*
X65834Y192640D01*
X65943Y192749D01*
X66071Y192822D01*
X66180Y192877D01*
X66290Y192895D01*
X66363Y192913D01*
X66399D01*
X70462D01*
X70681Y192877D01*
D02*
G37*
G36*
X157298Y314216D02*
X157364Y314187D01*
X157415Y314151D01*
X157444Y314100D01*
X157466Y314049D01*
X157473Y314012D01*
X157480Y313983D01*
Y313969D01*
Y310302D01*
X157466Y310214D01*
X157437Y310149D01*
X157393Y310105D01*
X157342Y310076D01*
X157298Y310054D01*
X157254Y310047D01*
X157225Y310039D01*
X157211D01*
X157123Y310054D01*
X157057Y310083D01*
X157007Y310120D01*
X156977Y310171D01*
X156955Y310222D01*
X156948Y310258D01*
X156941Y310287D01*
Y310302D01*
Y313116D01*
X155432Y310171D01*
X155395Y310127D01*
X155359Y310098D01*
X155323Y310068D01*
X155279Y310054D01*
X155250Y310047D01*
X155220Y310039D01*
X155191D01*
X155096Y310054D01*
X155031Y310083D01*
X154980Y310120D01*
X154951Y310171D01*
X154929Y310222D01*
X154921Y310258D01*
X154914Y310287D01*
Y310302D01*
Y313969D01*
X154929Y314056D01*
X154958Y314122D01*
X155002Y314165D01*
X155045Y314202D01*
X155096Y314216D01*
X155140Y314224D01*
X155169Y314231D01*
X155184D01*
X155271Y314216D01*
X155337Y314187D01*
X155388Y314151D01*
X155417Y314100D01*
X155439Y314049D01*
X155446Y314012D01*
X155454Y313983D01*
Y313969D01*
Y311155D01*
X156955Y314049D01*
X156992Y314107D01*
X157036Y314151D01*
X157079Y314187D01*
X157116Y314209D01*
X157152Y314224D01*
X157181Y314231D01*
X157211D01*
X157298Y314216D01*
D02*
G37*
G36*
X105585Y312992D02*
X105672Y312978D01*
X105738Y312948D01*
X105789Y312912D01*
X105818Y312861D01*
X105840Y312810D01*
X105847Y312773D01*
X105854Y312744D01*
Y312730D01*
Y309916D01*
X107363Y312861D01*
X107400Y312905D01*
X107436Y312934D01*
X107473Y312963D01*
X107517Y312978D01*
X107546Y312985D01*
X107575Y312992D01*
X107597D01*
X107604D01*
X107699Y312978D01*
X107764Y312948D01*
X107815Y312912D01*
X107845Y312861D01*
X107867Y312810D01*
X107874Y312773D01*
X107881Y312744D01*
Y312730D01*
Y309063D01*
X107867Y308975D01*
X107837Y308910D01*
X107794Y308866D01*
X107750Y308829D01*
X107699Y308815D01*
X107655Y308808D01*
X107626Y308800D01*
X107611D01*
X107524Y308815D01*
X107458Y308844D01*
X107407Y308881D01*
X107378Y308932D01*
X107356Y308983D01*
X107349Y309019D01*
X107342Y309048D01*
Y309063D01*
Y311877D01*
X105840Y308983D01*
X105803Y308924D01*
X105760Y308881D01*
X105716Y308844D01*
X105680Y308822D01*
X105643Y308808D01*
X105614Y308800D01*
X105592D01*
X105585D01*
X105497Y308815D01*
X105432Y308844D01*
X105381Y308881D01*
X105351Y308932D01*
X105330Y308983D01*
X105322Y309019D01*
X105315Y309048D01*
Y309063D01*
Y312730D01*
X105330Y312817D01*
X105359Y312883D01*
X105402Y312927D01*
X105454Y312956D01*
X105497Y312978D01*
X105541Y312985D01*
X105570Y312992D01*
X105585D01*
D02*
G37*
G36*
X76420Y192877D02*
X76584Y192804D01*
X76711Y192713D01*
X76784Y192585D01*
X76839Y192458D01*
X76857Y192367D01*
X76875Y192294D01*
Y192257D01*
Y183767D01*
X78734D01*
X78952Y183730D01*
X79116Y183658D01*
X79244Y183548D01*
X79317Y183421D01*
X79372Y183311D01*
X79390Y183202D01*
X79408Y183129D01*
Y183093D01*
X79372Y182874D01*
X79299Y182710D01*
X79189Y182601D01*
X79080Y182510D01*
X78952Y182473D01*
X78843Y182455D01*
X78770Y182437D01*
X78734D01*
X73650D01*
X73432Y182473D01*
X73268Y182546D01*
X73140Y182637D01*
X73067Y182765D01*
X73013Y182892D01*
X72995Y182984D01*
X72976Y183056D01*
Y183093D01*
X73013Y183311D01*
X73086Y183475D01*
X73195Y183603D01*
X73322Y183676D01*
X73432Y183730D01*
X73541Y183749D01*
X73614Y183767D01*
X73650D01*
X75527D01*
Y192257D01*
X75564Y192476D01*
X75636Y192640D01*
X75746Y192749D01*
X75873Y192822D01*
X75983Y192877D01*
X76092Y192895D01*
X76165Y192913D01*
X76201D01*
X76420Y192877D01*
D02*
G37*
%LPC*%
G36*
X24917Y16543D02*
X24123D01*
Y15041D01*
X24866D01*
X24976Y15048D01*
X25078Y15078D01*
X25165Y15107D01*
X25245Y15151D01*
X25304Y15187D01*
X25355Y15224D01*
X25384Y15253D01*
X25391Y15260D01*
X25464Y15347D01*
X25515Y15435D01*
X25559Y15522D01*
X25581Y15610D01*
X25595Y15683D01*
X25610Y15741D01*
Y15777D01*
Y15785D01*
Y15792D01*
X25603Y15909D01*
X25574Y16011D01*
X25544Y16105D01*
X25501Y16179D01*
X25464Y16244D01*
X25428Y16295D01*
X25399Y16324D01*
X25391Y16331D01*
X25304Y16404D01*
X25216Y16455D01*
X25129Y16492D01*
X25049Y16514D01*
X24976Y16528D01*
X24917Y16543D01*
D02*
G37*
G36*
X38513Y18169D02*
X37762D01*
X37711Y18161D01*
X37668Y18154D01*
X37587Y18118D01*
X37558Y18103D01*
X37544Y18088D01*
X37529Y18081D01*
X37522Y18074D01*
X37485Y18030D01*
X37464Y17994D01*
X37434Y17913D01*
X37427Y17877D01*
X37420Y17848D01*
Y17833D01*
Y17826D01*
X37427Y17775D01*
X37434Y17731D01*
X37471Y17651D01*
X37493Y17622D01*
X37507Y17600D01*
X37514Y17593D01*
X37522Y17585D01*
X37558Y17549D01*
X37602Y17527D01*
X37682Y17498D01*
X37711Y17491D01*
X37740Y17483D01*
X38513D01*
Y18169D01*
D02*
G37*
G36*
X10235D02*
X9492D01*
X9441Y18161D01*
X9397Y18154D01*
X9317Y18118D01*
X9288Y18103D01*
X9273Y18088D01*
X9258Y18081D01*
X9251Y18074D01*
X9222Y18030D01*
X9200Y17994D01*
X9171Y17913D01*
X9164Y17877D01*
X9156Y17848D01*
Y17833D01*
Y17826D01*
Y16609D01*
X9164Y16557D01*
X9171Y16514D01*
X9207Y16434D01*
X9222Y16404D01*
X9237Y16383D01*
X9244Y16375D01*
X9251Y16368D01*
X9288Y16331D01*
X9331Y16310D01*
X9412Y16281D01*
X9441Y16273D01*
X9470Y16266D01*
X10235D01*
Y18169D01*
D02*
G37*
G36*
X7334D02*
X6583D01*
X6532Y18161D01*
X6488Y18154D01*
X6408Y18118D01*
X6379Y18103D01*
X6364Y18088D01*
X6350Y18081D01*
X6342Y18074D01*
X6306Y18030D01*
X6284Y17994D01*
X6255Y17913D01*
X6248Y17877D01*
X6240Y17848D01*
Y17833D01*
Y17826D01*
X6248Y17775D01*
X6255Y17731D01*
X6291Y17651D01*
X6313Y17622D01*
X6328Y17600D01*
X6335Y17593D01*
X6342Y17585D01*
X6379Y17549D01*
X6423Y17527D01*
X6503Y17498D01*
X6532Y17491D01*
X6561Y17483D01*
X7334D01*
Y18169D01*
D02*
G37*
G36*
X13151Y16951D02*
X12065D01*
Y16813D01*
X12072Y16733D01*
X12087Y16660D01*
X12116Y16594D01*
X12145Y16536D01*
X12167Y16492D01*
X12196Y16455D01*
X12211Y16434D01*
X12218Y16426D01*
X12284Y16375D01*
X12349Y16331D01*
X12408Y16302D01*
X12473Y16288D01*
X12524Y16273D01*
X12568Y16266D01*
X12605D01*
X12685Y16273D01*
X12758Y16288D01*
X12823Y16317D01*
X12882Y16346D01*
X12925Y16375D01*
X12962Y16404D01*
X12984Y16419D01*
X12991Y16426D01*
X13042Y16492D01*
X13086Y16557D01*
X13115Y16616D01*
X13129Y16681D01*
X13144Y16733D01*
X13151Y16776D01*
Y16805D01*
Y16813D01*
Y16951D01*
D02*
G37*
G36*
X6997Y9917D02*
X4337D01*
X5667Y5763D01*
X6997Y9917D01*
D02*
G37*
G36*
X86332Y189051D02*
X83671D01*
X85001Y184897D01*
X86332Y189051D01*
D02*
G37*
G36*
X60751Y191583D02*
X60660D01*
X60623D01*
X60350Y191565D01*
X60076Y191492D01*
X59858Y191419D01*
X59658Y191310D01*
X59512Y191219D01*
X59384Y191128D01*
X59311Y191073D01*
X59293Y191055D01*
X59111Y190836D01*
X58983Y190618D01*
X58892Y190381D01*
X58838Y190180D01*
X58801Y189980D01*
X58765Y189834D01*
Y189743D01*
Y189707D01*
Y185644D01*
X58783Y185352D01*
X58856Y185097D01*
X58929Y184878D01*
X59038Y184678D01*
X59129Y184532D01*
X59220Y184405D01*
X59275Y184332D01*
X59293Y184314D01*
X59512Y184131D01*
X59730Y184004D01*
X59949Y183895D01*
X60168Y183840D01*
X60350Y183803D01*
X60496Y183767D01*
X60587D01*
X60623D01*
X60896Y183785D01*
X61151Y183858D01*
X61370Y183931D01*
X61571Y184040D01*
X61716Y184131D01*
X61844Y184222D01*
X61917Y184295D01*
X61935Y184314D01*
X62117Y184532D01*
X62245Y184751D01*
X62354Y184969D01*
X62409Y185188D01*
X62445Y185370D01*
X62482Y185516D01*
Y185607D01*
Y185625D01*
Y185644D01*
Y189707D01*
X62463Y189998D01*
X62391Y190253D01*
X62318Y190490D01*
X62208Y190672D01*
X62117Y190836D01*
X62026Y190964D01*
X61953Y191037D01*
X61935Y191055D01*
X61716Y191237D01*
X61498Y191365D01*
X61279Y191456D01*
X61079Y191510D01*
X60896Y191547D01*
X60751Y191583D01*
D02*
G37*
%LPD*%
M02*
