M48
;Layer_Color=9474304
;FILE_FORMAT=2:5
INCH,LZ
;TYPE=PLATED
T1F00S00C0.01181
T2F00S00C0.03150
T3F00S00C0.03543
T4F00S00C0.03598
T5F00S00C0.03937
T7F00S00C0.04331
T8F00S00C0.05118
T9F00S00C0.12598
%
T01
X0133858Y0027559
X0139764Y003937
X014685Y003622
X0151575Y003937
X0146653Y0052165
X0133858Y0051181
Y0074803
Y0098425
X0139764Y0110236
X0133858Y0122047
X015748
X0167323Y0121063
X016437Y0106299
X0185039Y0111221
X0184055Y0097441
X0204724Y0098425
X0202756Y0114173
X0204724Y0122047
X021063Y0110236
X0222441
X0234252
X0246063
X0246063Y0121063
X0240157Y0098425
X0246063Y0086614
X0234252
X0222441Y0090551
X021063Y0086614
X0216535Y0074803
X0215551Y0068898
X021063Y0062992
X0216535Y0051181
X0211772Y0039213
X0191772
X0187008Y003937
X0181772Y0039055
X0175197Y003937
X0169291Y0051181
X016437Y0063976
X0169291Y0074803
X0204724
X0240157
X0248425Y0065945
X0246063Y0062992
X0248425Y0059842
X0246063Y0015748
X0234252
X0240157Y0003937
X0251968
X0228346
X0216535
X0212913Y0017047
X0219488Y0019685
X0228346Y0027559
X0175197Y0021654
X0184055Y0128937
X0127953Y0127953
X0122047Y0122047
X0110236
X0103347Y011811
X0098425Y0122047
X0086614
X0074803
X0062992
X0051181
X003937
X0045275Y0110236
X0057086
X0068897
X0080708
X0092519
X0098425Y0098425
Y0074803
X0086614
X0087598Y0064961
X0098425Y0062008
X0102362Y0056102
X0110236Y0051181
X0122047
X0121063Y0056102
X0127953Y003937
X0104331
X0092519
X0080708
X0068897
X0057086
X0045275
X0033464
X0034449Y0045276
X0033464Y0062992
X0045275
X0057086
X0064961Y0074803
X0068897Y0086614
X0072835Y008563
X0080708Y0086614
X0057086
X0045275
X0033464
X003937Y0098425
X0051181
X0062992
X0027559
X0015748
X0003937
X0009842Y0110236
X0003937Y0122047
X0033464Y0110236
X0009842Y0086614
X0015748Y0074803
X0003937
X0009842Y0062992
X0021653
X0003937Y0051181
Y0027559
X0009842Y0015748
X0015748Y0003937
X0003937
X0043307Y0017717
X0051181Y0027559
X0062992
X0074803
X0086614
X0098425
X0114173Y0007874
X0122047Y0003937
X0125Y0014764
X0069882Y0002953
X0062992Y0003937
X0076968Y0061221
X0127953Y0086614
X0120079Y0094488
X0127953Y0110236
X0110256Y0142736
X0110236Y0147638
X0092519Y0133858
X0068897
X0057086
X0045275
X0033464
X0027559Y0145669
X0015748
X0003937
X0009842Y015748
X0021653
X0033464
X0045275
X0057086
X0068897
X0080708
X0086614Y0169291
X0098425
X0074803
X0062992
X0051181
X003937
X0027559
X0015748
X0003937
X0009842Y0133858
X0107087Y0282283
X0147638Y0275591
Y0264567
Y0254331
X0147244Y0244094
X0144882Y0231102
X0140551Y0221654
X0141102Y0198425
X0160945Y0198031
X0180787Y019685
X0187008Y0219488
X0191929Y0225394
Y0235236
Y0244094
X0198819Y0250984
X0205709Y0258858
X0212598Y0265748
X0220472Y0272638
X0222441Y0280512
X0244094Y0278346
X0234252Y0251968
X0229528Y0238189
X0222441Y0228346
X0216535Y0216535
X0222441Y0204724
X0234252
X0246063
X0257874
X0257087Y0209842
X0251968Y0216535
X0257874Y0228346
X0246063
X0229528Y0196063
X0216535Y0192913
X0228346Y0169291
X0240157
X0251968
X0257874Y015748
X0248031Y0151575
Y0147638
Y0143701
X0260827Y0144473
X0234154Y0142323
Y0137795
X0234252Y0133858
X0234055Y0146949
X0233858Y0151969
X0228346Y0145669
X0216535
X021063Y0133858
X0184055Y0136811
X0192913Y0145669
X0195866Y0160433
X0202756Y0165354
X0171555Y0155905
X0151575Y015748
X0146653Y0142717
X0168898Y0222441
X0169291Y0230709
Y0244094
Y0253543
X0155512Y0283465
X0164567Y029252
X0169291Y03
Y030748
Y0314961
X0167323Y0334646
X0177165
X0187008
X019685Y0326772
X0222146Y0316339
X0222441Y0307087
Y0299213
Y028937
X0155512Y032874
X015748Y0334646
X0147638
X0137795
X0127953
X011811
X0108268
X0106299Y0327756
X011811Y0314567
Y0307087
Y0299213
X0114961Y0290158
T02
X0027559Y027559
X0066929
Y0293307
X0027559
T03
X0019685Y0080709
X003937
T04
X0210434Y0233464
X0238779Y0233465
Y0298425
X0210434
T05
X0074803Y0093504
Y0103347
X0079528Y0137008
X0018898
X003937Y0252756
X0059055
X0133858Y0245079
Y0292323
T07
X0181772Y0028543
X0191772
X0201772
X0211772
X0221772
X025689
Y0038543
Y0018543
X0098425Y0014764
X0084646
X0068898
X0055118
X0155512Y0320866
X0169291
X0202756
X0216535
X011811
X0104331
T08
X0141102Y0183543
X0160945
X0180787
Y0213307
X0160945
X0141102
X0240315
Y0183543
T09
X0098425Y0268701
X0169291
M30
