G04 Layer_Color=14360714*
%FSLAX25Y25*%
%MOIN*%
G70*
G01*
G75*
%ADD43C,0.00394*%
%ADD59C,0.01968*%
G36*
X37992Y104921D02*
X42520Y102854D01*
X46457Y100000D01*
X49409Y96949D01*
X52559Y91929D01*
X53839Y88681D01*
X55216Y82776D01*
X54626Y75492D01*
X52953Y70276D01*
X50689Y66437D01*
X47736Y62697D01*
X44783Y60236D01*
X42028Y58465D01*
X39075Y56988D01*
X35433Y55807D01*
X33563Y55512D01*
X33465D01*
Y105905D01*
X37992Y104921D01*
D02*
G37*
D43*
X55118Y80709D02*
X55099Y81707D01*
X55040Y82704D01*
X54943Y83698D01*
X54807Y84687D01*
X54633Y85671D01*
X54420Y86646D01*
X54169Y87613D01*
X53881Y88569D01*
X53556Y89513D01*
X53194Y90444D01*
X52796Y91360D01*
X52363Y92260D01*
X51895Y93142D01*
X51393Y94005D01*
X50857Y94848D01*
X50289Y95670D01*
X49690Y96468D01*
X49060Y97243D01*
X48400Y97992D01*
X47711Y98715D01*
X46995Y99411D01*
X46251Y100078D01*
X45483Y100716D01*
X44690Y101323D01*
X43874Y101899D01*
X43037Y102443D01*
X42178Y102954D01*
X41301Y103430D01*
X40405Y103872D01*
X39493Y104279D01*
X38566Y104650D01*
X37625Y104984D01*
X36672Y105282D01*
X35708Y105542D01*
X34734Y105764D01*
X33753Y105948D01*
X32765Y106094D01*
X31772Y106201D01*
X30775Y106269D01*
X29777Y106298D01*
X28779Y106288D01*
X27781Y106240D01*
X26786Y106152D01*
X25796Y106026D01*
X24811Y105861D01*
X23833Y105658D01*
X22864Y105416D01*
X21905Y105138D01*
X20958Y104822D01*
X20024Y104469D01*
X19104Y104080D01*
X18200Y103656D01*
X17313Y103196D01*
X16445Y102702D01*
X15597Y102175D01*
X14770Y101615D01*
X13966Y101024D01*
X13185Y100401D01*
X12429Y99748D01*
X11699Y99067D01*
X10996Y98357D01*
X10322Y97621D01*
X9677Y96859D01*
X9062Y96072D01*
X8478Y95262D01*
X7926Y94429D01*
X7407Y93576D01*
X6922Y92703D01*
X6471Y91812D01*
X6056Y90904D01*
X5676Y89981D01*
X5332Y89043D01*
X5025Y88092D01*
X4756Y87131D01*
X4524Y86159D01*
X4331Y85180D01*
X4175Y84193D01*
X4059Y83201D01*
X3981Y82206D01*
X3942Y81208D01*
Y80209D01*
X3981Y79211D01*
X4059Y78216D01*
X4175Y77224D01*
X4331Y76238D01*
X4524Y75258D01*
X4756Y74287D01*
X5025Y73325D01*
X5332Y72375D01*
X5676Y71437D01*
X6056Y70513D01*
X6471Y69605D01*
X6922Y68714D01*
X7407Y67841D01*
X7926Y66988D01*
X8478Y66156D01*
X9062Y65346D01*
X9677Y64559D01*
X10322Y63797D01*
X10996Y63060D01*
X11699Y62351D01*
X12429Y61669D01*
X13185Y61016D01*
X13965Y60394D01*
X14770Y59802D01*
X15597Y59242D01*
X16445Y58715D01*
X17313Y58221D01*
X18200Y57762D01*
X19104Y57337D01*
X20023Y56948D01*
X20958Y56596D01*
X21905Y56280D01*
X22864Y56001D01*
X23833Y55760D01*
X24811Y55557D01*
X25796Y55392D01*
X26786Y55265D01*
X27781Y55178D01*
X28779Y55129D01*
X29777Y55119D01*
X30775Y55149D01*
X31772Y55217D01*
X32765Y55324D01*
X33753Y55469D01*
X34734Y55653D01*
X35708Y55875D01*
X36672Y56136D01*
X37625Y56433D01*
X38566Y56767D01*
X39493Y57138D01*
X40405Y57545D01*
X41301Y57987D01*
X42178Y58464D01*
X43037Y58974D01*
X43874Y59518D01*
X44690Y60094D01*
X45483Y60701D01*
X46251Y61339D01*
X46994Y62006D01*
X47711Y62702D01*
X48399Y63425D01*
X49060Y64174D01*
X49690Y64949D01*
X50289Y65748D01*
X50857Y66569D01*
X51393Y67412D01*
X51895Y68275D01*
X52363Y69157D01*
X52796Y70057D01*
X53194Y70973D01*
X53556Y71904D01*
X53881Y72848D01*
X54169Y73804D01*
X54420Y74771D01*
X54632Y75747D01*
X54807Y76730D01*
X54943Y77719D01*
X55040Y78713D01*
X55099Y79710D01*
X55118Y80708D01*
X66142Y113189D02*
X81102D01*
Y83661D02*
Y113189D01*
X66142Y83661D02*
X81102D01*
X66142D02*
Y113189D01*
X135925Y174311D02*
X250098D01*
X135925D02*
Y224311D01*
X250098D01*
Y174311D02*
Y224311D01*
X250886Y291732D02*
X256988D01*
X250886Y279134D02*
X256988D01*
Y291732D01*
X250886Y279134D02*
Y291732D01*
X215154Y149213D02*
Y153937D01*
X207283Y149213D02*
Y153937D01*
Y149213D02*
X215154D01*
X207283Y153937D02*
X215154D01*
X200394Y160633D02*
X205118D01*
X200394Y168504D02*
X205118D01*
X200394Y160633D02*
Y168504D01*
X205118Y160633D02*
Y168504D01*
X19488Y122441D02*
X27359D01*
X19488Y117717D02*
X27359D01*
X19488D02*
Y122441D01*
X27359Y117717D02*
Y122441D01*
X88977Y127952D02*
Y261810D01*
X9450Y127952D02*
Y261810D01*
Y127952D02*
X88977D01*
X9450Y261810D02*
X88977D01*
X107483Y110827D02*
X115354D01*
X107483Y115551D02*
X115354D01*
Y110827D02*
Y115551D01*
X107483Y110827D02*
Y115551D01*
X107087Y95866D02*
X114957D01*
X107087Y91142D02*
X114957D01*
X107087D02*
Y95866D01*
X114957Y91142D02*
Y95866D01*
X107087Y85039D02*
X114957D01*
X107087Y80315D02*
X114957D01*
X107087D02*
Y85039D01*
X114957Y80315D02*
Y85039D01*
Y68504D02*
Y73228D01*
X107087Y68504D02*
Y73228D01*
Y68504D02*
X114957D01*
X107087Y73228D02*
X114957D01*
X86221Y105315D02*
X92913D01*
X86221Y90551D02*
Y105315D01*
Y90551D02*
X92913D01*
Y105315D01*
X86221Y96752D02*
X92913D01*
X235237Y165896D02*
X247047D01*
Y154872D02*
Y165896D01*
X235237Y154872D02*
X247047D01*
X235237D02*
Y165896D01*
X167123Y134449D02*
Y139173D01*
X159252Y134449D02*
Y139173D01*
Y134449D02*
X167123D01*
X159252Y139173D02*
X167123D01*
X157873Y28740D02*
X168897D01*
X157873Y40158D02*
X168897D01*
X157873Y28740D02*
Y40158D01*
X168897Y28740D02*
Y40158D01*
X159649Y79331D02*
Y84055D01*
X167520Y79331D02*
Y84055D01*
X159649D02*
X167520D01*
X159649Y79331D02*
X167520D01*
X72834Y285432D02*
Y301180D01*
X21653Y285432D02*
Y301180D01*
X72834D01*
X21653Y285432D02*
X72834D01*
X123622Y151378D02*
Y159249D01*
X128347Y151378D02*
Y159249D01*
X123622Y151378D02*
X128347D01*
X123622Y159249D02*
X128347D01*
X136221Y151775D02*
Y159646D01*
X131496Y151775D02*
Y159646D01*
X136221D01*
X131496Y151775D02*
X136221D01*
X139370Y151378D02*
Y159249D01*
X144095Y151378D02*
Y159249D01*
X139370Y151378D02*
X144095D01*
X139370Y159249D02*
X144095D01*
X23228Y17520D02*
Y25390D01*
X27953Y17520D02*
Y25390D01*
X23228Y17520D02*
X27953D01*
X23228Y25390D02*
X27953D01*
X35827Y17917D02*
Y25787D01*
X31102Y17917D02*
Y25787D01*
X35827D01*
X31102Y17917D02*
X35827D01*
X116043Y125197D02*
Y144882D01*
Y125197D02*
X140453D01*
Y144882D01*
X116043D02*
X140453D01*
X154528Y147444D02*
X159252D01*
X154528Y155315D02*
X159252D01*
X154528Y147444D02*
Y155315D01*
X159252Y147444D02*
Y155315D01*
X162106Y154918D02*
X166831D01*
X162106Y147047D02*
X166831D01*
Y154918D01*
X162106Y147047D02*
Y154918D01*
X115748Y151775D02*
X120472D01*
X115748Y159646D02*
X120472D01*
X115748Y151775D02*
Y159646D01*
X120472Y151775D02*
Y159646D01*
X107874Y151775D02*
X112598D01*
X107874Y159646D02*
X112598D01*
X107874Y151775D02*
Y159646D01*
X112598Y151775D02*
Y159646D01*
X100000Y159249D02*
X104724D01*
X100000Y151378D02*
X104724D01*
Y159249D01*
X100000Y151378D02*
Y159249D01*
X250495Y238386D02*
Y243110D01*
X258366Y238386D02*
Y243110D01*
X250495D02*
X258366D01*
X250495Y238386D02*
X258366D01*
X250495Y246161D02*
Y250886D01*
X258366Y246161D02*
Y250886D01*
X250495D02*
X258366D01*
X250495Y246161D02*
X258366D01*
X15354Y45076D02*
X20079D01*
X15354Y37205D02*
X20079D01*
Y45076D01*
X15354Y37205D02*
Y45076D01*
Y25390D02*
X20079D01*
X15354Y17520D02*
X20079D01*
Y25390D01*
X15354Y17520D02*
Y25390D01*
X111811Y19485D02*
X116535D01*
X111811Y11614D02*
X116535D01*
Y19485D01*
X111811Y11614D02*
Y19485D01*
X25197Y45076D02*
X29921D01*
X25197Y37205D02*
X29921D01*
Y45076D01*
X25197Y37205D02*
Y45076D01*
X72834Y267716D02*
Y283464D01*
X21653Y267716D02*
Y283464D01*
X72834D01*
X21653Y267716D02*
X72834D01*
X114173Y233170D02*
Y304035D01*
X153543D01*
Y233170D02*
Y304035D01*
X114173Y233170D02*
X153543D01*
X204607Y304330D02*
X244764D01*
X204607Y228346D02*
Y304330D01*
Y228346D02*
X244764D01*
Y304330D01*
X252854Y176674D02*
X259547D01*
Y191437D01*
X252854D02*
X259547D01*
X252854Y176674D02*
Y191437D01*
X252854Y185236D02*
X259547D01*
X206988Y160236D02*
X212303D01*
X206988Y168504D02*
X212303D01*
X206988Y160236D02*
Y168504D01*
X212303Y160236D02*
Y168504D01*
X206988Y165945D02*
X212303D01*
X136614Y787D02*
Y20472D01*
X167323Y787D02*
Y20472D01*
X136614Y787D02*
X167323D01*
X136614Y20472D02*
X167323D01*
X90158Y307086D02*
Y334645D01*
X8268Y307086D02*
Y334645D01*
X90158D01*
X8268Y307086D02*
X90158D01*
X59055Y320866D02*
X62992D01*
X59055Y314961D02*
Y320866D01*
X39370Y314961D02*
X59055D01*
X39370D02*
Y326772D01*
X59055D01*
Y320866D02*
Y326772D01*
X35433Y320866D02*
X39370D01*
X74803D02*
X82677D01*
X15748D02*
X23622D01*
X82678Y59056D02*
Y70867D01*
X70867D02*
X82678D01*
X70867Y59056D02*
Y70867D01*
Y59056D02*
X82678D01*
X107483Y101969D02*
X115354D01*
X107483Y106693D02*
X115354D01*
Y101969D02*
Y106693D01*
X107483Y101969D02*
Y106693D01*
X68406Y74410D02*
Y81102D01*
Y74410D02*
X83170D01*
Y81102D01*
X68406D02*
X83170D01*
X76968Y74410D02*
Y81102D01*
X96063Y105807D02*
X102756D01*
X96063Y91043D02*
Y105807D01*
Y91043D02*
X102756D01*
Y105807D01*
X96063Y97244D02*
X102756D01*
X174508Y7283D02*
X179823D01*
X174508Y4724D02*
Y12992D01*
X179823Y4724D02*
Y12992D01*
X174508Y4724D02*
X179823D01*
X174508Y12992D02*
X179823D01*
X191732Y13189D02*
X199603D01*
X191732Y8465D02*
X199603D01*
X191732D02*
Y13189D01*
X199603Y8465D02*
Y13189D01*
X159649Y87205D02*
Y91929D01*
X167520Y87205D02*
Y91929D01*
X159649D02*
X167520D01*
X159649Y87205D02*
X167520D01*
X167123Y95079D02*
Y99803D01*
X159252Y95079D02*
Y99803D01*
Y95079D02*
X167123D01*
X159252Y99803D02*
X167123D01*
X192129Y17323D02*
Y22047D01*
X200000Y17323D02*
Y22047D01*
X192129D02*
X200000D01*
X192129Y17323D02*
X200000D01*
X159649Y111811D02*
Y116535D01*
X167520Y111811D02*
Y116535D01*
X159649D02*
X167520D01*
X159649Y111811D02*
X167520D01*
X147835Y113976D02*
X153150D01*
X147835Y122244D02*
X153150D01*
X147835Y113976D02*
Y122244D01*
X153150Y113976D02*
Y122244D01*
X147835Y119685D02*
X153150D01*
X251890Y36043D02*
X254390Y33543D01*
X251890Y36043D02*
Y41043D01*
X254390Y43543D01*
X259390D01*
X261890Y41043D01*
Y36043D02*
Y41043D01*
X259390Y33543D02*
X261890Y36043D01*
Y13543D02*
Y23543D01*
X259390D02*
X261890Y26043D01*
Y31043D01*
X259390Y33543D02*
X261890Y31043D01*
X254390Y33543D02*
X259390D01*
X251890Y31043D02*
X254390Y33543D01*
X251890Y26043D02*
Y31043D01*
Y26043D02*
X254390Y23543D01*
X251890Y13543D02*
X261890D01*
X251890Y23543D02*
X261890D01*
X251890Y13543D02*
Y23543D01*
X216772D02*
X226772D01*
X216772D02*
Y33543D01*
X226772Y23543D02*
Y33543D01*
X214272Y23543D02*
X216772Y26043D01*
X209272Y23543D02*
X214272D01*
X206772Y26043D02*
X209272Y23543D01*
X206772Y26043D02*
Y31043D01*
X209272Y33543D01*
X214272D01*
X216772Y31043D01*
Y33543D02*
X226772D01*
X204272D02*
X206772Y31043D01*
X199272Y33543D02*
X204272D01*
X196772Y31043D02*
X199272Y33543D01*
X196772Y26043D02*
Y31043D01*
Y26043D02*
X199272Y23543D01*
X204272D01*
X206772Y26043D01*
X194272Y23543D02*
X196772Y26043D01*
X189272Y23543D02*
X194272D01*
X186772Y26043D02*
X189272Y23543D01*
X186772Y26043D02*
Y31043D01*
X189272Y33543D01*
X194272D01*
X196772Y31043D01*
X184272Y33543D02*
X186772Y31043D01*
X179272Y33543D02*
X184272D01*
X176772Y31043D02*
X179272Y33543D01*
X176772Y26043D02*
Y31043D01*
Y26043D02*
X179272Y23543D01*
X184272D01*
X186772Y26043D01*
X114957Y53740D02*
Y58465D01*
X107087Y53740D02*
Y58465D01*
Y53740D02*
X114957D01*
X107087Y58465D02*
X114957D01*
X139764Y238189D02*
X141732D01*
X139764D02*
Y297244D01*
X141732D01*
Y238189D02*
Y297244D01*
X185039Y167323D02*
Y171260D01*
X133858Y167323D02*
X185039D01*
X133858D02*
Y171260D01*
X185039D01*
X163386Y315945D02*
Y327756D01*
X176181D01*
Y329724D01*
X161417D02*
X176181D01*
X161417Y315945D02*
Y329724D01*
Y315945D02*
X163386D01*
D59*
X167323Y30118D02*
D03*
X81102Y60630D02*
D03*
M02*
