G04 Layer_Color=255*
%FSLAX25Y25*%
%MOIN*%
G70*
G01*
G75*
%ADD10R,0.07087X0.04724*%
G04:AMPARAMS|DCode=11|XSize=47.24mil|YSize=70.87mil|CornerRadius=0mil|HoleSize=0mil|Usage=FLASHONLY|Rotation=90.000|XOffset=0mil|YOffset=0mil|HoleType=Round|Shape=Octagon|*
%AMOCTAGOND11*
4,1,8,-0.03543,-0.01181,-0.03543,0.01181,-0.02362,0.02362,0.02362,0.02362,0.03543,0.01181,0.03543,-0.01181,0.02362,-0.02362,-0.02362,-0.02362,-0.03543,-0.01181,0.0*
%
%ADD11OCTAGOND11*%

G04:AMPARAMS|DCode=12|XSize=47.24mil|YSize=70.87mil|CornerRadius=0mil|HoleSize=0mil|Usage=FLASHONLY|Rotation=180.000|XOffset=0mil|YOffset=0mil|HoleType=Round|Shape=Octagon|*
%AMOCTAGOND12*
4,1,8,0.01181,-0.03543,-0.01181,-0.03543,-0.02362,-0.02362,-0.02362,0.02362,-0.01181,0.03543,0.01181,0.03543,0.02362,0.02362,0.02362,-0.02362,0.01181,-0.03543,0.0*
%
%ADD12OCTAGOND12*%

%ADD13R,0.04724X0.07087*%
%ADD14R,0.06299X0.03937*%
%ADD15R,0.03937X0.04921*%
%ADD16R,0.04921X0.03937*%
%ADD17R,0.03937X0.05905*%
%ADD18R,0.03937X0.04134*%
%ADD19R,0.04134X0.08661*%
%ADD20R,0.04331X0.02362*%
%ADD21O,0.06291X0.02362*%
%ADD22R,0.02362X0.05118*%
%ADD23R,0.01575X0.05512*%
%ADD24R,0.08268X0.06299*%
%ADD25R,0.07087X0.07480*%
%ADD26R,0.06890X0.07480*%
%ADD27R,0.05905X0.03937*%
%ADD28C,0.03937*%
%ADD43C,0.00394*%
%ADD44C,0.07087*%
%ADD45C,0.09055*%
%ADD46C,0.08661*%
%ADD47C,0.07874*%
%ADD48P,0.08523X8X22.5*%
%ADD49C,0.06299*%
%ADD50C,0.19685*%
%ADD51R,0.06000X0.06000*%
%ADD52C,0.06000*%
%ADD53O,0.07874X0.15748*%
%ADD54R,0.07874X0.07874*%
%ADD55R,0.07874X0.07874*%
D10*
X176575Y144685D02*
D03*
Y136811D02*
D03*
Y121063D02*
D03*
Y128937D02*
D03*
Y97441D02*
D03*
Y89567D02*
D03*
Y105315D02*
D03*
Y113189D02*
D03*
Y81693D02*
D03*
Y73819D02*
D03*
Y65945D02*
D03*
X252953D02*
D03*
Y73819D02*
D03*
Y81693D02*
D03*
Y113189D02*
D03*
Y105315D02*
D03*
Y89567D02*
D03*
Y97441D02*
D03*
Y128937D02*
D03*
Y121063D02*
D03*
Y136811D02*
D03*
Y144685D02*
D03*
D11*
X176575Y58071D02*
D03*
X252953Y58071D02*
D03*
D12*
X183268Y51378D02*
D03*
X246260D02*
D03*
D13*
X191142D02*
D03*
X199016D02*
D03*
X206890D02*
D03*
X222638D02*
D03*
X230512D02*
D03*
X238386D02*
D03*
D14*
X253937Y291339D02*
D03*
Y279528D02*
D03*
D15*
X215354Y151575D02*
D03*
X207480D02*
D03*
X19685Y120079D02*
D03*
X27559D02*
D03*
X115157Y113189D02*
D03*
X107283D02*
D03*
Y93504D02*
D03*
X115157D02*
D03*
X107283Y82677D02*
D03*
X115157D02*
D03*
Y70866D02*
D03*
X107283D02*
D03*
X167323Y136811D02*
D03*
X159449D02*
D03*
X159449Y81693D02*
D03*
X167323D02*
D03*
X250295Y240748D02*
D03*
X258169D02*
D03*
X250295Y248524D02*
D03*
X258169D02*
D03*
X115157Y104331D02*
D03*
X107283D02*
D03*
X191929Y10827D02*
D03*
X199803D02*
D03*
X159449Y89567D02*
D03*
X167323D02*
D03*
Y97441D02*
D03*
X159449D02*
D03*
X191929Y19685D02*
D03*
X199803D02*
D03*
X159449Y114173D02*
D03*
X167323D02*
D03*
X115157Y56102D02*
D03*
X107283D02*
D03*
D16*
X202756Y160433D02*
D03*
Y168307D02*
D03*
X125984Y151575D02*
D03*
Y159449D02*
D03*
X133858D02*
D03*
Y151575D02*
D03*
X141732D02*
D03*
Y159449D02*
D03*
X25591Y17717D02*
D03*
Y25591D02*
D03*
X33465D02*
D03*
Y17717D02*
D03*
X156890Y147244D02*
D03*
Y155118D02*
D03*
X164469D02*
D03*
Y147244D02*
D03*
X118110Y151575D02*
D03*
Y159449D02*
D03*
X110236Y151575D02*
D03*
Y159449D02*
D03*
X102362D02*
D03*
Y151575D02*
D03*
X17717Y45276D02*
D03*
Y37402D02*
D03*
Y25591D02*
D03*
Y17717D02*
D03*
X114173Y19685D02*
D03*
Y11811D02*
D03*
X27559Y45276D02*
D03*
Y37402D02*
D03*
X209646Y168307D02*
D03*
Y160433D02*
D03*
X177165Y4921D02*
D03*
Y12795D02*
D03*
X150492Y114173D02*
D03*
Y122047D02*
D03*
D17*
X89567Y103347D02*
D03*
Y92520D02*
D03*
X256201Y178642D02*
D03*
Y189469D02*
D03*
X99410Y103839D02*
D03*
Y93012D02*
D03*
D18*
X241142Y155413D02*
D03*
D19*
X235335Y161417D02*
D03*
X246949D02*
D03*
D20*
X158268Y30709D02*
D03*
Y34449D02*
D03*
Y38189D02*
D03*
X168504D02*
D03*
Y34449D02*
D03*
Y30709D02*
D03*
X81890Y61221D02*
D03*
Y64961D02*
D03*
Y68701D02*
D03*
X71653D02*
D03*
Y61221D02*
D03*
D21*
X116437Y142736D02*
D03*
Y137736D02*
D03*
Y132736D02*
D03*
Y127736D02*
D03*
X140059Y142736D02*
D03*
Y137736D02*
D03*
Y132736D02*
D03*
Y127736D02*
D03*
D22*
X220866Y169488D02*
D03*
X224606Y161221D02*
D03*
X217126D02*
D03*
D23*
X146850Y19685D02*
D03*
X149409D02*
D03*
X151969D02*
D03*
X154528D02*
D03*
X157087D02*
D03*
D24*
X139764Y19291D02*
D03*
X164173D02*
D03*
D25*
X136221Y9252D02*
D03*
X167717D02*
D03*
D26*
X147539D02*
D03*
X156398D02*
D03*
D27*
X70374Y77756D02*
D03*
X81201D02*
D03*
D28*
X147382Y137736D02*
D03*
D43*
X139764Y238189D02*
X141732D01*
X139764D02*
Y297244D01*
X141732D01*
Y238189D02*
Y297244D01*
X185039Y167323D02*
Y171260D01*
X133858Y167323D02*
X185039D01*
X133858D02*
Y171260D01*
X185039D01*
X163386Y315945D02*
Y327756D01*
X176181D01*
Y329724D01*
X161417D02*
X176181D01*
X161417Y315945D02*
Y329724D01*
Y315945D02*
X163386D01*
D44*
X74803Y103347D02*
D03*
Y93504D02*
D03*
X133858Y292323D02*
D03*
Y245079D02*
D03*
D45*
X141102Y213307D02*
D03*
X160945D02*
D03*
X180787D02*
D03*
X141102Y183543D02*
D03*
X240315D02*
D03*
Y213307D02*
D03*
X180787Y183543D02*
D03*
X160945D02*
D03*
D46*
X59055Y252756D02*
D03*
X39370D02*
D03*
X79528Y137008D02*
D03*
X18898D02*
D03*
D47*
X39370Y80709D02*
D03*
X118110Y320866D02*
D03*
X104331D02*
D03*
X169291D02*
D03*
X155512D02*
D03*
X216535D02*
D03*
X202756D02*
D03*
X84646Y14764D02*
D03*
X98425D02*
D03*
X256890Y38543D02*
D03*
Y28543D02*
D03*
X181772D02*
D03*
X191772D02*
D03*
X211772D02*
D03*
X201772D02*
D03*
X55118Y14764D02*
D03*
X68898D02*
D03*
D48*
X19685Y80709D02*
D03*
D49*
X66929Y293307D02*
D03*
X27559D02*
D03*
X66929Y275590D02*
D03*
X27559D02*
D03*
D50*
X98425Y268701D02*
D03*
X169291D02*
D03*
D51*
X238779Y298425D02*
D03*
Y233465D02*
D03*
D52*
X210434Y298425D02*
D03*
Y233464D02*
D03*
D53*
X9843Y320866D02*
D03*
X29528D02*
D03*
X68898D02*
D03*
X88583D02*
D03*
D54*
X256890Y18543D02*
D03*
D55*
X221772Y28543D02*
D03*
M02*
