G04 Layer_Color=255*
%FSLAX25Y25*%
%MOIN*%
G70*
G01*
G75*
%ADD43C,0.00394*%
%ADD44C,0.07087*%
%ADD45C,0.09055*%
%ADD46C,0.08661*%
%ADD47C,0.07874*%
%ADD48P,0.08523X8X22.5*%
%ADD49C,0.06299*%
%ADD50C,0.19685*%
%ADD51R,0.06000X0.06000*%
%ADD52C,0.06000*%
%ADD53O,0.07874X0.15748*%
%ADD54R,0.07874X0.07874*%
%ADD55R,0.07874X0.07874*%
D43*
X139764Y238189D02*
X141732D01*
X139764D02*
Y297244D01*
X141732D01*
Y238189D02*
Y297244D01*
X185039Y167323D02*
Y171260D01*
X133858Y167323D02*
X185039D01*
X133858D02*
Y171260D01*
X185039D01*
X163386Y315945D02*
Y327756D01*
X176181D01*
Y329724D01*
X161417D02*
X176181D01*
X161417Y315945D02*
Y329724D01*
Y315945D02*
X163386D01*
D44*
X74803Y103347D02*
D03*
Y93504D02*
D03*
X133858Y292323D02*
D03*
Y245079D02*
D03*
D45*
X141102Y213307D02*
D03*
X160945D02*
D03*
X180787D02*
D03*
X141102Y183543D02*
D03*
X240315D02*
D03*
Y213307D02*
D03*
X180787Y183543D02*
D03*
X160945D02*
D03*
D46*
X59055Y252756D02*
D03*
X39370D02*
D03*
X79528Y137008D02*
D03*
X18898D02*
D03*
D47*
X39370Y80709D02*
D03*
X118110Y320866D02*
D03*
X104331D02*
D03*
X169291D02*
D03*
X155512D02*
D03*
X216535D02*
D03*
X202756D02*
D03*
X84646Y14764D02*
D03*
X98425D02*
D03*
X256890Y38543D02*
D03*
Y28543D02*
D03*
X181772D02*
D03*
X191772D02*
D03*
X211772D02*
D03*
X201772D02*
D03*
X55118Y14764D02*
D03*
X68898D02*
D03*
D48*
X19685Y80709D02*
D03*
D49*
X66929Y293307D02*
D03*
X27559D02*
D03*
X66929Y275590D02*
D03*
X27559D02*
D03*
D50*
X98425Y268701D02*
D03*
X169291D02*
D03*
D51*
X238779Y298425D02*
D03*
Y233465D02*
D03*
D52*
X210434Y298425D02*
D03*
Y233464D02*
D03*
D53*
X9843Y320866D02*
D03*
X29528D02*
D03*
X68898D02*
D03*
X88583D02*
D03*
D54*
X256890Y18543D02*
D03*
D55*
X221772Y28543D02*
D03*
M02*
