G04 Layer_Color=16711935*
%FSLAX25Y25*%
%MOIN*%
G70*
G01*
G75*
%ADD43C,0.00394*%
%ADD45C,0.09055*%
%ADD79C,0.07480*%
%ADD80C,0.09449*%
%ADD81C,0.08268*%
%ADD82P,0.08949X8X22.5*%
%ADD83C,0.06693*%
%ADD84C,0.20079*%
%ADD85R,0.06394X0.06394*%
%ADD86C,0.06394*%
%ADD87O,0.08268X0.16142*%
%ADD88R,0.08268X0.08268*%
%ADD89R,0.08268X0.08268*%
%ADD90C,0.03150*%
%ADD91C,0.08268*%
%ADD92C,0.06299*%
D43*
X139764Y238189D02*
X141732D01*
X139764D02*
Y297244D01*
X141732D01*
Y238189D02*
Y297244D01*
X185039Y167323D02*
Y171260D01*
X133858Y167323D02*
X185039D01*
X133858D02*
Y171260D01*
X185039D01*
X163386Y315945D02*
Y327756D01*
X176181D01*
Y329724D01*
X161417D02*
X176181D01*
X161417Y315945D02*
Y329724D01*
Y315945D02*
X163386D01*
D45*
X59055Y252756D02*
D03*
X39370D02*
D03*
X79528Y137008D02*
D03*
X18898D02*
D03*
D79*
X74803Y103347D02*
D03*
Y93504D02*
D03*
X133858Y292323D02*
D03*
Y245079D02*
D03*
D80*
X141102Y213307D02*
D03*
X160945D02*
D03*
X180787D02*
D03*
X141102Y183543D02*
D03*
X240315D02*
D03*
Y213307D02*
D03*
X180787Y183543D02*
D03*
X160945D02*
D03*
D81*
X39370Y80709D02*
D03*
X118110Y320866D02*
D03*
X104331D02*
D03*
X169291D02*
D03*
X155512D02*
D03*
X216535D02*
D03*
X202756D02*
D03*
X84646Y14764D02*
D03*
X98425D02*
D03*
X256890Y38543D02*
D03*
Y28543D02*
D03*
X181772D02*
D03*
X191772D02*
D03*
X211772D02*
D03*
X201772D02*
D03*
X55118Y14764D02*
D03*
X68898D02*
D03*
D82*
X19685Y80709D02*
D03*
D83*
X66929Y293307D02*
D03*
X27559D02*
D03*
X66929Y275590D02*
D03*
X27559D02*
D03*
D84*
X98425Y268701D02*
D03*
X169291D02*
D03*
D85*
X238779Y298425D02*
D03*
Y233465D02*
D03*
D86*
X210434Y298425D02*
D03*
Y233464D02*
D03*
D87*
X9843Y320866D02*
D03*
X29528D02*
D03*
X68898D02*
D03*
X88583D02*
D03*
D88*
X256890Y18543D02*
D03*
D89*
X221772Y28543D02*
D03*
D90*
X155512Y328740D02*
D03*
X106299Y327756D02*
D03*
X180787Y196850D02*
D03*
X187008Y219488D02*
D03*
X191929Y225394D02*
D03*
Y235236D02*
D03*
Y244094D02*
D03*
X198819Y250984D02*
D03*
X205709Y258858D02*
D03*
X212598Y265748D02*
D03*
X220472Y272638D02*
D03*
X222441Y280512D02*
D03*
Y289370D02*
D03*
Y299213D02*
D03*
Y307087D02*
D03*
X222146Y316339D02*
D03*
X164567Y292520D02*
D03*
X169291Y307480D02*
D03*
Y314961D02*
D03*
Y300000D02*
D03*
X233858Y151969D02*
D03*
X234055Y146949D02*
D03*
X234154Y142323D02*
D03*
Y137795D02*
D03*
X248031Y147638D02*
D03*
Y143701D02*
D03*
Y151575D02*
D03*
X244094Y278346D02*
D03*
X169291Y253543D02*
D03*
Y244094D02*
D03*
Y230709D02*
D03*
X168898Y222441D02*
D03*
X160945Y198031D02*
D03*
X141102Y198425D02*
D03*
X140551Y221654D02*
D03*
X144882Y231102D02*
D03*
X147244Y244094D02*
D03*
X147638Y254331D02*
D03*
Y264567D02*
D03*
Y275591D02*
D03*
X155512Y283465D02*
D03*
X107087Y282283D02*
D03*
X114961Y290158D02*
D03*
X118110Y299213D02*
D03*
Y307087D02*
D03*
Y314567D02*
D03*
X196850Y326772D02*
D03*
X187008Y334646D02*
D03*
X177165D02*
D03*
X167323D02*
D03*
X157480D02*
D03*
X147638D02*
D03*
X137795D02*
D03*
X127953D02*
D03*
X118110D02*
D03*
X108268D02*
D03*
X229528Y238189D02*
D03*
X248425Y65945D02*
D03*
Y59842D02*
D03*
X219488Y19685D02*
D03*
X212913Y17047D02*
D03*
X215551Y68898D02*
D03*
X125000Y14764D02*
D03*
X43307Y17717D02*
D03*
X167323Y121063D02*
D03*
X202756Y114173D02*
D03*
X222441Y90551D02*
D03*
X164370Y106299D02*
D03*
X184055Y97441D02*
D03*
X146653Y52165D02*
D03*
X103347Y118110D02*
D03*
X120079Y94488D02*
D03*
X98425Y62008D02*
D03*
X175197Y21654D02*
D03*
X76968Y61221D02*
D03*
X87598Y64961D02*
D03*
X34449Y45276D02*
D03*
X72835Y85630D02*
D03*
X64961Y74803D02*
D03*
X184055Y136811D02*
D03*
Y128937D02*
D03*
X246063Y121063D02*
D03*
X181772Y39055D02*
D03*
X211772Y39213D02*
D03*
X191772D02*
D03*
X171555Y155905D02*
D03*
X110236Y147638D02*
D03*
X146653Y142717D02*
D03*
X185039Y111221D02*
D03*
X110256Y142736D02*
D03*
X257087Y209842D02*
D03*
X260827Y144473D02*
D03*
X127953Y127953D02*
D03*
X229528Y196063D02*
D03*
X195866Y160433D02*
D03*
X202756Y165354D02*
D03*
X114173Y7874D02*
D03*
X69882Y2953D02*
D03*
X151575Y39370D02*
D03*
X146850Y36220D02*
D03*
X121063Y56102D02*
D03*
X102362D02*
D03*
X164370Y63976D02*
D03*
D91*
X141102Y227717D02*
X147638Y234252D01*
X141102Y213307D02*
Y227717D01*
X147638Y234252D02*
Y254331D01*
Y275590D02*
X169291Y297244D01*
X141102Y198425D02*
Y213307D01*
X180787Y213366D02*
X191043Y223622D01*
Y243209D01*
X198819Y250984D01*
X223425Y275590D01*
Y289370D01*
Y307087D01*
Y313976D01*
X216535Y320866D02*
X223425Y313976D01*
X180787Y196850D02*
Y213307D01*
X169291Y221654D02*
Y230709D01*
X180787Y183543D02*
Y196850D01*
X169291Y307480D02*
Y314961D01*
Y300000D02*
Y307480D01*
Y314961D02*
Y320866D01*
X147638Y264567D02*
Y275590D01*
X169291Y253543D02*
Y268701D01*
Y244094D02*
Y253543D01*
Y230709D02*
Y244094D01*
X160945Y183543D02*
Y198031D01*
X141102Y183543D02*
Y198425D01*
X147638Y254331D02*
Y264567D01*
X160945Y213307D02*
X169291Y221654D01*
X107087Y282283D02*
X114961Y290158D01*
X102362Y277559D02*
X107087Y282283D01*
X114961Y290158D02*
X118110Y293307D01*
Y299213D02*
Y307087D01*
Y293307D02*
Y299213D01*
Y307087D02*
Y314567D01*
Y320866D01*
X160945Y198031D02*
Y213307D01*
D92*
X155512Y328740D02*
Y334646D01*
X106299Y327756D02*
Y334646D01*
X155512Y320866D02*
Y328740D01*
X106299Y322835D02*
Y327756D01*
X196850Y326772D02*
X202756Y320866D01*
X188976Y334646D02*
X196850Y326772D01*
X177165Y334646D02*
X187008D01*
X167323D02*
X177165D01*
X157480D02*
X167323D01*
X147638D02*
X155512D01*
X137795D02*
X147638D01*
X127953D02*
X137795D01*
X118110D02*
X127953D01*
X108268D02*
X118110D01*
M02*
