G04 Layer_Color=32768*
%FSLAX25Y25*%
%MOIN*%
G70*
G01*
G75*
%ADD43C,0.00394*%
%ADD93C,0.00197*%
D43*
X55118Y80709D02*
X55099Y81707D01*
X55040Y82704D01*
X54943Y83698D01*
X54807Y84687D01*
X54633Y85671D01*
X54420Y86646D01*
X54169Y87613D01*
X53881Y88569D01*
X53556Y89513D01*
X53194Y90444D01*
X52796Y91360D01*
X52363Y92260D01*
X51895Y93142D01*
X51393Y94005D01*
X50857Y94848D01*
X50289Y95670D01*
X49690Y96468D01*
X49060Y97243D01*
X48400Y97992D01*
X47711Y98715D01*
X46995Y99411D01*
X46251Y100078D01*
X45483Y100716D01*
X44690Y101323D01*
X43874Y101899D01*
X43037Y102443D01*
X42178Y102954D01*
X41301Y103430D01*
X40405Y103872D01*
X39493Y104279D01*
X38566Y104650D01*
X37625Y104984D01*
X36672Y105282D01*
X35708Y105542D01*
X34734Y105764D01*
X33753Y105948D01*
X32765Y106094D01*
X31772Y106201D01*
X30775Y106269D01*
X29777Y106298D01*
X28779Y106288D01*
X27781Y106240D01*
X26786Y106152D01*
X25796Y106026D01*
X24811Y105861D01*
X23833Y105658D01*
X22864Y105416D01*
X21905Y105138D01*
X20958Y104822D01*
X20024Y104469D01*
X19104Y104080D01*
X18200Y103656D01*
X17313Y103196D01*
X16445Y102702D01*
X15597Y102175D01*
X14770Y101615D01*
X13966Y101024D01*
X13185Y100401D01*
X12429Y99748D01*
X11699Y99067D01*
X10996Y98357D01*
X10322Y97621D01*
X9677Y96859D01*
X9062Y96072D01*
X8478Y95262D01*
X7926Y94429D01*
X7407Y93576D01*
X6922Y92703D01*
X6471Y91812D01*
X6056Y90904D01*
X5676Y89981D01*
X5332Y89043D01*
X5025Y88092D01*
X4756Y87131D01*
X4524Y86159D01*
X4331Y85180D01*
X4175Y84193D01*
X4059Y83201D01*
X3981Y82206D01*
X3942Y81208D01*
Y80209D01*
X3981Y79211D01*
X4059Y78216D01*
X4175Y77224D01*
X4331Y76238D01*
X4524Y75258D01*
X4756Y74287D01*
X5025Y73325D01*
X5332Y72375D01*
X5676Y71437D01*
X6056Y70513D01*
X6471Y69605D01*
X6922Y68714D01*
X7407Y67841D01*
X7926Y66988D01*
X8478Y66156D01*
X9062Y65346D01*
X9677Y64559D01*
X10322Y63797D01*
X10996Y63060D01*
X11699Y62351D01*
X12429Y61669D01*
X13185Y61016D01*
X13965Y60394D01*
X14770Y59802D01*
X15597Y59242D01*
X16445Y58715D01*
X17313Y58221D01*
X18200Y57762D01*
X19104Y57337D01*
X20023Y56948D01*
X20958Y56596D01*
X21905Y56280D01*
X22864Y56001D01*
X23833Y55760D01*
X24811Y55557D01*
X25796Y55392D01*
X26786Y55265D01*
X27781Y55178D01*
X28779Y55129D01*
X29777Y55119D01*
X30775Y55149D01*
X31772Y55217D01*
X32765Y55324D01*
X33753Y55469D01*
X34734Y55653D01*
X35708Y55875D01*
X36672Y56136D01*
X37625Y56433D01*
X38566Y56767D01*
X39493Y57138D01*
X40405Y57545D01*
X41301Y57987D01*
X42178Y58464D01*
X43037Y58974D01*
X43874Y59518D01*
X44690Y60094D01*
X45483Y60701D01*
X46251Y61339D01*
X46994Y62006D01*
X47711Y62702D01*
X48399Y63425D01*
X49060Y64174D01*
X49690Y64949D01*
X50289Y65748D01*
X50857Y66569D01*
X51393Y67412D01*
X51895Y68275D01*
X52363Y69157D01*
X52796Y70057D01*
X53194Y70973D01*
X53556Y71904D01*
X53881Y72848D01*
X54169Y73804D01*
X54420Y74771D01*
X54632Y75747D01*
X54807Y76730D01*
X54943Y77719D01*
X55040Y78713D01*
X55099Y79710D01*
X55118Y80708D01*
X66142Y113189D02*
X81102D01*
Y83661D02*
Y113189D01*
X66142Y83661D02*
X81102D01*
X66142D02*
Y113189D01*
X72835Y98425D02*
X76772D01*
X74803Y96457D02*
Y100394D01*
X134744Y173228D02*
X251279D01*
X134744D02*
Y225492D01*
X251279D01*
Y173228D02*
Y225492D01*
X250000Y276772D02*
Y294094D01*
X257874Y276772D02*
Y294094D01*
X250000Y276772D02*
X257874D01*
X250000Y294094D02*
X257874D01*
X253937Y283465D02*
Y287402D01*
X251969Y285433D02*
X255906D01*
X204823Y154331D02*
X218012D01*
X204823Y148819D02*
X218012D01*
X204823D02*
Y154331D01*
X218012Y148819D02*
Y154331D01*
X209449Y151575D02*
X213386D01*
X211417Y149606D02*
Y153543D01*
X205512Y157776D02*
Y170965D01*
X200000Y157776D02*
Y170965D01*
X205512D01*
X200000Y157776D02*
X205512D01*
X202756Y162402D02*
Y166339D01*
X200787Y164370D02*
X204724D01*
X23622Y118110D02*
Y122047D01*
X21654Y120079D02*
X25591D01*
X30315Y117323D02*
Y122835D01*
X16929Y117323D02*
Y122835D01*
Y117323D02*
X30315D01*
X16929Y122835D02*
X30315D01*
X49213Y190945D02*
Y198819D01*
X45276Y194882D02*
X53150D01*
X8465Y262795D02*
X89961D01*
X8465Y126969D02*
Y262795D01*
Y126969D02*
X89961D01*
Y262795D01*
X111221Y111221D02*
Y115157D01*
X109252Y113189D02*
X113189D01*
X104528Y110433D02*
Y115945D01*
X117913Y110433D02*
Y115945D01*
X104528D02*
X117913D01*
X104528Y110433D02*
X117913D01*
X111221Y91535D02*
Y95472D01*
X109252Y93504D02*
X113189D01*
X117913Y90748D02*
Y96260D01*
X104528Y90748D02*
Y96260D01*
Y90748D02*
X117913D01*
X104528Y96260D02*
X117913D01*
X111221Y80709D02*
Y84646D01*
X109252Y82677D02*
X113189D01*
X117913Y79921D02*
Y85433D01*
X104528Y79921D02*
Y85433D01*
Y79921D02*
X117913D01*
X104528Y85433D02*
X117913D01*
X104626Y73622D02*
X117815D01*
X104626Y68110D02*
X117815D01*
X104626D02*
Y73622D01*
X117815Y68110D02*
Y73622D01*
X109252Y70866D02*
X113189D01*
X111221Y68898D02*
Y72835D01*
X85827Y107087D02*
X93307D01*
X85827Y88779D02*
X93307D01*
Y107087D01*
X85827Y88779D02*
Y107087D01*
X87598Y97933D02*
X91535D01*
X89567Y95965D02*
Y99902D01*
X232480Y152707D02*
Y166585D01*
Y152707D02*
X249803D01*
Y166585D01*
X232480D02*
X249803D01*
X239173Y161417D02*
X243110D01*
X241142Y159449D02*
Y163386D01*
X156791Y139567D02*
X169980D01*
X156791Y134055D02*
X169980D01*
X156791D02*
Y139567D01*
X169980Y134055D02*
Y139567D01*
X161417Y136811D02*
X165354D01*
X163386Y134843D02*
Y138779D01*
Y32480D02*
Y36417D01*
X161417Y34449D02*
X165354D01*
X155512Y40354D02*
X171260D01*
X155512Y28543D02*
X171260D01*
X155512D02*
Y40354D01*
X171260Y28543D02*
Y40354D01*
X156791Y78937D02*
X169980D01*
X156791Y84449D02*
X169980D01*
Y78937D02*
Y84449D01*
X156791Y78937D02*
Y84449D01*
X161417Y81693D02*
X165354D01*
X163386Y79724D02*
Y83661D01*
X27559Y80709D02*
X31496D01*
X29528Y78740D02*
Y82677D01*
X72835Y285433D02*
Y301181D01*
X21654D02*
X72835D01*
X21654Y285433D02*
Y301181D01*
Y285433D02*
X72835D01*
X47244Y291339D02*
Y295276D01*
X45276Y293307D02*
X49213D01*
X124016Y155512D02*
X127953D01*
X125984Y153543D02*
Y157480D01*
X123228Y162205D02*
X128740D01*
X123228Y148819D02*
X128740D01*
Y162205D01*
X123228Y148819D02*
Y162205D01*
X131890Y155512D02*
X135827D01*
X133858Y153543D02*
Y157480D01*
X131102Y148819D02*
X136614D01*
X131102Y162205D02*
X136614D01*
X131102Y148819D02*
Y162205D01*
X136614Y148819D02*
Y162205D01*
X139764Y155512D02*
X143701D01*
X141732Y153543D02*
Y157480D01*
X138976Y162205D02*
X144488D01*
X138976Y148819D02*
X144488D01*
Y162205D01*
X138976Y148819D02*
Y162205D01*
X23622Y21654D02*
X27559D01*
X25591Y19685D02*
Y23622D01*
X22835Y28346D02*
X28346D01*
X22835Y14961D02*
X28346D01*
Y28346D01*
X22835Y14961D02*
Y28346D01*
X31496Y21654D02*
X35433D01*
X33465Y19685D02*
Y23622D01*
X30709Y14961D02*
X36220D01*
X30709Y28346D02*
X36220D01*
X30709Y14961D02*
Y28346D01*
X36220Y14961D02*
Y28346D01*
X112303Y145276D02*
X144193D01*
Y124803D02*
Y145276D01*
X112303Y124803D02*
X144193D01*
X112303D02*
Y145276D01*
X218898Y165354D02*
X222835D01*
X220866Y163386D02*
Y167323D01*
X227362Y157677D02*
Y173031D01*
X214370Y157677D02*
Y173031D01*
X227362D01*
X214370Y157677D02*
X227362D01*
X159646Y144587D02*
Y157776D01*
X154134Y144587D02*
Y157776D01*
X159646D01*
X154134Y144587D02*
X159646D01*
X156890Y149213D02*
Y153150D01*
X154921Y151181D02*
X158858D01*
X161713Y144587D02*
Y157776D01*
X167224Y144587D02*
Y157776D01*
X161713Y144587D02*
X167224D01*
X161713Y157776D02*
X167224D01*
X164469Y149213D02*
Y153150D01*
X162500Y151181D02*
X166437D01*
X120866Y148917D02*
Y162106D01*
X115354Y148917D02*
Y162106D01*
X120866D01*
X115354Y148917D02*
X120866D01*
X118110Y153543D02*
Y157480D01*
X116142Y155512D02*
X120079D01*
X112992Y148917D02*
Y162106D01*
X107480Y148917D02*
Y162106D01*
X112992D01*
X107480Y148917D02*
X112992D01*
X110236Y153543D02*
Y157480D01*
X108268Y155512D02*
X112205D01*
X99606Y148917D02*
Y162106D01*
X105118Y148917D02*
Y162106D01*
X99606Y148917D02*
X105118D01*
X99606Y162106D02*
X105118D01*
X102362Y153543D02*
Y157480D01*
X100394Y155512D02*
X104331D01*
X247638Y237992D02*
X260827D01*
X247638Y243504D02*
X260827D01*
Y237992D02*
Y243504D01*
X247638Y237992D02*
Y243504D01*
X252264Y240748D02*
X256201D01*
X254232Y238779D02*
Y242717D01*
X247638Y245768D02*
X260827D01*
X247638Y251279D02*
X260827D01*
Y245768D02*
Y251279D01*
X247638Y245768D02*
Y251279D01*
X252264Y248524D02*
X256201D01*
X254232Y246555D02*
Y250492D01*
X14961Y34744D02*
Y47933D01*
X20472Y34744D02*
Y47933D01*
X14961Y34744D02*
X20472D01*
X14961Y47933D02*
X20472D01*
X17717Y39370D02*
Y43307D01*
X15748Y41339D02*
X19685D01*
X14961Y15059D02*
Y28248D01*
X20472Y15059D02*
Y28248D01*
X14961Y15059D02*
X20472D01*
X14961Y28248D02*
X20472D01*
X17717Y19685D02*
Y23622D01*
X15748Y21654D02*
X19685D01*
X111417Y9154D02*
Y22343D01*
X116929Y9154D02*
Y22343D01*
X111417Y9154D02*
X116929D01*
X111417Y22343D02*
X116929D01*
X114173Y13780D02*
Y17717D01*
X112205Y15748D02*
X116142D01*
X24803Y34744D02*
Y47933D01*
X30315Y34744D02*
Y47933D01*
X24803Y34744D02*
X30315D01*
X24803Y47933D02*
X30315D01*
X27559Y39370D02*
Y43307D01*
X25591Y41339D02*
X29528D01*
X72835Y267717D02*
Y283465D01*
X21654D02*
X72835D01*
X21654Y267717D02*
Y283465D01*
Y267717D02*
X72835D01*
X47244Y273622D02*
Y277559D01*
X45276Y275590D02*
X49213D01*
X155512Y284252D02*
Y305906D01*
Y284252D02*
X181102D01*
Y252953D02*
Y284252D01*
X180905Y252756D02*
X181102Y252953D01*
X155512Y252756D02*
X180905D01*
X155512Y231890D02*
Y252756D01*
X112205Y284449D02*
Y305906D01*
X86614Y284449D02*
X112205D01*
X86614Y252756D02*
Y284449D01*
Y252756D02*
X112205D01*
Y231693D02*
Y252756D01*
Y231693D02*
X155315D01*
X155512Y231890D01*
X112205Y305906D02*
X155512D01*
X129921Y268701D02*
X137795D01*
X133858Y264764D02*
Y272638D01*
X246280Y226968D02*
Y306102D01*
X202874Y226968D02*
X246280D01*
X202874D02*
Y306102D01*
X246280D01*
X220985Y265945D02*
X228858D01*
X224921Y262008D02*
Y269882D01*
X252461Y174902D02*
X259941D01*
X252461Y193209D02*
X259941D01*
X252461Y174902D02*
Y193209D01*
X259941Y174902D02*
Y193209D01*
X254232Y184055D02*
X258169D01*
X256201Y182087D02*
Y186024D01*
X207677Y164370D02*
X211614D01*
X209646Y162402D02*
Y166339D01*
X206890Y157677D02*
X212402D01*
X206890Y171063D02*
X212402D01*
X206890Y157677D02*
Y171063D01*
X212402Y157677D02*
Y171063D01*
X131890Y394D02*
Y23228D01*
Y394D02*
X172047D01*
Y23228D01*
X131890D02*
X172047D01*
X93504Y306102D02*
Y335433D01*
X4921D02*
X93504D01*
X4921Y306102D02*
Y335433D01*
Y306102D02*
X93504D01*
X84646Y58661D02*
Y71260D01*
X68898Y58661D02*
Y71260D01*
Y58661D02*
X84646D01*
X68898Y71260D02*
X84646D01*
X74803Y64961D02*
X78740D01*
X76772Y62992D02*
Y66929D01*
X111221Y102362D02*
Y106299D01*
X109252Y104331D02*
X113189D01*
X104528Y101575D02*
Y107087D01*
X117913Y101575D02*
Y107087D01*
X104528D02*
X117913D01*
X104528Y101575D02*
X117913D01*
X66634Y74016D02*
Y81496D01*
X84941Y74016D02*
Y81496D01*
X66634D02*
X84941D01*
X66634Y74016D02*
X84941D01*
X75787Y75787D02*
Y79724D01*
X73819Y77756D02*
X77756D01*
X95669Y107579D02*
X103150D01*
X95669Y89272D02*
X103150D01*
Y107579D01*
X95669Y89272D02*
Y107579D01*
X97441Y98425D02*
X101378D01*
X99410Y96457D02*
Y100394D01*
X175197Y8858D02*
X179134D01*
X177165Y6890D02*
Y10827D01*
X174409Y15551D02*
X179921D01*
X174409Y2165D02*
X179921D01*
Y15551D01*
X174409Y2165D02*
Y15551D01*
X195866Y8858D02*
Y12795D01*
X193898Y10827D02*
X197835D01*
X202559Y8071D02*
Y13583D01*
X189173Y8071D02*
Y13583D01*
Y8071D02*
X202559D01*
X189173Y13583D02*
X202559D01*
X156791Y86811D02*
X169980D01*
X156791Y92323D02*
X169980D01*
Y86811D02*
Y92323D01*
X156791Y86811D02*
Y92323D01*
X161417Y89567D02*
X165354D01*
X163386Y87598D02*
Y91535D01*
X156791Y100197D02*
X169980D01*
X156791Y94685D02*
X169980D01*
X156791D02*
Y100197D01*
X169980Y94685D02*
Y100197D01*
X161417Y97441D02*
X165354D01*
X163386Y95472D02*
Y99409D01*
X189272Y16929D02*
X202461D01*
X189272Y22441D02*
X202461D01*
Y16929D02*
Y22441D01*
X189272Y16929D02*
Y22441D01*
X193898Y19685D02*
X197835D01*
X195866Y17717D02*
Y21654D01*
X156791Y111417D02*
X169980D01*
X156791Y116929D02*
X169980D01*
Y111417D02*
Y116929D01*
X156791Y111417D02*
Y116929D01*
X161417Y114173D02*
X165354D01*
X163386Y112205D02*
Y116142D01*
X153248Y111417D02*
Y124803D01*
X147736Y111417D02*
Y124803D01*
X153248D01*
X147736Y111417D02*
X153248D01*
X150492Y116142D02*
Y120079D01*
X148524Y118110D02*
X152461D01*
X256890Y26575D02*
Y30512D01*
X254921Y28543D02*
X258858D01*
X199803D02*
X203740D01*
X201772Y26575D02*
Y30512D01*
X104626Y58858D02*
X117815D01*
X104626Y53347D02*
X117815D01*
X104626D02*
Y58858D01*
X117815Y53347D02*
Y58858D01*
X109252Y56102D02*
X113189D01*
X111221Y54134D02*
Y58071D01*
X139764Y238189D02*
X141732D01*
X139764D02*
Y297244D01*
X141732D01*
Y238189D02*
Y297244D01*
X185039Y167323D02*
Y171260D01*
X133858Y167323D02*
X185039D01*
X133858D02*
Y171260D01*
X185039D01*
X163386Y315945D02*
Y327756D01*
X176181D01*
Y329724D01*
X161417D02*
X176181D01*
X161417Y315945D02*
Y329724D01*
Y315945D02*
X163386D01*
D93*
X251890Y13543D02*
Y43543D01*
X261890D01*
Y13543D02*
Y43543D01*
X251890Y13543D02*
X261890D01*
X226772Y23543D02*
Y33543D01*
X176772D02*
X226772D01*
X176772Y23543D02*
Y33543D01*
Y23543D02*
X226772D01*
M02*
